<svg xmlns="http://www.w3.org/2000/svg" xmlns:xlink="http://www.w3.org/1999/xlink" width="250" zoomAndPan="magnify" viewBox="0 0 187.5 74.999997" height="100" preserveAspectRatio="xMidYMid meet" version="1.0"><defs><clipPath id="89c50c2ffd"><path d="M 0 0.289062 L 187 0.289062 L 187 68.351562 L 0 68.351562 Z M 0 0.289062 " clip-rule="nonzero"/></clipPath></defs><path fill="#ffffff" d="M 10.566406 66.929688 L 162.082031 66.929688 C 166.785156 66.929688 170.601562 63.121094 170.601562 58.429688 L 170.601562 25.011719 L 185.261719 10.390625 L 170.601562 10.390625 C 170.601562 5.703125 166.785156 1.898438 162.082031 1.898438 L 10.566406 1.898438 C 5.859375 1.898438 2.046875 5.703125 2.046875 10.390625 L 2.046875 58.429688 C 2.046875 63.121094 5.859375 66.929688 10.566406 66.929688 " fill-opacity="1" fill-rule="nonzero"/><g clip-path="url(#89c50c2ffd)"><path fill="#ebeff4" d="M 10.566406 66.929688 L 10.566406 68.535156 L 162.082031 68.535156 C 167.675781 68.535156 172.210938 64.011719 172.210938 58.429688 L 172.210938 25.679688 L 186.402344 11.527344 C 186.863281 11.070312 187 10.378906 186.75 9.78125 C 186.5 9.179688 185.914062 8.785156 185.261719 8.785156 L 170.601562 8.785156 L 170.601562 10.390625 L 172.210938 10.390625 C 172.214844 7.609375 171.074219 5.074219 169.246094 3.25 C 167.414062 1.425781 164.875 0.289062 162.082031 0.289062 L 10.566406 0.289062 C 4.96875 0.292969 0.433594 4.8125 0.433594 10.390625 L 0.433594 58.429688 C 0.433594 64.011719 4.96875 68.535156 10.566406 68.535156 L 10.566406 65.320312 C 8.652344 65.320312 6.933594 64.554688 5.679688 63.304688 C 4.425781 62.050781 3.65625 60.339844 3.65625 58.429688 L 3.65625 10.390625 C 3.65625 8.488281 4.425781 6.773438 5.679688 5.523438 C 6.933594 4.273438 8.652344 3.503906 10.566406 3.503906 L 162.082031 3.503906 C 163.996094 3.503906 165.710938 4.273438 166.96875 5.523438 C 168.21875 6.773438 168.988281 8.488281 168.988281 10.390625 C 168.988281 10.816406 169.164062 11.230469 169.460938 11.527344 C 169.761719 11.828125 170.175781 12 170.601562 12 L 181.371094 12 L 169.460938 23.878906 C 169.164062 24.175781 168.988281 24.589844 168.988281 25.011719 L 168.988281 58.429688 C 168.988281 60.339844 168.21875 62.050781 166.96875 63.304688 C 165.710938 64.554688 163.996094 65.320312 162.082031 65.320312 L 10.566406 65.320312 L 10.566406 66.929688 " fill-opacity="1" fill-rule="nonzero"/></g></svg>