<svg xmlns="http://www.w3.org/2000/svg" xmlns:xlink="http://www.w3.org/1999/xlink" width="300" zoomAndPan="magnify" viewBox="0 0 224.87999 225" height="300" preserveAspectRatio="xMidYMid meet" version="1.0"><defs><clipPath id="c592b8d986"><path d="M 24 5.257812 L 71 5.257812 L 71 26 L 24 26 Z M 24 5.257812 " clip-rule="nonzero"/></clipPath><clipPath id="f98be10fb6"><path d="M 134 146 L 219 146 L 219 222.640625 L 134 222.640625 Z M 134 146 " clip-rule="nonzero"/></clipPath></defs><g clip-path="url(#c592b8d986)"><path fill="#100f0d" d="M 28.257812 25.238281 C 27.007812 25.238281 25.9375 24.304688 25.785156 23.039062 L 24.359375 11.03125 C 24.113281 9.621094 24.484375 8.179688 25.402344 7.058594 C 26.34375 5.910156 27.730469 5.257812 29.214844 5.257812 L 65.988281 5.257812 C 67.472656 5.257812 68.859375 5.910156 69.800781 7.058594 C 70.710938 8.179688 71.09375 9.621094 70.847656 11.03125 L 69.417969 23.039062 C 69.257812 24.40625 68 25.375 66.652344 25.222656 C 65.285156 25.050781 64.308594 23.8125 64.46875 22.453125 L 65.9375 10.175781 L 51.773438 10.234375 L 29.214844 10.234375 L 30.726562 22.453125 C 30.890625 23.820312 29.910156 25.050781 28.554688 25.222656 C 28.453125 25.230469 28.347656 25.238281 28.257812 25.238281 " fill-opacity="1" fill-rule="nonzero"/></g><path fill="#100f0d" d="M 55.703125 218.632812 L 47.601562 218.632812 C 25.105469 218.632812 12.085938 214.277344 6.328125 211.6875 C 3.304688 210.320312 1.359375 207.304688 1.359375 203.996094 L 1.359375 108.003906 C 1.359375 92.246094 9.292969 77.929688 9.632812 77.324219 C 23.101562 53.148438 25.214844 32.285156 25.234375 32.074219 C 25.367188 30.707031 26.589844 29.695312 27.949219 29.832031 C 29.316406 29.960938 30.320312 31.175781 30.191406 32.542969 C 30.105469 33.433594 27.992188 54.609375 13.980469 79.761719 C 13.894531 79.898438 6.335938 93.578125 6.335938 108.003906 L 6.335938 203.996094 C 6.335938 205.351562 7.136719 206.585938 8.375 207.144531 C 13.769531 209.574219 26.039062 213.648438 47.601562 213.648438 L 55.703125 213.648438 C 57.078125 213.648438 58.191406 214.761719 58.191406 216.136719 C 58.191406 217.511719 57.078125 218.632812 55.703125 218.632812 " fill-opacity="1" fill-rule="nonzero"/><path fill="#100f0d" d="M 91.355469 124.863281 C 89.980469 124.863281 88.867188 123.75 88.867188 122.375 L 88.867188 108.003906 C 88.867188 104.695312 88.46875 101.152344 87.679688 97.476562 C 85.546875 87.523438 81.273438 79.839844 81.230469 79.761719 C 67.210938 54.609375 65.097656 33.433594 65.011719 32.542969 C 64.882812 31.175781 65.886719 29.960938 67.253906 29.832031 C 68.59375 29.6875 69.835938 30.707031 69.972656 32.074219 C 69.988281 32.285156 72.101562 53.148438 85.582031 77.335938 C 85.765625 77.664062 90.261719 85.75 92.554688 96.433594 C 93.410156 100.449219 93.851562 104.347656 93.851562 108.003906 L 93.851562 122.375 C 93.851562 123.75 92.730469 124.863281 91.355469 124.863281 " fill-opacity="1" fill-rule="nonzero"/><path fill="#100f0d" d="M 67.492188 34.800781 L 27.710938 34.800781 C 26.335938 34.800781 25.222656 33.6875 25.222656 32.3125 C 25.222656 30.9375 26.335938 29.816406 27.710938 29.816406 L 67.492188 29.816406 C 68.867188 29.816406 69.980469 30.9375 69.980469 32.3125 C 69.980469 33.6875 68.867188 34.800781 67.492188 34.800781 " fill-opacity="1" fill-rule="nonzero"/><path fill="#100f0d" d="M 47.644531 175.226562 C 32.859375 175.226562 18.039062 174.0625 3.457031 171.75 L 1.359375 171.421875 L 1.359375 119.460938 L 4.238281 119.910156 C 29.359375 123.894531 54.90625 124.394531 80.171875 121.40625 C 83.773438 120.980469 87.40625 120.480469 90.972656 119.910156 L 93.851562 119.460938 L 93.851562 142.53125 C 93.851562 143.90625 92.730469 145.019531 91.355469 145.019531 C 89.980469 145.019531 88.867188 143.90625 88.867188 142.53125 L 88.867188 125.277344 C 86.175781 125.667969 83.457031 126.035156 80.757812 126.355469 C 56.007812 129.277344 30.980469 128.910156 6.335938 125.277344 L 6.335938 167.15625 C 23.042969 169.671875 40.0625 170.65625 56.933594 170.085938 C 58.3125 170.070312 59.464844 171.125 59.507812 172.492188 C 59.558594 173.867188 58.480469 175.019531 57.105469 175.0625 C 53.953125 175.175781 50.804688 175.226562 47.644531 175.226562 " fill-opacity="1" fill-rule="nonzero"/><g clip-path="url(#f98be10fb6)"><path fill="#100f0d" d="M 187.429688 151.203125 C 178.132812 151.203125 168.289062 154.574219 159.652344 160.746094 C 150.8125 167.066406 144.339844 175.53125 141.417969 184.566406 C 138.589844 193.347656 139.472656 201.601562 143.914062 207.816406 C 153.265625 220.882812 175.523438 221.035156 193.554688 208.15625 C 211.574219 195.273438 218.632812 174.15625 209.28125 161.085938 C 204.839844 154.871094 197.316406 151.363281 188.09375 151.203125 C 187.871094 151.203125 187.652344 151.203125 187.429688 151.203125 Z M 165.785156 222.640625 C 155.082031 222.640625 145.539062 218.640625 139.871094 210.710938 C 134.488281 203.179688 133.351562 193.355469 136.679688 183.039062 C 139.925781 172.992188 147.058594 163.632812 156.757812 156.695312 C 166.464844 149.757812 177.640625 146.054688 188.179688 146.226562 C 199.015625 146.414062 207.949219 150.660156 213.332031 158.191406 C 224.28125 173.492188 216.703125 197.726562 196.449219 212.207031 C 186.691406 219.175781 175.738281 222.640625 165.785156 222.640625 " fill-opacity="1" fill-rule="nonzero"/></g><path fill="#100f0d" d="M 208.398438 113.058594 C 207.972656 113.058594 207.542969 112.957031 207.140625 112.71875 C 206.957031 112.609375 206.667969 112.363281 206.515625 112.210938 C 203.660156 109.296875 177.113281 83.898438 121.902344 84.679688 L 103.855469 101.644531 C 102.863281 102.589844 101.28125 102.539062 100.339844 101.535156 C 99.398438 100.53125 99.449219 98.953125 100.449219 98.011719 L 119.195312 80.390625 C 119.644531 79.964844 120.238281 79.730469 120.851562 79.710938 C 122.054688 79.695312 123.246094 79.679688 124.417969 79.679688 C 178.761719 79.679688 205.230469 103.792969 210.070312 108.71875 L 210.0625 108.71875 C 210.929688 109.492188 211.160156 110.789062 210.546875 111.828125 C 210.089844 112.625 209.257812 113.058594 208.398438 113.058594 " fill-opacity="1" fill-rule="nonzero"/><path fill="#100f0d" d="M 68.425781 218.632812 C 67.832031 218.632812 67.253906 218.421875 66.804688 218.03125 C 66.25 217.554688 65.9375 216.867188 65.9375 216.136719 L 65.9375 175.265625 C 65.9375 173.890625 67.050781 172.78125 68.425781 172.78125 C 79.210938 172.78125 88.367188 165.070312 90.199219 154.445312 C 90.421875 153.164062 91.59375 152.265625 92.902344 152.390625 C 93.519531 152.460938 94.140625 152.484375 94.777344 152.484375 C 105.035156 152.484375 113.375 144.144531 113.375 133.894531 C 113.375 131.101562 112.746094 128.386719 111.515625 125.828125 C 111.167969 125.117188 111.183594 124.285156 111.558594 123.585938 C 111.925781 122.882812 112.605469 122.40625 113.386719 122.289062 L 208.035156 108.109375 C 208.746094 108.003906 209.476562 108.210938 210.03125 108.683594 C 210.574219 109.160156 210.894531 109.847656 210.894531 110.570312 L 210.894531 143.085938 C 210.894531 144.453125 209.773438 145.574219 208.398438 145.574219 C 207.03125 145.574219 205.910156 144.453125 205.910156 143.085938 L 205.910156 113.464844 L 117.230469 126.746094 C 117.980469 129.054688 118.351562 131.449219 118.351562 133.894531 C 118.351562 146.886719 107.78125 157.46875 94.777344 157.46875 C 94.726562 157.46875 94.683594 157.46875 94.640625 157.46875 C 91.789062 168.550781 82.292969 176.609375 70.914062 177.644531 L 70.914062 213.25 L 139.3125 203.007812 C 140.679688 202.796875 141.9375 203.738281 142.140625 205.097656 C 142.34375 206.457031 141.410156 207.730469 140.050781 207.925781 L 68.800781 218.601562 C 68.671875 218.617188 68.554688 218.632812 68.425781 218.632812 " fill-opacity="1" fill-rule="nonzero"/><path fill="#100f0d" d="M 101.199219 183.292969 C 97.621094 183.292969 94.710938 186.203125 94.710938 189.78125 C 94.710938 193.363281 97.621094 196.265625 101.199219 196.265625 C 104.78125 196.265625 107.6875 193.363281 107.6875 189.78125 C 107.6875 186.203125 104.78125 183.292969 101.199219 183.292969 Z M 101.199219 201.25 C 94.871094 201.25 89.726562 196.105469 89.726562 189.78125 C 89.726562 183.453125 94.871094 178.316406 101.199219 178.316406 C 107.523438 178.316406 112.671875 183.453125 112.671875 189.78125 C 112.671875 196.105469 107.523438 201.25 101.199219 201.25 " fill-opacity="1" fill-rule="nonzero"/><path fill="#100f0d" d="M 122.769531 176.660156 C 117.488281 176.660156 113.191406 172.363281 113.191406 167.082031 C 113.191406 165.707031 114.3125 164.59375 115.679688 164.59375 C 117.054688 164.59375 118.175781 165.707031 118.175781 167.082031 C 118.175781 169.613281 120.238281 171.683594 122.769531 171.683594 C 125.308594 171.683594 127.371094 169.613281 127.371094 167.082031 C 127.371094 165.707031 128.492188 164.59375 129.859375 164.59375 C 131.234375 164.59375 132.355469 165.707031 132.355469 167.082031 C 132.355469 172.363281 128.050781 176.660156 122.769531 176.660156 " fill-opacity="1" fill-rule="nonzero"/></svg>