<svg xmlns="http://www.w3.org/2000/svg" xmlns:xlink="http://www.w3.org/1999/xlink" width="300" zoomAndPan="magnify" viewBox="0 0 224.87999 225" height="300" preserveAspectRatio="xMidYMid meet" version="1.0"><defs><clipPath id="9bfa097501"><path d="M 65 151 L 218.460938 151 L 218.460938 189 L 65 189 Z M 65 151 " clip-rule="nonzero"/></clipPath><clipPath id="676749ca0d"><path d="M 119 117 L 134 117 L 134 224.9375 L 119 224.9375 Z M 119 117 " clip-rule="nonzero"/></clipPath><clipPath id="f97b45b56d"><path d="M 90 120 L 102 120 L 102 224.9375 L 90 224.9375 Z M 90 120 " clip-rule="nonzero"/></clipPath><clipPath id="628bdfb032"><path d="M 114 0.0585938 L 129 0.0585938 L 129 102 L 114 102 Z M 114 0.0585938 " clip-rule="nonzero"/></clipPath></defs><g clip-path="url(#9bfa097501)"><path fill="#cfe39f" d="M 214.003906 188.828125 C 213.765625 188.855469 213.523438 188.855469 213.28125 188.828125 L 68.613281 159.140625 C 68.144531 159.042969 67.710938 158.859375 67.3125 158.589844 C 66.917969 158.320312 66.585938 157.984375 66.324219 157.582031 C 66.058594 157.183594 65.882812 156.746094 65.792969 156.273438 C 65.703125 155.804688 65.707031 155.332031 65.804688 154.863281 C 65.902344 154.394531 66.085938 153.960938 66.355469 153.5625 C 66.625 153.164062 66.957031 152.835938 67.359375 152.570312 C 67.757812 152.308594 68.195312 152.128906 68.667969 152.039062 C 69.136719 151.949219 69.609375 151.953125 70.078125 152.046875 L 214.746094 181.738281 C 215.226562 181.785156 215.679688 181.921875 216.101562 182.152344 C 216.527344 182.378906 216.890625 182.679688 217.199219 183.054688 C 217.503906 183.425781 217.726562 183.84375 217.863281 184.304688 C 218.003906 184.765625 218.046875 185.238281 218 185.71875 C 217.953125 186.195312 217.816406 186.648438 217.585938 187.074219 C 217.359375 187.5 217.058594 187.863281 216.6875 188.167969 C 216.3125 188.472656 215.894531 188.695312 215.433594 188.835938 C 214.972656 188.976562 214.503906 189.019531 214.023438 188.972656 Z M 214.003906 188.828125 " fill-opacity="1" fill-rule="nonzero"/></g><path fill="#fff" d="M 185.921875 222.171875 L 185.757812 222.171875 C 185.28125 222.152344 184.824219 222.039062 184.390625 221.835938 C 183.957031 221.632812 183.578125 221.355469 183.253906 221.003906 C 182.929688 220.652344 182.6875 220.25 182.523438 219.800781 C 182.359375 219.351562 182.285156 218.886719 182.304688 218.410156 L 186.445312 124.078125 C 186.46875 123.613281 186.574219 123.167969 186.765625 122.742188 C 186.960938 122.320312 187.222656 121.945312 187.5625 121.625 C 187.898438 121.304688 188.28125 121.054688 188.714844 120.882812 C 189.148438 120.710938 189.597656 120.621094 190.0625 120.625 L 190.226562 120.625 C 190.707031 120.644531 191.164062 120.757812 191.597656 120.960938 C 192.03125 121.164062 192.414062 121.441406 192.738281 121.796875 C 193.058594 122.152344 193.304688 122.554688 193.46875 123.007812 C 193.632812 123.457031 193.703125 123.925781 193.679688 124.40625 L 189.574219 218.714844 C 189.554688 219.183594 189.445312 219.632812 189.25 220.058594 C 189.054688 220.484375 188.785156 220.859375 188.445312 221.183594 C 188.105469 221.503906 187.714844 221.753906 187.28125 221.921875 C 186.84375 222.09375 186.390625 222.175781 185.921875 222.171875 Z M 185.921875 222.171875 " fill-opacity="1" fill-rule="nonzero"/><path fill="#fff" d="M 156.246094 222.640625 C 155.765625 222.640625 155.304688 222.550781 154.863281 222.367188 C 154.417969 222.183594 154.027344 221.921875 153.6875 221.582031 C 153.347656 221.242188 153.089844 220.851562 152.90625 220.410156 C 152.722656 219.964844 152.628906 219.503906 152.628906 219.023438 L 153.550781 120.820312 C 153.550781 120.34375 153.644531 119.878906 153.828125 119.4375 C 154.011719 118.996094 154.273438 118.601562 154.609375 118.261719 C 154.949219 117.925781 155.339844 117.664062 155.785156 117.480469 C 156.226562 117.296875 156.6875 117.203125 157.167969 117.203125 C 157.648438 117.203125 158.109375 117.296875 158.550781 117.480469 C 158.996094 117.664062 159.386719 117.925781 159.726562 118.261719 C 160.066406 118.601562 160.328125 118.996094 160.511719 119.4375 C 160.695312 119.878906 160.785156 120.34375 160.785156 120.820312 L 159.863281 219.023438 C 159.863281 219.503906 159.769531 219.964844 159.585938 220.410156 C 159.402344 220.851562 159.144531 221.242188 158.804688 221.582031 C 158.464844 221.921875 158.074219 222.183594 157.628906 222.367188 C 157.1875 222.550781 156.726562 222.640625 156.246094 222.640625 Z M 156.246094 222.640625 " fill-opacity="1" fill-rule="nonzero"/><g clip-path="url(#676749ca0d)"><path fill="#fff" d="M 129.773438 224.921875 C 129.308594 224.921875 128.863281 224.839844 128.4375 224.667969 C 128.007812 224.5 127.625 224.257812 127.289062 223.941406 C 126.953125 223.625 126.6875 223.257812 126.488281 222.839844 C 126.292969 222.421875 126.183594 221.980469 126.15625 221.519531 L 119.988281 121.492188 C 119.957031 121.011719 120.019531 120.542969 120.175781 120.089844 C 120.332031 119.636719 120.570312 119.226562 120.886719 118.867188 C 121.207031 118.507812 121.582031 118.21875 122.011719 118.007812 C 122.445312 117.796875 122.898438 117.675781 123.378906 117.648438 C 123.859375 117.617188 124.324219 117.679688 124.78125 117.835938 C 125.234375 117.992188 125.640625 118.230469 126.003906 118.546875 C 126.363281 118.863281 126.648438 119.238281 126.859375 119.671875 C 127.070312 120.105469 127.191406 120.558594 127.222656 121.039062 L 133.371094 221.140625 C 133.398438 221.621094 133.335938 222.085938 133.179688 222.539062 C 133.027344 222.992188 132.789062 223.398438 132.472656 223.757812 C 132.15625 224.117188 131.78125 224.402344 131.351562 224.613281 C 130.921875 224.824219 130.46875 224.945312 129.988281 224.976562 Z M 129.773438 224.921875 " fill-opacity="1" fill-rule="nonzero"/></g><g clip-path="url(#f97b45b56d)"><path fill="#fff" d="M 98.035156 224.234375 C 97.570312 224.234375 97.121094 224.148438 96.6875 223.976562 C 96.253906 223.800781 95.871094 223.554688 95.53125 223.234375 C 95.195312 222.910156 94.929688 222.539062 94.738281 222.113281 C 94.546875 221.6875 94.4375 221.246094 94.417969 220.777344 L 90.078125 124.621094 C 90.058594 124.144531 90.128906 123.679688 90.296875 123.230469 C 90.460938 122.78125 90.703125 122.378906 91.027344 122.027344 C 91.351562 121.671875 91.730469 121.394531 92.164062 121.195312 C 92.597656 120.992188 93.054688 120.878906 93.53125 120.859375 C 94.011719 120.835938 94.472656 120.90625 94.925781 121.070312 C 95.375 121.230469 95.777344 121.472656 96.132812 121.796875 C 96.484375 122.117188 96.765625 122.496094 96.96875 122.929688 C 97.175781 123.363281 97.289062 123.816406 97.3125 124.296875 L 101.652344 220.453125 C 101.671875 220.933594 101.601562 221.398438 101.4375 221.851562 C 101.277344 222.300781 101.03125 222.707031 100.707031 223.058594 C 100.382812 223.414062 100.003906 223.695312 99.570312 223.898438 C 99.132812 224.101562 98.675781 224.214844 98.199219 224.234375 Z M 98.035156 224.234375 " fill-opacity="1" fill-rule="nonzero"/></g><path fill="#fff" d="M 10.601562 105.699219 C 10.207031 105.691406 9.828125 105.621094 9.457031 105.488281 C 9.089844 105.359375 8.75 105.171875 8.441406 104.933594 C 8.132812 104.691406 7.867188 104.40625 7.652344 104.078125 C 7.433594 103.753906 7.277344 103.398438 7.175781 103.019531 C 7.070312 102.644531 7.03125 102.257812 7.054688 101.867188 C 7.078125 101.476562 7.164062 101.097656 7.308594 100.734375 C 7.453125 100.371094 7.65625 100.039062 7.910156 99.738281 C 8.160156 99.441406 8.457031 99.1875 8.792969 98.984375 L 147.511719 14.496094 C 147.921875 14.246094 148.363281 14.085938 148.839844 14.011719 C 149.3125 13.9375 149.785156 13.957031 150.25 14.070312 C 150.71875 14.183594 151.144531 14.382812 151.53125 14.664062 C 151.921875 14.949219 152.238281 15.296875 152.488281 15.707031 C 152.738281 16.117188 152.898438 16.558594 152.972656 17.035156 C 153.046875 17.511719 153.027344 17.980469 152.914062 18.449219 C 152.796875 18.914062 152.597656 19.34375 152.316406 19.730469 C 152.03125 20.117188 151.683594 20.433594 151.273438 20.683594 L 12.480469 105.171875 C 11.902344 105.523438 11.277344 105.699219 10.601562 105.699219 Z M 10.601562 105.699219 " fill-opacity="1" fill-rule="nonzero"/><g clip-path="url(#628bdfb032)"><path fill="#fff" d="M 124.507812 101.355469 C 124.050781 101.355469 123.609375 101.273438 123.183594 101.109375 C 122.757812 100.941406 122.378906 100.703125 122.042969 100.394531 C 121.707031 100.082031 121.441406 99.722656 121.242188 99.308594 C 121.042969 98.898438 120.925781 98.464844 120.890625 98.007812 L 114.292969 4.128906 C 114.257812 3.652344 114.320312 3.183594 114.472656 2.726562 C 114.625 2.273438 114.859375 1.863281 115.171875 1.5 C 115.488281 1.136719 115.863281 0.847656 116.292969 0.632812 C 116.722656 0.417969 117.175781 0.296875 117.65625 0.261719 C 118.136719 0.230469 118.601562 0.289062 119.058594 0.441406 C 119.515625 0.59375 119.921875 0.828125 120.285156 1.140625 C 120.648438 1.457031 120.9375 1.828125 121.152344 2.257812 C 121.367188 2.691406 121.492188 3.144531 121.527344 3.625 L 128.144531 97.484375 C 128.179688 97.964844 128.121094 98.433594 127.96875 98.890625 C 127.816406 99.347656 127.582031 99.753906 127.265625 100.117188 C 126.949219 100.480469 126.578125 100.769531 126.148438 100.984375 C 125.714844 101.199219 125.261719 101.324219 124.78125 101.355469 Z M 124.507812 101.355469 " fill-opacity="1" fill-rule="nonzero"/></g><path fill="#fff" d="M 95.070312 105.699219 C 94.621094 105.699219 94.1875 105.621094 93.769531 105.464844 C 93.351562 105.308594 92.976562 105.078125 92.640625 104.78125 C 92.308594 104.484375 92.039062 104.136719 91.832031 103.738281 C 91.628906 103.34375 91.5 102.921875 91.453125 102.476562 L 81.199219 9.46875 C 81.144531 8.988281 81.1875 8.515625 81.324219 8.054688 C 81.457031 7.589844 81.675781 7.171875 81.976562 6.792969 C 82.28125 6.417969 82.640625 6.113281 83.0625 5.878906 C 83.488281 5.648438 83.9375 5.507812 84.417969 5.453125 C 84.898438 5.398438 85.367188 5.441406 85.832031 5.574219 C 86.292969 5.710938 86.714844 5.929688 87.089844 6.230469 C 87.46875 6.53125 87.773438 6.894531 88.003906 7.316406 C 88.238281 7.742188 88.378906 8.191406 88.433594 8.671875 L 98.667969 101.734375 C 98.722656 102.214844 98.679688 102.683594 98.546875 103.144531 C 98.414062 103.605469 98.195312 104.023438 97.894531 104.398438 C 97.597656 104.773438 97.234375 105.078125 96.8125 105.308594 C 96.394531 105.539062 95.945312 105.679688 95.464844 105.734375 Z M 95.070312 105.699219 " fill-opacity="1" fill-rule="nonzero"/><path fill="#fff" d="M 69.5 111.179688 C 69.074219 111.1875 68.660156 111.121094 68.257812 110.984375 C 67.855469 110.84375 67.488281 110.640625 67.15625 110.375 C 66.824219 110.105469 66.550781 109.789062 66.332031 109.421875 C 66.113281 109.058594 65.960938 108.667969 65.882812 108.25 L 47.203125 10.265625 C 47.113281 9.792969 47.117188 9.320312 47.214844 8.851562 C 47.3125 8.382812 47.492188 7.949219 47.765625 7.550781 C 48.035156 7.15625 48.367188 6.824219 48.769531 6.5625 C 49.171875 6.300781 49.605469 6.121094 50.078125 6.03125 C 50.546875 5.941406 51.019531 5.945312 51.488281 6.042969 C 51.957031 6.140625 52.390625 6.324219 52.789062 6.59375 C 53.183594 6.863281 53.515625 7.199219 53.777344 7.597656 C 54.042969 8 54.21875 8.4375 54.308594 8.90625 L 73.0625 106.890625 C 73.152344 107.363281 73.148438 107.832031 73.050781 108.304688 C 72.953125 108.773438 72.769531 109.207031 72.5 109.605469 C 72.230469 110 71.894531 110.332031 71.492188 110.59375 C 71.09375 110.859375 70.65625 111.035156 70.1875 111.125 Z M 69.5 111.179688 " fill-opacity="1" fill-rule="nonzero"/><path fill="#fff" d="M 43.710938 114.832031 C 43.316406 114.835938 42.933594 114.773438 42.558594 114.648438 C 42.183594 114.527344 41.839844 114.34375 41.527344 114.109375 C 41.210938 113.871094 40.941406 113.589844 40.71875 113.265625 C 40.496094 112.941406 40.328125 112.589844 40.222656 112.210938 L 14.433594 21.535156 C 14.304688 21.074219 14.265625 20.605469 14.320312 20.128906 C 14.378906 19.648438 14.523438 19.203125 14.757812 18.785156 C 14.992188 18.363281 15.296875 18.007812 15.671875 17.707031 C 16.046875 17.410156 16.46875 17.195312 16.929688 17.066406 C 17.390625 16.933594 17.859375 16.898438 18.335938 16.953125 C 18.8125 17.011719 19.261719 17.15625 19.679688 17.390625 C 20.097656 17.625 20.457031 17.929688 20.753906 18.304688 C 21.050781 18.683594 21.265625 19.101562 21.394531 19.5625 L 47.203125 110.21875 C 47.277344 110.488281 47.324219 110.765625 47.335938 111.042969 C 47.351562 111.324219 47.332031 111.601562 47.28125 111.875 C 47.230469 112.152344 47.148438 112.417969 47.035156 112.671875 C 46.921875 112.929688 46.78125 113.167969 46.613281 113.390625 C 46.445312 113.617188 46.253906 113.816406 46.039062 113.996094 C 45.824219 114.175781 45.589844 114.328125 45.339844 114.453125 C 45.089844 114.578125 44.828125 114.671875 44.558594 114.738281 C 44.285156 114.800781 44.007812 114.832031 43.730469 114.832031 Z M 43.710938 114.832031 " fill-opacity="1" fill-rule="nonzero"/></svg>