 <svg xmlns="http://www.w3.org/2000/svg" xmlns:xlink="http://www.w3.org/1999/xlink" width="300" zoomAndPan="magnify" viewBox="0 0 224.87999 225" height="300" preserveAspectRatio="xMidYMid meet" version="1.0"><defs><clipPath id="e07ea066cb"><path d="M 15.742188 0.0585938 L 209.136719 0.0585938 L 209.136719 224.9375 L 15.742188 224.9375 Z M 15.742188 0.0585938 " clip-rule="nonzero"/></clipPath></defs><g clip-path="url(#e07ea066cb)"><path fill="#ffffff" d="M 209.066406 203.859375 L 209.066406 21.140625 C 209.066406 20.453125 209.035156 19.761719 208.964844 19.074219 C 208.898438 18.390625 208.796875 17.707031 208.664062 17.03125 C 208.527344 16.351562 208.359375 15.683594 208.160156 15.023438 C 207.960938 14.363281 207.726562 13.710938 207.464844 13.074219 C 207.199219 12.4375 206.902344 11.8125 206.578125 11.203125 C 206.253906 10.59375 205.898438 10.003906 205.515625 9.429688 C 205.132812 8.855469 204.71875 8.300781 204.28125 7.769531 C 203.84375 7.234375 203.382812 6.722656 202.894531 6.234375 C 202.40625 5.746094 201.894531 5.285156 201.359375 4.84375 C 200.828125 4.40625 200.273438 3.996094 199.699219 3.613281 C 199.125 3.230469 198.53125 2.875 197.921875 2.550781 C 197.316406 2.222656 196.691406 1.929688 196.054688 1.664062 C 195.414062 1.402344 194.765625 1.167969 194.105469 0.96875 C 193.445312 0.765625 192.777344 0.601562 192.097656 0.464844 C 191.421875 0.332031 190.738281 0.230469 190.050781 0.160156 C 189.363281 0.09375 188.675781 0.0585938 187.984375 0.0585938 L 54.464844 0.0585938 C 53.773438 0.0585938 53.082031 0.09375 52.398438 0.160156 C 51.710938 0.230469 51.027344 0.332031 50.351562 0.464844 C 49.671875 0.601562 49.003906 0.765625 48.34375 0.96875 C 47.683594 1.167969 47.03125 1.402344 46.394531 1.664062 C 45.757812 1.929688 45.132812 2.222656 44.523438 2.550781 C 43.914062 2.875 43.324219 3.230469 42.75 3.613281 C 42.175781 3.996094 41.621094 4.40625 41.089844 4.84375 C 40.554688 5.285156 40.042969 5.746094 39.554688 6.234375 C 39.066406 6.722656 38.605469 7.234375 38.167969 7.769531 C 37.726562 8.300781 37.316406 8.855469 36.933594 9.429688 C 36.550781 10.003906 36.195312 10.59375 35.871094 11.203125 C 35.542969 11.8125 35.25 12.4375 34.984375 13.074219 C 34.722656 13.710938 34.488281 14.363281 34.289062 15.023438 C 34.089844 15.683594 33.921875 16.351562 33.785156 17.03125 C 33.652344 17.707031 33.550781 18.390625 33.480469 19.074219 C 33.414062 19.761719 33.378906 20.453125 33.378906 21.140625 L 33.378906 42.226562 L 26.351562 42.226562 C 25.660156 42.226562 24.976562 42.292969 24.296875 42.425781 C 23.617188 42.5625 22.957031 42.761719 22.320312 43.027344 C 21.679688 43.292969 21.070312 43.617188 20.496094 44 C 19.921875 44.386719 19.390625 44.824219 18.898438 45.3125 C 18.410156 45.800781 17.972656 46.335938 17.589844 46.910156 C 17.203125 47.484375 16.878906 48.09375 16.613281 48.730469 C 16.347656 49.371094 16.148438 50.03125 16.015625 50.710938 C 15.878906 51.386719 15.8125 52.074219 15.8125 52.765625 C 15.8125 53.457031 15.878906 54.144531 16.015625 54.824219 C 16.148438 55.5 16.347656 56.160156 16.613281 56.800781 C 16.878906 57.441406 17.203125 58.046875 17.589844 58.621094 C 17.972656 59.199219 18.410156 59.730469 18.898438 60.21875 C 19.390625 60.710938 19.921875 61.144531 20.496094 61.53125 C 21.070312 61.914062 21.679688 62.238281 22.320312 62.503906 C 22.957031 62.769531 23.617188 62.96875 24.296875 63.105469 C 24.976562 63.238281 25.660156 63.308594 26.351562 63.308594 L 33.378906 63.308594 L 33.378906 101.957031 L 26.351562 101.957031 C 25.660156 101.957031 24.976562 102.027344 24.296875 102.160156 C 23.617188 102.296875 22.957031 102.496094 22.320312 102.761719 C 21.679688 103.027344 21.070312 103.351562 20.496094 103.734375 C 19.921875 104.121094 19.390625 104.558594 18.898438 105.046875 C 18.410156 105.535156 17.972656 106.066406 17.589844 106.644531 C 17.203125 107.21875 16.878906 107.828125 16.613281 108.464844 C 16.347656 109.105469 16.148438 109.765625 16.015625 110.445312 C 15.878906 111.121094 15.8125 111.808594 15.8125 112.5 C 15.8125 113.191406 15.878906 113.878906 16.015625 114.554688 C 16.148438 115.234375 16.347656 115.894531 16.613281 116.535156 C 16.878906 117.171875 17.203125 117.78125 17.589844 118.355469 C 17.972656 118.933594 18.410156 119.464844 18.898438 119.953125 C 19.390625 120.441406 19.921875 120.878906 20.496094 121.265625 C 21.070312 121.648438 21.679688 121.972656 22.320312 122.238281 C 22.957031 122.503906 23.617188 122.703125 24.296875 122.839844 C 24.976562 122.972656 25.660156 123.042969 26.351562 123.042969 L 33.378906 123.042969 L 33.378906 161.691406 L 26.351562 161.691406 C 25.660156 161.691406 24.976562 161.761719 24.296875 161.894531 C 23.617188 162.03125 22.957031 162.230469 22.320312 162.496094 C 21.679688 162.757812 21.070312 163.085938 20.496094 163.46875 C 19.921875 163.855469 19.390625 164.289062 18.898438 164.78125 C 18.410156 165.269531 17.972656 165.800781 17.589844 166.378906 C 17.203125 166.953125 16.878906 167.558594 16.613281 168.199219 C 16.347656 168.839844 16.148438 169.5 16.015625 170.175781 C 15.878906 170.855469 15.8125 171.542969 15.8125 172.234375 C 15.8125 172.925781 15.878906 173.613281 16.015625 174.289062 C 16.148438 174.96875 16.347656 175.628906 16.613281 176.269531 C 16.878906 176.90625 17.203125 177.515625 17.589844 178.089844 C 17.972656 178.664062 18.410156 179.199219 18.898438 179.6875 C 19.390625 180.175781 19.921875 180.613281 20.496094 181 C 21.070312 181.382812 21.679688 181.707031 22.320312 181.972656 C 22.957031 182.238281 23.617188 182.4375 24.296875 182.574219 C 24.976562 182.707031 25.660156 182.773438 26.351562 182.773438 L 33.378906 182.773438 L 33.378906 203.859375 C 33.378906 204.546875 33.414062 205.238281 33.480469 205.925781 C 33.550781 206.609375 33.652344 207.292969 33.785156 207.96875 C 33.921875 208.648438 34.089844 209.316406 34.289062 209.976562 C 34.488281 210.636719 34.722656 211.289062 34.984375 211.925781 C 35.25 212.5625 35.542969 213.1875 35.871094 213.796875 C 36.195312 214.40625 36.550781 214.996094 36.933594 215.570312 C 37.316406 216.144531 37.726562 216.699219 38.167969 217.230469 C 38.605469 217.765625 39.066406 218.277344 39.554688 218.765625 C 40.042969 219.253906 40.554688 219.714844 41.089844 220.15625 C 41.621094 220.59375 42.175781 221.003906 42.75 221.386719 C 43.324219 221.769531 43.914062 222.125 44.523438 222.449219 C 45.132812 222.777344 45.757812 223.070312 46.394531 223.335938 C 47.03125 223.597656 47.683594 223.832031 48.34375 224.03125 C 49.003906 224.234375 49.671875 224.398438 50.351562 224.535156 C 51.027344 224.667969 51.710938 224.769531 52.398438 224.839844 C 53.082031 224.90625 53.773438 224.941406 54.464844 224.941406 L 187.984375 224.941406 C 188.675781 224.941406 189.363281 224.90625 190.050781 224.839844 C 190.738281 224.769531 191.421875 224.667969 192.097656 224.535156 C 192.777344 224.398438 193.445312 224.234375 194.105469 224.03125 C 194.765625 223.832031 195.414062 223.597656 196.054688 223.335938 C 196.691406 223.070312 197.316406 222.777344 197.921875 222.449219 C 198.53125 222.125 199.125 221.769531 199.699219 221.386719 C 200.273438 221.003906 200.828125 220.59375 201.359375 220.15625 C 201.894531 219.714844 202.40625 219.253906 202.894531 218.765625 C 203.382812 218.277344 203.84375 217.765625 204.28125 217.230469 C 204.71875 216.699219 205.132812 216.144531 205.515625 215.570312 C 205.898438 214.996094 206.253906 214.40625 206.578125 213.796875 C 206.902344 213.1875 207.199219 212.5625 207.464844 211.925781 C 207.726562 211.289062 207.960938 210.636719 208.160156 209.976562 C 208.359375 209.316406 208.527344 208.648438 208.664062 207.96875 C 208.796875 207.292969 208.898438 206.609375 208.964844 205.925781 C 209.035156 205.238281 209.066406 204.546875 209.066406 203.859375 Z M 22.839844 52.765625 C 22.839844 52.300781 22.929688 51.851562 23.105469 51.421875 C 23.285156 50.992188 23.539062 50.609375 23.867188 50.28125 C 24.199219 49.953125 24.578125 49.699219 25.007812 49.519531 C 25.4375 49.339844 25.886719 49.253906 26.351562 49.253906 L 47.4375 49.253906 C 47.902344 49.253906 48.351562 49.339844 48.78125 49.519531 C 49.210938 49.699219 49.589844 49.953125 49.921875 50.28125 C 50.25 50.609375 50.503906 50.992188 50.683594 51.421875 C 50.859375 51.851562 50.949219 52.300781 50.949219 52.765625 C 50.949219 53.230469 50.859375 53.679688 50.683594 54.109375 C 50.503906 54.542969 50.25 54.921875 49.921875 55.25 C 49.589844 55.582031 49.210938 55.835938 48.78125 56.011719 C 48.351562 56.191406 47.902344 56.28125 47.4375 56.28125 L 26.351562 56.28125 C 25.886719 56.28125 25.4375 56.191406 25.007812 56.011719 C 24.578125 55.835938 24.199219 55.582031 23.867188 55.25 C 23.539062 54.921875 23.285156 54.542969 23.105469 54.109375 C 22.929688 53.679688 22.839844 53.230469 22.839844 52.765625 Z M 22.839844 112.5 C 22.839844 112.035156 22.929688 111.585938 23.105469 111.15625 C 23.285156 110.726562 23.539062 110.34375 23.867188 110.015625 C 24.199219 109.6875 24.578125 109.433594 25.007812 109.253906 C 25.4375 109.074219 25.886719 108.984375 26.351562 108.984375 L 47.4375 108.984375 C 47.902344 108.984375 48.351562 109.074219 48.78125 109.253906 C 49.210938 109.433594 49.589844 109.6875 49.921875 110.015625 C 50.25 110.34375 50.503906 110.726562 50.683594 111.15625 C 50.859375 111.585938 50.949219 112.035156 50.949219 112.5 C 50.949219 112.964844 50.859375 113.414062 50.683594 113.84375 C 50.503906 114.273438 50.25 114.65625 49.921875 114.984375 C 49.589844 115.3125 49.210938 115.566406 48.78125 115.746094 C 48.351562 115.925781 47.902344 116.015625 47.4375 116.015625 L 26.351562 116.015625 C 25.886719 116.015625 25.4375 115.925781 25.007812 115.746094 C 24.578125 115.566406 24.199219 115.3125 23.867188 114.984375 C 23.539062 114.65625 23.285156 114.273438 23.105469 113.84375 C 22.929688 113.414062 22.839844 112.964844 22.839844 112.5 Z M 22.839844 172.234375 C 22.839844 171.769531 22.929688 171.320312 23.105469 170.890625 C 23.285156 170.457031 23.539062 170.078125 23.867188 169.75 C 24.199219 169.417969 24.578125 169.164062 25.007812 168.988281 C 25.4375 168.808594 25.886719 168.71875 26.351562 168.71875 L 47.4375 168.71875 C 47.902344 168.71875 48.351562 168.808594 48.78125 168.988281 C 49.210938 169.164062 49.589844 169.417969 49.921875 169.75 C 50.25 170.078125 50.503906 170.457031 50.683594 170.890625 C 50.859375 171.320312 50.949219 171.769531 50.949219 172.234375 C 50.949219 172.699219 50.859375 173.148438 50.683594 173.578125 C 50.503906 174.007812 50.25 174.390625 49.921875 174.71875 C 49.589844 175.046875 49.210938 175.300781 48.78125 175.480469 C 48.351562 175.660156 47.902344 175.746094 47.4375 175.746094 L 26.351562 175.746094 C 25.886719 175.746094 25.4375 175.660156 25.007812 175.480469 C 24.578125 175.300781 24.199219 175.046875 23.867188 174.71875 C 23.539062 174.390625 23.285156 174.007812 23.105469 173.578125 C 22.929688 173.148438 22.839844 172.699219 22.839844 172.234375 Z M 40.40625 203.859375 L 40.40625 182.773438 L 47.4375 182.773438 C 48.128906 182.773438 48.8125 182.707031 49.492188 182.574219 C 50.171875 182.4375 50.832031 182.238281 51.46875 181.972656 C 52.109375 181.707031 52.714844 181.382812 53.292969 181 C 53.867188 180.613281 54.398438 180.175781 54.890625 179.6875 C 55.378906 179.199219 55.816406 178.664062 56.199219 178.089844 C 56.585938 177.515625 56.910156 176.90625 57.175781 176.269531 C 57.4375 175.628906 57.640625 174.96875 57.773438 174.289062 C 57.910156 173.613281 57.976562 172.925781 57.976562 172.234375 C 57.976562 171.542969 57.910156 170.855469 57.773438 170.175781 C 57.640625 169.5 57.4375 168.839844 57.175781 168.199219 C 56.910156 167.558594 56.585938 166.953125 56.199219 166.378906 C 55.816406 165.800781 55.378906 165.269531 54.890625 164.78125 C 54.398438 164.289062 53.867188 163.855469 53.292969 163.46875 C 52.714844 163.085938 52.109375 162.757812 51.46875 162.496094 C 50.832031 162.230469 50.171875 162.03125 49.492188 161.894531 C 48.8125 161.761719 48.128906 161.691406 47.4375 161.691406 L 40.40625 161.691406 L 40.40625 123.042969 L 47.4375 123.042969 C 48.128906 123.042969 48.8125 122.972656 49.492188 122.839844 C 50.171875 122.703125 50.832031 122.503906 51.46875 122.238281 C 52.109375 121.972656 52.714844 121.648438 53.292969 121.265625 C 53.867188 120.878906 54.398438 120.441406 54.890625 119.953125 C 55.378906 119.464844 55.816406 118.933594 56.199219 118.355469 C 56.585938 117.78125 56.910156 117.171875 57.175781 116.535156 C 57.4375 115.894531 57.640625 115.234375 57.773438 114.554688 C 57.910156 113.878906 57.976562 113.191406 57.976562 112.5 C 57.976562 111.808594 57.910156 111.121094 57.773438 110.445312 C 57.640625 109.765625 57.4375 109.105469 57.175781 108.464844 C 56.910156 107.828125 56.585938 107.21875 56.199219 106.644531 C 55.816406 106.066406 55.378906 105.535156 54.890625 105.046875 C 54.398438 104.558594 53.867188 104.121094 53.292969 103.734375 C 52.714844 103.351562 52.109375 103.027344 51.46875 102.761719 C 50.832031 102.496094 50.171875 102.296875 49.492188 102.160156 C 48.8125 102.027344 48.128906 101.957031 47.4375 101.957031 L 40.40625 101.957031 L 40.40625 63.308594 L 47.4375 63.308594 C 48.128906 63.308594 48.8125 63.238281 49.492188 63.105469 C 50.171875 62.96875 50.832031 62.769531 51.46875 62.503906 C 52.109375 62.238281 52.714844 61.914062 53.292969 61.53125 C 53.867188 61.144531 54.398438 60.710938 54.890625 60.21875 C 55.378906 59.730469 55.816406 59.199219 56.199219 58.621094 C 56.585938 58.046875 56.910156 57.441406 57.175781 56.800781 C 57.4375 56.160156 57.640625 55.5 57.773438 54.824219 C 57.910156 54.144531 57.976562 53.457031 57.976562 52.765625 C 57.976562 52.074219 57.910156 51.386719 57.773438 50.710938 C 57.640625 50.03125 57.4375 49.371094 57.175781 48.730469 C 56.910156 48.09375 56.585938 47.484375 56.199219 46.910156 C 55.816406 46.335938 55.378906 45.800781 54.890625 45.3125 C 54.398438 44.824219 53.867188 44.386719 53.292969 44 C 52.714844 43.617188 52.109375 43.292969 51.46875 43.027344 C 50.832031 42.761719 50.171875 42.5625 49.492188 42.425781 C 48.8125 42.292969 48.128906 42.226562 47.4375 42.226562 L 40.40625 42.226562 L 40.40625 21.140625 C 40.40625 20.21875 40.5 19.304688 40.679688 18.402344 C 40.859375 17.496094 41.125 16.617188 41.476562 15.765625 C 41.832031 14.910156 42.265625 14.101562 42.777344 13.332031 C 43.289062 12.566406 43.871094 11.855469 44.523438 11.203125 C 45.175781 10.550781 45.886719 9.96875 46.65625 9.457031 C 47.421875 8.945312 48.230469 8.511719 49.085938 8.15625 C 49.9375 7.804688 50.816406 7.539062 51.722656 7.359375 C 52.625 7.175781 53.539062 7.085938 54.464844 7.085938 L 187.984375 7.085938 C 188.910156 7.085938 189.824219 7.175781 190.726562 7.359375 C 191.632812 7.539062 192.511719 7.804688 193.363281 8.15625 C 194.21875 8.511719 195.027344 8.945312 195.792969 9.457031 C 196.5625 9.96875 197.269531 10.550781 197.925781 11.203125 C 198.578125 11.855469 199.160156 12.566406 199.671875 13.332031 C 200.183594 14.101562 200.617188 14.910156 200.972656 15.765625 C 201.324219 16.617188 201.589844 17.496094 201.769531 18.402344 C 201.949219 19.304688 202.039062 20.21875 202.039062 21.140625 L 202.039062 203.859375 C 202.039062 204.78125 201.949219 205.695312 201.769531 206.597656 C 201.589844 207.503906 201.324219 208.382812 200.972656 209.234375 C 200.617188 210.089844 200.183594 210.898438 199.671875 211.664062 C 199.160156 212.433594 198.578125 213.144531 197.925781 213.796875 C 197.269531 214.449219 196.5625 215.03125 195.792969 215.542969 C 195.027344 216.054688 194.21875 216.488281 193.363281 216.84375 C 192.511719 217.195312 191.632812 217.460938 190.726562 217.640625 C 189.824219 217.824219 188.910156 217.914062 187.984375 217.914062 L 54.464844 217.914062 C 53.539062 217.914062 52.625 217.824219 51.722656 217.640625 C 50.816406 217.460938 49.9375 217.195312 49.085938 216.84375 C 48.230469 216.488281 47.421875 216.054688 46.65625 215.542969 C 45.886719 215.03125 45.175781 214.449219 44.523438 213.796875 C 43.871094 213.144531 43.289062 212.433594 42.777344 211.664062 C 42.265625 210.898438 41.832031 210.089844 41.476562 209.234375 C 41.125 208.382812 40.859375 207.503906 40.679688 206.597656 C 40.5 205.695312 40.40625 204.78125 40.40625 203.859375 Z M 128.25 35.199219 C 127.402344 35.199219 126.554688 35.222656 125.703125 35.269531 C 124.855469 35.316406 124.011719 35.390625 123.167969 35.484375 C 122.320312 35.578125 121.480469 35.699219 120.644531 35.839844 C 119.804688 35.984375 118.972656 36.148438 118.144531 36.335938 C 117.316406 36.523438 116.492188 36.738281 115.675781 36.972656 C 114.859375 37.207031 114.050781 37.460938 113.246094 37.742188 C 112.445312 38.023438 111.652344 38.324219 110.867188 38.648438 C 110.082031 38.972656 109.304688 39.316406 108.539062 39.683594 C 107.773438 40.050781 107.015625 40.441406 106.273438 40.847656 C 105.527344 41.257812 104.796875 41.6875 104.074219 42.136719 C 103.355469 42.589844 102.648438 43.058594 101.953125 43.546875 C 101.257812 44.039062 100.578125 44.546875 99.914062 45.074219 C 99.246094 45.601562 98.597656 46.148438 97.960938 46.710938 C 97.324219 47.277344 96.707031 47.855469 96.101562 48.457031 C 95.5 49.054688 94.914062 49.667969 94.34375 50.300781 C 93.777344 50.929688 93.226562 51.578125 92.691406 52.238281 C 92.160156 52.902344 91.644531 53.578125 91.152344 54.269531 C 90.65625 54.960938 90.179688 55.664062 89.726562 56.378906 C 89.269531 57.097656 88.835938 57.828125 88.417969 58.566406 C 88.003906 59.308594 87.609375 60.0625 87.238281 60.824219 C 86.863281 61.589844 86.511719 62.363281 86.183594 63.144531 C 85.855469 63.929688 85.546875 64.71875 85.261719 65.519531 C 84.976562 66.320312 84.710938 67.128906 84.472656 67.941406 C 84.230469 68.757812 84.011719 69.578125 83.816406 70.40625 C 83.625 71.230469 83.453125 72.0625 83.304688 72.902344 C 83.15625 73.738281 83.03125 74.578125 82.929688 75.421875 C 82.828125 76.265625 82.75 77.109375 82.695312 77.957031 C 82.640625 78.804688 82.609375 79.65625 82.601562 80.503906 C 82.597656 81.355469 82.613281 82.203125 82.652344 83.050781 C 82.695312 83.898438 82.757812 84.746094 82.847656 85.59375 C 82.933594 86.4375 83.046875 87.277344 83.179688 88.117188 C 83.3125 88.957031 83.472656 89.792969 83.652344 90.621094 C 83.835938 91.453125 84.039062 92.277344 84.265625 93.09375 C 84.492188 93.914062 84.742188 94.726562 85.015625 95.53125 C 85.289062 96.335938 85.582031 97.132812 85.902344 97.917969 C 86.21875 98.707031 86.554688 99.488281 86.917969 100.253906 C 87.277344 101.023438 87.660156 101.785156 88.0625 102.53125 C 88.464844 103.28125 88.886719 104.015625 89.332031 104.742188 C 89.777344 105.464844 90.238281 106.175781 90.722656 106.875 C 91.207031 107.574219 91.710938 108.257812 92.230469 108.929688 C 92.753906 109.601562 93.292969 110.253906 93.851562 110.894531 C 94.410156 111.535156 94.984375 112.160156 95.578125 112.769531 C 96.171875 113.375 96.78125 113.96875 97.40625 114.542969 C 98.035156 115.117188 98.675781 115.671875 99.332031 116.210938 C 99.988281 116.75 100.660156 117.269531 101.347656 117.769531 C 102.035156 118.269531 102.734375 118.753906 103.445312 119.214844 C 104.160156 119.675781 104.886719 120.117188 105.625 120.539062 C 106.359375 120.960938 107.109375 121.363281 107.871094 121.742188 C 108.628906 122.121094 109.398438 122.480469 110.179688 122.816406 C 110.960938 123.152344 111.75 123.46875 112.546875 123.761719 C 113.34375 124.050781 114.148438 124.324219 114.960938 124.570312 C 115.773438 124.816406 116.59375 125.042969 117.417969 125.246094 C 118.246094 125.445312 119.074219 125.625 119.910156 125.78125 C 120.746094 125.9375 121.585938 126.070312 122.425781 126.179688 C 123.269531 126.289062 124.113281 126.371094 124.960938 126.433594 C 125.808594 126.496094 126.65625 126.535156 127.507812 126.546875 C 128.355469 126.5625 129.207031 126.554688 130.054688 126.519531 C 130.902344 126.488281 131.75 126.429688 132.597656 126.351562 C 133.441406 126.269531 134.285156 126.167969 135.125 126.039062 C 135.964844 125.910156 136.800781 125.761719 137.632812 125.585938 C 138.464844 125.414062 139.292969 125.214844 140.113281 124.996094 C 140.933594 124.777344 141.746094 124.535156 142.554688 124.269531 C 143.359375 124.003906 144.160156 123.714844 144.949219 123.40625 C 145.742188 123.09375 146.523438 122.761719 147.296875 122.410156 C 147.71875 122.214844 148.089844 121.945312 148.40625 121.601562 C 148.722656 121.257812 148.964844 120.867188 149.125 120.429688 C 149.285156 119.992188 149.359375 119.539062 149.339844 119.070312 C 149.320312 118.605469 149.214844 118.160156 149.019531 117.734375 C 148.824219 117.3125 148.554688 116.941406 148.210938 116.625 C 147.867188 116.308594 147.476562 116.066406 147.039062 115.90625 C 146.601562 115.746094 146.148438 115.675781 145.679688 115.691406 C 145.214844 115.710938 144.769531 115.816406 144.34375 116.015625 C 143.089844 116.589844 141.804688 117.09375 140.496094 117.53125 C 139.183594 117.96875 137.855469 118.335938 136.503906 118.632812 C 135.15625 118.925781 133.792969 119.148438 132.421875 119.296875 C 131.046875 119.445312 129.671875 119.523438 128.289062 119.523438 C 126.90625 119.523438 125.53125 119.453125 124.15625 119.304688 C 122.78125 119.160156 121.421875 118.941406 120.070312 118.648438 C 118.71875 118.355469 117.390625 117.992188 116.078125 117.554688 C 114.765625 117.121094 113.484375 116.617188 112.226562 116.042969 C 110.96875 115.472656 109.746094 114.832031 108.558594 114.128906 C 107.367188 113.425781 106.21875 112.660156 105.113281 111.832031 C 104.007812 111.003906 102.949219 110.121094 101.9375 109.179688 C 100.925781 108.242188 99.964844 107.25 99.058594 106.207031 C 98.15625 105.160156 97.308594 104.074219 96.519531 102.9375 C 95.730469 101.804688 95.003906 100.632812 94.339844 99.417969 C 93.679688 98.207031 93.082031 96.964844 92.554688 95.6875 C 92.023438 94.410156 91.5625 93.109375 91.171875 91.785156 C 90.785156 90.460938 90.464844 89.117188 90.21875 87.757812 C 89.972656 86.398438 89.800781 85.03125 89.699219 83.652344 C 89.601562 82.273438 89.574219 80.894531 89.625 79.515625 C 89.671875 78.132812 89.796875 76.761719 89.992188 75.394531 C 90.1875 74.027344 90.457031 72.671875 90.796875 71.332031 C 91.136719 69.996094 91.546875 68.679688 92.03125 67.382812 C 92.511719 66.089844 93.0625 64.824219 93.679688 63.589844 C 94.296875 62.351562 94.980469 61.152344 95.726562 59.992188 C 96.472656 58.828125 97.277344 57.710938 98.144531 56.632812 C 99.011719 55.558594 99.933594 54.53125 100.910156 53.554688 C 101.886719 52.574219 102.914062 51.652344 103.988281 50.785156 C 105.0625 49.917969 106.179688 49.113281 107.34375 48.363281 C 108.503906 47.617188 109.703125 46.933594 110.9375 46.316406 C 112.175781 45.695312 113.4375 45.144531 114.734375 44.664062 C 116.027344 44.179688 117.34375 43.765625 118.683594 43.425781 C 120.019531 43.082031 121.375 42.8125 122.742188 42.617188 C 124.109375 42.417969 125.480469 42.296875 126.863281 42.246094 C 128.242188 42.195312 129.621094 42.21875 131 42.320312 C 132.378906 42.417969 133.746094 42.589844 135.105469 42.832031 C 136.464844 43.078125 137.808594 43.394531 139.132812 43.785156 C 140.460938 44.171875 141.761719 44.632812 143.039062 45.160156 C 144.3125 45.6875 145.558594 46.285156 146.769531 46.945312 C 147.984375 47.609375 149.15625 48.332031 150.292969 49.121094 C 151.425781 49.910156 152.515625 50.753906 153.5625 51.660156 C 154.605469 52.5625 155.597656 53.523438 156.539062 54.53125 C 157.480469 55.542969 158.363281 56.601562 159.191406 57.707031 C 160.019531 58.8125 160.789062 59.960938 161.492188 61.148438 C 162.195312 62.335938 162.835938 63.558594 163.410156 64.816406 C 163.984375 66.074219 164.488281 67.355469 164.925781 68.667969 C 165.363281 69.976562 165.726562 71.308594 166.019531 72.660156 C 166.3125 74.007812 166.535156 75.371094 166.683594 76.742188 C 166.828125 78.117188 166.902344 79.496094 166.902344 80.875 L 166.902344 91.417969 C 166.902344 91.878906 166.859375 92.335938 166.769531 92.789062 C 166.679688 93.242188 166.542969 93.679688 166.367188 94.105469 C 166.191406 94.53125 165.976562 94.9375 165.71875 95.320312 C 165.460938 95.707031 165.171875 96.058594 164.84375 96.386719 C 164.519531 96.714844 164.164062 97.003906 163.78125 97.261719 C 163.394531 97.515625 162.992188 97.734375 162.566406 97.910156 C 162.136719 98.085938 161.699219 98.21875 161.246094 98.308594 C 160.792969 98.398438 160.335938 98.445312 159.875 98.445312 C 159.414062 98.445312 158.957031 98.398438 158.503906 98.308594 C 158.050781 98.21875 157.613281 98.085938 157.1875 97.910156 C 156.761719 97.734375 156.355469 97.515625 155.972656 97.261719 C 155.585938 97.003906 155.234375 96.714844 154.90625 96.386719 C 154.582031 96.058594 154.289062 95.707031 154.03125 95.320312 C 153.777344 94.9375 153.558594 94.53125 153.382812 94.105469 C 153.207031 93.679688 153.074219 93.242188 152.984375 92.789062 C 152.894531 92.335938 152.847656 91.878906 152.847656 91.417969 L 152.847656 63.308594 C 152.847656 62.839844 152.757812 62.394531 152.582031 61.960938 C 152.402344 61.53125 152.148438 61.152344 151.820312 60.824219 C 151.488281 60.492188 151.109375 60.238281 150.679688 60.0625 C 150.25 59.882812 149.800781 59.792969 149.335938 59.792969 C 148.867188 59.792969 148.421875 59.882812 147.988281 60.0625 C 147.558594 60.238281 147.179688 60.492188 146.851562 60.824219 C 146.519531 61.152344 146.265625 61.53125 146.089844 61.960938 C 145.910156 62.394531 145.820312 62.839844 145.820312 63.308594 L 145.820312 63.695312 C 145.246094 63.105469 144.644531 62.550781 144.015625 62.023438 C 143.386719 61.496094 142.734375 61 142.054688 60.539062 C 141.375 60.078125 140.675781 59.648438 139.953125 59.257812 C 139.234375 58.867188 138.492188 58.511719 137.738281 58.195312 C 136.980469 57.875 136.207031 57.597656 135.421875 57.355469 C 134.640625 57.117188 133.84375 56.917969 133.039062 56.753906 C 132.234375 56.59375 131.421875 56.472656 130.605469 56.394531 C 129.789062 56.316406 128.96875 56.277344 128.148438 56.277344 C 127.328125 56.28125 126.507812 56.324219 125.691406 56.410156 C 124.875 56.492188 124.066406 56.617188 123.261719 56.785156 C 122.457031 56.949219 121.664062 57.152344 120.878906 57.398438 C 120.097656 57.644531 119.328125 57.925781 118.570312 58.25 C 117.816406 58.570312 117.078125 58.929688 116.359375 59.328125 C 115.640625 59.722656 114.945312 60.152344 114.265625 60.617188 C 113.589844 61.085938 112.941406 61.582031 112.3125 62.113281 C 111.6875 62.644531 111.089844 63.207031 110.519531 63.796875 C 109.949219 64.386719 109.410156 65.003906 108.902344 65.648438 C 108.394531 66.292969 107.917969 66.960938 107.476562 67.65625 C 107.035156 68.347656 106.632812 69.058594 106.261719 69.792969 C 105.890625 70.523438 105.558594 71.273438 105.265625 72.042969 C 104.96875 72.808594 104.714844 73.585938 104.496094 74.378906 C 104.28125 75.167969 104.101562 75.96875 103.964844 76.78125 C 103.828125 77.589844 103.734375 78.402344 103.679688 79.222656 C 103.625 80.042969 103.609375 80.863281 103.636719 81.683594 C 103.664062 82.503906 103.730469 83.320312 103.839844 84.132812 C 103.949219 84.945312 104.097656 85.753906 104.289062 86.550781 C 104.476562 87.351562 104.707031 88.136719 104.972656 88.914062 C 105.242188 89.691406 105.550781 90.449219 105.894531 91.195312 C 106.238281 91.941406 106.617188 92.667969 107.035156 93.375 C 107.453125 94.082031 107.90625 94.765625 108.390625 95.425781 C 108.875 96.089844 109.394531 96.726562 109.941406 97.335938 C 110.492188 97.945312 111.070312 98.527344 111.679688 99.078125 C 112.285156 99.628906 112.917969 100.152344 113.578125 100.640625 C 114.238281 101.128906 114.921875 101.582031 115.625 102.003906 C 116.332031 102.421875 117.054688 102.808594 117.800781 103.15625 C 118.542969 103.503906 119.300781 103.8125 120.078125 104.085938 C 120.851562 104.355469 121.636719 104.589844 122.4375 104.78125 C 123.234375 104.972656 124.039062 105.128906 124.851562 105.238281 C 125.664062 105.351562 126.484375 105.421875 127.304688 105.453125 C 128.125 105.484375 128.941406 105.472656 129.761719 105.421875 C 130.582031 105.371094 131.394531 105.277344 132.207031 105.144531 C 133.015625 105.011719 133.816406 104.839844 134.609375 104.625 C 135.402344 104.414062 136.183594 104.160156 136.949219 103.867188 C 137.71875 103.578125 138.46875 103.25 139.203125 102.882812 C 139.9375 102.515625 140.652344 102.113281 141.347656 101.675781 C 142.042969 101.238281 142.710938 100.765625 143.359375 100.257812 C 144.007812 99.753906 144.625 99.21875 145.21875 98.652344 C 145.8125 98.082031 146.375 97.488281 146.910156 96.863281 C 147.222656 97.609375 147.59375 98.320312 148.027344 99 C 148.460938 99.679688 148.949219 100.316406 149.492188 100.910156 C 150.035156 101.507812 150.625 102.050781 151.265625 102.546875 C 151.902344 103.039062 152.574219 103.476562 153.289062 103.855469 C 154 104.230469 154.738281 104.546875 155.507812 104.796875 C 156.273438 105.046875 157.054688 105.230469 157.851562 105.347656 C 158.648438 105.464844 159.453125 105.511719 160.257812 105.488281 C 161.0625 105.464844 161.863281 105.375 162.652344 105.214844 C 163.441406 105.058594 164.214844 104.832031 164.964844 104.539062 C 165.71875 104.246094 166.4375 103.894531 167.128906 103.476562 C 167.820312 103.0625 168.46875 102.589844 169.078125 102.0625 C 169.6875 101.535156 170.25 100.957031 170.757812 100.332031 C 171.269531 99.707031 171.722656 99.046875 172.117188 98.34375 C 172.515625 97.640625 172.847656 96.910156 173.117188 96.148438 C 173.386719 95.390625 173.589844 94.613281 173.726562 93.820312 C 173.863281 93.023438 173.933594 92.222656 173.929688 91.417969 L 173.929688 80.875 C 173.929688 79.378906 173.855469 77.886719 173.710938 76.398438 C 173.5625 74.910156 173.34375 73.433594 173.054688 71.964844 C 172.761719 70.496094 172.398438 69.046875 171.964844 67.617188 C 171.53125 66.183594 171.027344 64.777344 170.453125 63.394531 C 169.882812 62.011719 169.242188 60.664062 168.535156 59.34375 C 167.832031 58.023438 167.0625 56.742188 166.230469 55.5 C 165.402344 54.253906 164.511719 53.054688 163.5625 51.898438 C 162.613281 50.742188 161.609375 49.632812 160.550781 48.578125 C 159.492188 47.519531 158.386719 46.515625 157.230469 45.566406 C 156.074219 44.617188 154.875 43.726562 153.628906 42.894531 C 152.386719 42.066406 151.105469 41.296875 149.785156 40.589844 C 148.464844 39.886719 147.113281 39.246094 145.730469 38.675781 C 144.351562 38.101562 142.941406 37.597656 141.511719 37.164062 C 140.078125 36.730469 138.628906 36.367188 137.164062 36.074219 C 135.695312 35.785156 134.21875 35.5625 132.730469 35.417969 C 131.242188 35.269531 129.746094 35.199219 128.25 35.199219 Z M 128.25 98.445312 C 127.675781 98.445312 127.101562 98.417969 126.53125 98.359375 C 125.957031 98.304688 125.390625 98.21875 124.824219 98.105469 C 124.261719 97.996094 123.703125 97.855469 123.152344 97.6875 C 122.601562 97.519531 122.058594 97.328125 121.527344 97.109375 C 120.996094 96.886719 120.476562 96.640625 119.96875 96.371094 C 119.460938 96.097656 118.96875 95.804688 118.492188 95.484375 C 118.011719 95.164062 117.550781 94.820312 117.105469 94.457031 C 116.660156 94.09375 116.234375 93.707031 115.828125 93.300781 C 115.421875 92.890625 115.035156 92.464844 114.671875 92.023438 C 114.304688 91.578125 113.964844 91.117188 113.644531 90.636719 C 113.324219 90.160156 113.027344 89.664062 112.757812 89.15625 C 112.488281 88.652344 112.242188 88.132812 112.019531 87.597656 C 111.800781 87.066406 111.605469 86.527344 111.441406 85.976562 C 111.273438 85.425781 111.132812 84.867188 111.019531 84.304688 C 110.910156 83.738281 110.824219 83.171875 110.769531 82.597656 C 110.710938 82.027344 110.683594 81.453125 110.683594 80.875 C 110.683594 80.300781 110.710938 79.726562 110.769531 79.152344 C 110.824219 78.582031 110.910156 78.011719 111.019531 77.449219 C 111.132812 76.882812 111.273438 76.328125 111.441406 75.777344 C 111.605469 75.226562 111.800781 74.683594 112.019531 74.152344 C 112.242188 73.621094 112.488281 73.101562 112.757812 72.59375 C 113.027344 72.085938 113.324219 71.59375 113.644531 71.117188 C 113.964844 70.636719 114.304688 70.175781 114.671875 69.730469 C 115.035156 69.285156 115.421875 68.859375 115.828125 68.453125 C 116.234375 68.046875 116.660156 67.660156 117.105469 67.296875 C 117.550781 66.929688 118.011719 66.589844 118.492188 66.269531 C 118.96875 65.949219 119.460938 65.652344 119.96875 65.382812 C 120.476562 65.109375 120.996094 64.863281 121.527344 64.644531 C 122.058594 64.425781 122.601562 64.230469 123.152344 64.0625 C 123.703125 63.898438 124.261719 63.757812 124.824219 63.644531 C 125.390625 63.53125 125.957031 63.449219 126.53125 63.390625 C 127.101562 63.335938 127.675781 63.308594 128.25 63.308594 C 128.828125 63.308594 129.402344 63.335938 129.972656 63.390625 C 130.546875 63.449219 131.113281 63.53125 131.679688 63.644531 C 132.242188 63.757812 132.800781 63.898438 133.351562 64.0625 C 133.902344 64.230469 134.445312 64.425781 134.976562 64.644531 C 135.507812 64.863281 136.027344 65.109375 136.535156 65.382812 C 137.042969 65.652344 137.535156 65.949219 138.011719 66.269531 C 138.492188 66.589844 138.953125 66.929688 139.398438 67.296875 C 139.84375 67.660156 140.269531 68.046875 140.675781 68.453125 C 141.082031 68.859375 141.46875 69.285156 141.832031 69.730469 C 142.199219 70.175781 142.539062 70.636719 142.859375 71.117188 C 143.179688 71.59375 143.476562 72.085938 143.746094 72.59375 C 144.015625 73.101562 144.261719 73.621094 144.484375 74.152344 C 144.703125 74.683594 144.898438 75.226562 145.0625 75.777344 C 145.230469 76.328125 145.371094 76.882812 145.484375 77.449219 C 145.59375 78.011719 145.679688 78.582031 145.734375 79.152344 C 145.792969 79.726562 145.820312 80.300781 145.820312 80.875 C 145.820312 81.453125 145.792969 82.027344 145.734375 82.597656 C 145.679688 83.171875 145.59375 83.738281 145.484375 84.304688 C 145.371094 84.867188 145.230469 85.425781 145.0625 85.976562 C 144.898438 86.527344 144.703125 87.066406 144.484375 87.597656 C 144.261719 88.132812 144.015625 88.652344 143.746094 89.15625 C 143.476562 89.664062 143.179688 90.160156 142.859375 90.636719 C 142.539062 91.117188 142.199219 91.578125 141.832031 92.023438 C 141.46875 92.464844 141.082031 92.890625 140.675781 93.300781 C 140.269531 93.707031 139.84375 94.09375 139.398438 94.457031 C 138.953125 94.820312 138.492188 95.164062 138.011719 95.484375 C 137.535156 95.804688 137.042969 96.097656 136.535156 96.371094 C 136.027344 96.640625 135.507812 96.886719 134.976562 97.109375 C 134.445312 97.328125 133.902344 97.519531 133.351562 97.6875 C 132.800781 97.855469 132.242188 97.996094 131.679688 98.105469 C 131.113281 98.21875 130.546875 98.304688 129.972656 98.359375 C 129.402344 98.417969 128.828125 98.445312 128.25 98.445312 Z M 166.902344 151.152344 C 166.902344 151.617188 166.8125 152.066406 166.636719 152.496094 C 166.457031 152.925781 166.203125 153.304688 165.875 153.636719 C 165.542969 153.964844 165.164062 154.21875 164.734375 154.398438 C 164.304688 154.574219 163.855469 154.664062 163.390625 154.664062 L 93.113281 154.664062 C 92.648438 154.664062 92.199219 154.574219 91.769531 154.398438 C 91.339844 154.21875 90.960938 153.964844 90.628906 153.636719 C 90.300781 153.304688 90.046875 152.925781 89.867188 152.496094 C 89.691406 152.066406 89.601562 151.617188 89.601562 151.152344 C 89.601562 150.683594 89.691406 150.238281 89.867188 149.804688 C 90.046875 149.375 90.300781 148.996094 90.628906 148.667969 C 90.960938 148.335938 91.339844 148.082031 91.769531 147.90625 C 92.199219 147.726562 92.648438 147.636719 93.113281 147.636719 L 163.390625 147.636719 C 163.855469 147.636719 164.304688 147.726562 164.734375 147.90625 C 165.164062 148.082031 165.542969 148.335938 165.875 148.667969 C 166.203125 148.996094 166.457031 149.375 166.636719 149.804688 C 166.8125 150.238281 166.902344 150.683594 166.902344 151.152344 Z M 166.902344 179.261719 C 166.902344 179.726562 166.8125 180.175781 166.636719 180.605469 C 166.457031 181.035156 166.203125 181.417969 165.875 181.746094 C 165.542969 182.074219 165.164062 182.328125 164.734375 182.507812 C 164.304688 182.6875 163.855469 182.773438 163.390625 182.773438 L 93.113281 182.773438 C 92.648438 182.773438 92.199219 182.6875 91.769531 182.507812 C 91.339844 182.328125 90.960938 182.074219 90.628906 181.746094 C 90.300781 181.417969 90.046875 181.035156 89.867188 180.605469 C 89.691406 180.175781 89.601562 179.726562 89.601562 179.261719 C 89.601562 178.796875 89.691406 178.347656 89.867188 177.917969 C 90.046875 177.484375 90.300781 177.105469 90.628906 176.777344 C 90.960938 176.445312 91.339844 176.191406 91.769531 176.015625 C 92.199219 175.835938 92.648438 175.746094 93.113281 175.746094 L 163.390625 175.746094 C 163.855469 175.746094 164.304688 175.835938 164.734375 176.015625 C 165.164062 176.191406 165.542969 176.445312 165.875 176.777344 C 166.203125 177.105469 166.457031 177.484375 166.636719 177.917969 C 166.8125 178.347656 166.902344 178.796875 166.902344 179.261719 Z M 166.902344 179.261719 " fill-opacity="1" fill-rule="nonzero"/></g></svg>