<svg xmlns="http://www.w3.org/2000/svg" xmlns:xlink="http://www.w3.org/1999/xlink" width="300" zoomAndPan="magnify" viewBox="0 0 224.87999 225" height="300" preserveAspectRatio="xMidYMid meet" version="1.0"><defs><clipPath id="3cbf4e7eb6"><path d="M 22.488281 0.0585938 L 202.390625 0.0585938 L 202.390625 224.9375 L 22.488281 224.9375 Z M 22.488281 0.0585938 " clip-rule="nonzero"/></clipPath></defs><g clip-path="url(#3cbf4e7eb6)"><path fill="#ffffff" d="M 29.984375 15.050781 C 29.984375 10.921875 33.351562 7.554688 37.480469 7.554688 L 168.660156 7.554688 L 168.660156 18.800781 C 168.660156 27.070312 175.378906 33.792969 183.652344 33.792969 L 194.894531 33.792969 L 194.894531 209.949219 C 194.894531 214.078125 191.527344 217.445312 187.398438 217.445312 L 37.480469 217.445312 C 33.351562 217.445312 29.984375 214.078125 29.984375 209.949219 Z M 189.597656 26.296875 L 183.652344 26.296875 C 179.523438 26.296875 176.15625 22.929688 176.15625 18.800781 L 176.15625 12.855469 Z M 37.480469 224.941406 L 187.398438 224.941406 C 195.671875 224.941406 202.390625 218.21875 202.390625 209.949219 L 202.390625 33.148438 C 202.390625 31.566406 202.054688 30.058594 201.441406 28.652344 C 201.394531 28.566406 201.351562 28.507812 201.324219 28.433594 C 200.765625 27.246094 200.050781 26.148438 199.097656 25.199219 L 177.253906 3.355469 C 176.300781 2.402344 175.191406 1.671875 174.003906 1.113281 C 173.929688 1.085938 173.886719 1.039062 173.8125 1.027344 C 172.40625 0.398438 170.886719 0.0585938 169.304688 0.0585938 L 37.480469 0.0585938 C 29.207031 0.0585938 22.488281 6.78125 22.488281 15.050781 L 22.488281 209.949219 C 22.488281 218.21875 29.207031 224.941406 37.480469 224.941406 " fill-opacity="1" fill-rule="nonzero"/></g><path fill="#ffffff" d="M 52.472656 52.53125 C 52.472656 50.46875 54.15625 48.785156 56.21875 48.785156 L 78.707031 48.785156 C 80.320312 48.785156 81.664062 49.808594 82.191406 51.242188 L 71.210938 62.222656 L 66.367188 57.378906 C 64.902344 55.914062 62.53125 55.914062 61.066406 57.378906 C 59.601562 58.84375 59.601562 61.214844 61.066406 62.679688 L 68.5625 70.175781 C 69.292969 70.90625 70.246094 71.273438 71.210938 71.273438 C 72.179688 71.273438 73.128906 70.90625 73.863281 70.175781 L 82.457031 61.578125 L 82.457031 75.019531 C 82.457031 77.085938 80.773438 78.769531 78.707031 78.769531 L 56.21875 78.769531 C 54.15625 78.769531 52.472656 77.085938 52.472656 75.019531 Z M 56.21875 86.265625 L 78.707031 86.265625 C 84.914062 86.265625 89.953125 81.226562 89.953125 75.019531 L 89.953125 54.082031 L 100.097656 43.9375 C 101.5625 42.472656 101.5625 40.101562 100.097656 38.636719 C 98.632812 37.175781 96.261719 37.175781 94.796875 38.636719 L 87.652344 45.78125 C 85.589844 43.074219 82.367188 41.289062 78.707031 41.289062 L 56.21875 41.289062 C 50.011719 41.289062 44.976562 46.324219 44.976562 52.53125 L 44.976562 75.019531 C 44.976562 81.226562 50.011719 86.265625 56.21875 86.265625 " fill-opacity="1" fill-rule="nonzero"/><path fill="#ffffff" d="M 52.472656 105.003906 C 52.472656 102.941406 54.15625 101.257812 56.21875 101.257812 L 78.707031 101.257812 C 80.773438 101.257812 82.457031 102.941406 82.457031 105.003906 L 82.457031 127.492188 C 82.457031 129.554688 80.773438 131.238281 78.707031 131.238281 L 56.21875 131.238281 C 54.15625 131.238281 52.472656 129.554688 52.472656 127.492188 Z M 56.21875 138.734375 L 78.707031 138.734375 C 84.914062 138.734375 89.953125 133.699219 89.953125 127.492188 L 89.953125 105.003906 C 89.953125 98.796875 84.914062 93.761719 78.707031 93.761719 L 56.21875 93.761719 C 50.011719 93.761719 44.976562 98.796875 44.976562 105.003906 L 44.976562 127.492188 C 44.976562 133.699219 50.011719 138.734375 56.21875 138.734375 " fill-opacity="1" fill-rule="nonzero"/><path fill="#ffffff" d="M 52.472656 157.476562 C 52.472656 155.410156 54.15625 153.726562 56.21875 153.726562 L 78.707031 153.726562 C 80.773438 153.726562 82.457031 155.410156 82.457031 157.476562 L 82.457031 179.964844 C 82.457031 182.027344 80.773438 183.710938 78.707031 183.710938 L 56.21875 183.710938 C 54.15625 183.710938 52.472656 182.027344 52.472656 179.964844 Z M 56.21875 191.207031 L 78.707031 191.207031 C 84.914062 191.207031 89.953125 186.171875 89.953125 179.964844 L 89.953125 157.476562 C 89.953125 151.269531 84.914062 146.230469 78.707031 146.230469 L 56.21875 146.230469 C 50.011719 146.230469 44.976562 151.269531 44.976562 157.476562 L 44.976562 179.964844 C 44.976562 186.171875 50.011719 191.207031 56.21875 191.207031 " fill-opacity="1" fill-rule="nonzero"/><path fill="#ffffff" d="M 112.441406 56.28125 L 176.15625 56.28125 C 178.21875 56.28125 179.902344 54.597656 179.902344 52.53125 C 179.902344 50.46875 178.21875 48.785156 176.15625 48.785156 L 112.441406 48.785156 C 110.375 48.785156 108.691406 50.46875 108.691406 52.53125 C 108.691406 54.597656 110.375 56.28125 112.441406 56.28125 " fill-opacity="1" fill-rule="nonzero"/><path fill="#ffffff" d="M 112.441406 75.019531 L 149.921875 75.019531 C 151.984375 75.019531 153.667969 73.335938 153.667969 71.273438 C 153.667969 69.207031 151.984375 67.523438 149.921875 67.523438 L 112.441406 67.523438 C 110.375 67.523438 108.691406 69.207031 108.691406 71.273438 C 108.691406 73.335938 110.375 75.019531 112.441406 75.019531 " fill-opacity="1" fill-rule="nonzero"/><path fill="#ffffff" d="M 112.441406 108.753906 L 176.15625 108.753906 C 178.21875 108.753906 179.902344 107.066406 179.902344 105.003906 C 179.902344 102.941406 178.21875 101.257812 176.15625 101.257812 L 112.441406 101.257812 C 110.375 101.257812 108.691406 102.941406 108.691406 105.003906 C 108.691406 107.066406 110.375 108.753906 112.441406 108.753906 " fill-opacity="1" fill-rule="nonzero"/><path fill="#ffffff" d="M 112.441406 127.492188 L 149.921875 127.492188 C 151.984375 127.492188 153.667969 125.808594 153.667969 123.742188 C 153.667969 121.679688 151.984375 119.996094 149.921875 119.996094 L 112.441406 119.996094 C 110.375 119.996094 108.691406 121.679688 108.691406 123.742188 C 108.691406 125.808594 110.375 127.492188 112.441406 127.492188 " fill-opacity="1" fill-rule="nonzero"/><path fill="#ffffff" d="M 112.441406 161.222656 L 176.15625 161.222656 C 178.21875 161.222656 179.902344 159.539062 179.902344 157.476562 C 179.902344 155.410156 178.21875 153.726562 176.15625 153.726562 L 112.441406 153.726562 C 110.375 153.726562 108.691406 155.410156 108.691406 157.476562 C 108.691406 159.539062 110.375 161.222656 112.441406 161.222656 " fill-opacity="1" fill-rule="nonzero"/><path fill="#ffffff" d="M 112.441406 179.964844 L 149.921875 179.964844 C 151.984375 179.964844 153.667969 178.28125 153.667969 176.214844 C 153.667969 174.152344 151.984375 172.46875 149.921875 172.46875 L 112.441406 172.46875 C 110.375 172.46875 108.691406 174.152344 108.691406 176.214844 C 108.691406 178.28125 110.375 179.964844 112.441406 179.964844 " fill-opacity="1" fill-rule="nonzero"/></svg>