<svg xmlns="http://www.w3.org/2000/svg" xmlns:xlink="http://www.w3.org/1999/xlink" width="500" zoomAndPan="magnify" viewBox="0 0 375 374.999991" height="500" preserveAspectRatio="xMidYMid meet" version="1.0" fill="currentColor"><defs><clipPath id="2130c0c21b"><path d="M 0 3.28125 L 375 3.28125 L 375 371.53125 L 0 371.53125 Z M 0 3.28125 " clip-rule="nonzero"/></clipPath></defs><g clip-path="url(#2130c0c21b)"><path d="M 373.007812 80.5 L 298.199219 5.730469 C 297.003906 4.535156 295.3125 3.824219 293.671875 3.90625 C 291.984375 3.933594 290.375 4.652344 289.222656 5.890625 L 266.0625 30.816406 C 263.804688 33.253906 263.847656 37.023438 266.164062 39.402344 L 267.921875 41.210938 L 258.726562 50.398438 L 244.199219 46.773438 C 231.417969 43.558594 217.667969 47.378906 208.015625 57.042969 L 181.519531 87.910156 L 150.730469 57.136719 C 141.886719 48.292969 129.003906 45.257812 117.121094 49.203125 C 116.417969 49.441406 115.757812 49.800781 115.179688 50.261719 L 113.488281 51.628906 L 109.386719 47.519531 L 117.445312 39.464844 C 119.882812 37.027344 119.882812 33.089844 117.445312 30.652344 L 92.511719 5.730469 C 90.074219 3.292969 86.132812 3.292969 83.695312 5.730469 L 2.652344 86.734375 C 0.214844 89.167969 0.214844 93.105469 2.652344 95.542969 L 27.589844 120.46875 C 28.804688 121.683594 30.398438 122.292969 31.996094 122.292969 C 33.589844 122.292969 35.1875 121.683594 36.402344 120.46875 L 39.222656 117.652344 L 53.996094 132.417969 L 50.367188 146.9375 C 47.164062 159.726562 50.972656 173.460938 60.238281 182.714844 L 113.046875 237.015625 L 113.046875 285.730469 C 113.046875 296.714844 119.292969 306.867188 129.347656 312.238281 C 134.671875 315.074219 137.980469 320.585938 137.980469 326.625 L 137.980469 327.914062 L 131.75 327.914062 C 128.300781 327.914062 125.515625 330.699219 125.515625 334.144531 L 125.515625 365.300781 C 125.515625 368.746094 128.300781 371.53125 131.75 371.53125 L 250.195312 371.53125 C 253.644531 371.53125 256.429688 368.746094 256.429688 365.300781 L 256.429688 334.144531 C 256.429688 330.699219 253.644531 327.914062 250.195312 327.914062 L 243.960938 327.914062 L 243.960938 321.652344 L 253.84375 312.542969 C 263.269531 305.453125 268.898438 294.179688 268.898438 282.386719 L 268.898438 209.394531 C 275.917969 208.597656 282.832031 205.390625 288.363281 199.847656 L 321.316406 164.082031 C 329.078125 156.328125 331.746094 145.042969 328.265625 134.636719 C 327.269531 131.632812 332.636719 121.792969 339.03125 114.253906 C 340.179688 115.382812 341.707031 116.035156 343.324219 116.054688 C 343.339844 116.054688 343.367188 116.054688 343.382812 116.054688 C 345.023438 116.054688 346.601562 115.40625 347.765625 114.253906 L 372.992188 89.332031 C 374.167969 88.164062 374.835938 86.582031 374.84375 84.917969 C 374.847656 83.253906 374.1875 81.671875 373.007812 80.5 Z M 31.996094 107.25 L 15.875 91.136719 L 88.101562 18.945312 L 104.222656 35.058594 Z M 113.59375 219.707031 L 69.109375 173.964844 C 62.859375 167.722656 60.316406 158.519531 62.457031 149.953125 L 66.945312 132.011719 C 67.480469 129.886719 66.851562 127.644531 65.304688 126.101562 L 48.035156 108.839844 L 100.570312 56.332031 L 108.632812 64.386719 C 110.882812 66.644531 114.480469 66.824219 116.949219 64.835938 L 122.066406 60.71875 C 129.15625 58.761719 136.679688 60.710938 141.914062 65.945312 L 176.277344 100.292969 C 176.261719 100.308594 176.234375 100.316406 176.214844 100.335938 C 173.417969 102.902344 171.355469 106.15625 170.199219 109.710938 C 166.378906 107.636719 161.957031 106.726562 157.5625 107.175781 C 146.578125 108.273438 137.96875 118.199219 137.96875 129.761719 L 137.96875 194.925781 C 125.621094 197.445312 115.917969 207.296875 113.59375 219.707031 Z M 243.957031 359.070312 L 137.976562 359.070312 L 137.976562 340.375 L 243.957031 340.375 Z M 256.425781 282.386719 C 256.425781 290.285156 252.660156 297.832031 245.871094 302.976562 L 233.507812 314.332031 C 232.222656 315.507812 231.496094 317.171875 231.496094 318.917969 L 231.496094 327.914062 L 150.449219 327.914062 L 150.449219 326.617188 C 150.449219 315.96875 144.609375 306.238281 135.214844 301.238281 C 129.234375 298.042969 125.515625 292.097656 125.515625 285.730469 L 125.515625 225.457031 C 125.515625 217.347656 130.746094 210.492188 137.980469 207.914062 L 137.980469 246.910156 L 150.449219 246.910156 L 150.449219 129.761719 C 150.449219 124.515625 154.121094 120.042969 158.816406 119.574219 C 161.515625 119.332031 164.089844 120.148438 166.074219 121.945312 C 168.054688 123.738281 169.152344 126.207031 169.152344 128.871094 L 169.152344 221.988281 L 181.621094 221.988281 L 181.621094 116.417969 C 181.621094 113.761719 182.699219 111.320312 184.652344 109.527344 C 186.601562 107.742188 189.121094 106.871094 191.820312 107.109375 C 196.507812 107.511719 200.316406 112.1875 200.316406 117.519531 L 200.316406 221.988281 L 212.785156 221.988281 L 212.785156 135.109375 C 212.785156 132.457031 213.863281 130.011719 215.816406 128.21875 C 217.765625 126.4375 220.292969 125.578125 222.984375 125.800781 C 227.671875 126.207031 231.480469 130.878906 231.480469 136.210938 L 231.480469 221.988281 L 243.949219 221.988281 L 243.949219 170.527344 C 251.1875 173.105469 256.417969 179.960938 256.417969 188.074219 L 256.417969 282.386719 Z M 316.441406 138.582031 C 318.40625 144.476562 316.894531 150.875 312.320312 155.453125 L 279.367188 191.21875 C 276.335938 194.246094 272.644531 196.128906 268.894531 196.859375 L 268.894531 188.066406 C 268.894531 173.019531 258.164062 160.433594 243.957031 157.542969 L 243.957031 136.207031 C 243.957031 124.378906 235.222656 114.347656 224.074219 113.382812 C 220.148438 113.050781 216.203125 113.773438 212.699219 115.449219 C 211.757812 104.539062 203.402344 95.597656 192.90625 94.691406 C 192.636719 94.664062 192.382812 94.714844 192.113281 94.703125 L 217.160156 65.503906 C 223.410156 59.261719 232.609375 56.722656 241.1875 58.855469 L 259.136719 63.339844 C 261.257812 63.878906 263.507812 63.25 265.050781 61.703125 L 276.625 50.136719 L 330.335938 105.351562 C 324.570312 112.023438 312.75 127.53125 316.441406 138.582031 Z M 343.464844 100.984375 L 279.234375 34.960938 L 293.953125 19.109375 L 359.761719 84.882812 Z M 343.464844 100.984375 " fill-opacity="1" fill-rule="nonzero"/></g></svg>
