<svg xmlns="http://www.w3.org/2000/svg" xmlns:xlink="http://www.w3.org/1999/xlink" width="500" zoomAndPan="magnify" viewBox="0 0 375 374.999991" height="500" preserveAspectRatio="xMidYMid meet" version="1.0" fill="currentColor"><defs><clipPath id="0e6eb2f5ec"><path d="M 0 60.9375 L 374 60.9375 L 374 314.4375 L 0 314.4375 Z M 0 60.9375 " clip-rule="nonzero"/></clipPath></defs><g clip-path="url(#0e6eb2f5ec)"><path d="M 213.238281 314.4375 L 274.882812 314.4375 C 275.265625 314.4375 275.648438 314.398438 276.023438 314.324219 C 276.398438 314.25 276.765625 314.140625 277.117188 313.992188 C 277.472656 313.84375 277.808594 313.664062 278.128906 313.453125 C 278.445312 313.238281 278.742188 312.996094 279.011719 312.726562 C 279.28125 312.453125 279.523438 312.160156 279.738281 311.839844 C 279.949219 311.519531 280.128906 311.183594 280.277344 310.828125 C 280.425781 310.472656 280.535156 310.109375 280.609375 309.730469 C 280.683594 309.355469 280.722656 308.976562 280.722656 308.589844 L 280.722656 284.214844 L 343.539062 284.214844 C 343.925781 284.214844 344.304688 284.175781 344.679688 284.101562 C 345.054688 284.027344 345.421875 283.917969 345.777344 283.769531 C 346.128906 283.625 346.464844 283.441406 346.785156 283.230469 C 347.105469 283.015625 347.398438 282.773438 347.671875 282.503906 C 347.941406 282.230469 348.183594 281.9375 348.394531 281.617188 C 348.609375 281.296875 348.789062 280.960938 348.933594 280.605469 C 349.082031 280.25 349.191406 279.886719 349.265625 279.507812 C 349.339844 279.132812 349.378906 278.75 349.378906 278.367188 L 349.378906 193.40625 L 367.957031 193.40625 C 368.535156 193.40625 369.097656 193.324219 369.648438 193.15625 C 370.203125 192.988281 370.71875 192.746094 371.199219 192.425781 C 371.675781 192.105469 372.101562 191.71875 372.46875 191.273438 C 372.832031 190.828125 373.128906 190.339844 373.347656 189.804688 C 373.570312 189.269531 373.710938 188.71875 373.765625 188.140625 C 373.824219 187.566406 373.796875 186.996094 373.683594 186.429688 C 373.574219 185.863281 373.382812 185.324219 373.113281 184.816406 C 372.839844 184.304688 372.5 183.84375 372.09375 183.4375 L 282.011719 92.878906 C 281.738281 92.605469 281.445312 92.363281 281.125 92.148438 C 280.804688 91.933594 280.46875 91.753906 280.113281 91.609375 C 279.757812 91.460938 279.394531 91.347656 279.015625 91.273438 C 278.640625 91.199219 278.257812 91.160156 277.875 91.160156 C 277.492188 91.160156 277.109375 91.199219 276.734375 91.273438 C 276.359375 91.347656 275.992188 91.460938 275.636719 91.609375 C 275.28125 91.753906 274.945312 91.933594 274.625 92.148438 C 274.308594 92.363281 274.011719 92.605469 273.738281 92.878906 L 247.628906 119.113281 L 191.46875 62.644531 C 190.921875 62.09375 190.292969 61.667969 189.574219 61.371094 C 188.859375 61.070312 188.113281 60.921875 187.335938 60.921875 C 186.5625 60.921875 185.816406 61.070312 185.097656 61.371094 C 184.382812 61.667969 183.75 62.09375 183.203125 62.644531 L 126.96875 119.105469 L 100.867188 92.878906 C 100.320312 92.328125 99.6875 91.902344 98.972656 91.605469 C 98.253906 91.308594 97.511719 91.160156 96.734375 91.160156 C 95.960938 91.160156 95.214844 91.308594 94.496094 91.605469 C 93.78125 91.90625 93.148438 92.328125 92.601562 92.878906 L 2.441406 183.429688 C 2.035156 183.839844 1.695312 184.300781 1.425781 184.808594 C 1.152344 185.320312 0.960938 185.859375 0.847656 186.425781 C 0.738281 186.992188 0.710938 187.5625 0.765625 188.136719 C 0.824219 188.714844 0.960938 189.269531 1.183594 189.800781 C 1.402344 190.335938 1.699219 190.824219 2.0625 191.273438 C 2.429688 191.71875 2.851562 192.101562 3.332031 192.421875 C 3.8125 192.742188 4.328125 192.988281 4.882812 193.15625 C 5.433594 193.324219 6 193.40625 6.578125 193.40625 L 25.257812 193.40625 L 25.257812 278.367188 C 25.257812 278.75 25.292969 279.132812 25.367188 279.507812 C 25.441406 279.886719 25.554688 280.25 25.699219 280.605469 C 25.847656 280.960938 26.027344 281.296875 26.238281 281.617188 C 26.453125 281.9375 26.695312 282.230469 26.964844 282.503906 C 27.238281 282.773438 27.53125 283.015625 27.851562 283.230469 C 28.167969 283.441406 28.507812 283.625 28.859375 283.769531 C 29.214844 283.917969 29.578125 284.027344 29.957031 284.101562 C 30.332031 284.175781 30.710938 284.214844 31.09375 284.214844 L 93.929688 284.214844 L 93.929688 308.605469 C 93.929688 308.988281 93.964844 309.367188 94.039062 309.746094 C 94.113281 310.121094 94.226562 310.488281 94.371094 310.84375 C 94.519531 311.195312 94.699219 311.535156 94.910156 311.851562 C 95.125 312.171875 95.367188 312.46875 95.636719 312.738281 C 95.910156 313.011719 96.203125 313.253906 96.523438 313.464844 C 96.839844 313.679688 97.175781 313.859375 97.53125 314.007812 C 97.886719 314.152344 98.25 314.265625 98.625 314.339844 C 99.003906 314.414062 99.382812 314.453125 99.765625 314.453125 L 161.296875 314.453125 C 161.679688 314.453125 162.058594 314.414062 162.433594 314.339844 C 162.808594 314.265625 163.175781 314.152344 163.53125 314.007812 C 163.882812 313.859375 164.21875 313.679688 164.539062 313.464844 C 164.859375 313.253906 165.152344 313.011719 165.421875 312.738281 C 165.695312 312.46875 165.9375 312.171875 166.148438 311.851562 C 166.363281 311.535156 166.542969 311.195312 166.6875 310.84375 C 166.835938 310.488281 166.945312 310.121094 167.019531 309.746094 C 167.097656 309.367188 167.132812 308.988281 167.132812 308.605469 L 167.132812 237.644531 L 207.398438 237.644531 L 207.398438 308.605469 C 207.402344 308.988281 207.4375 309.367188 207.515625 309.742188 C 207.589844 310.121094 207.699219 310.484375 207.847656 310.839844 C 207.996094 311.191406 208.175781 311.527344 208.386719 311.847656 C 208.601562 312.164062 208.84375 312.460938 209.113281 312.730469 C 209.386719 313 209.679688 313.242188 210 313.453125 C 210.316406 313.667969 210.652344 313.847656 211.007812 313.992188 C 211.359375 314.140625 211.726562 314.25 212.101562 314.324219 C 212.476562 314.398438 212.855469 314.4375 213.238281 314.4375 Z M 277.867188 105.289062 L 353.898438 181.714844 L 343.539062 181.714844 C 343.15625 181.714844 342.777344 181.753906 342.402344 181.828125 C 342.027344 181.902344 341.660156 182.011719 341.308594 182.160156 C 340.953125 182.308594 340.617188 182.488281 340.296875 182.699219 C 339.980469 182.914062 339.683594 183.15625 339.414062 183.425781 C 339.140625 183.699219 338.898438 183.992188 338.6875 184.3125 C 338.472656 184.632812 338.292969 184.96875 338.148438 185.324219 C 338 185.679688 337.890625 186.042969 337.816406 186.421875 C 337.742188 186.796875 337.703125 187.175781 337.703125 187.5625 L 337.703125 272.519531 L 280.699219 272.519531 L 280.699219 193.378906 L 307.445312 193.378906 C 308.023438 193.378906 308.585938 193.296875 309.140625 193.128906 C 309.691406 192.960938 310.207031 192.71875 310.6875 192.398438 C 311.167969 192.078125 311.59375 191.691406 311.960938 191.246094 C 312.328125 190.800781 312.621094 190.308594 312.839844 189.777344 C 313.0625 189.242188 313.203125 188.6875 313.257812 188.113281 C 313.316406 187.535156 313.289062 186.964844 313.175781 186.398438 C 313.066406 185.832031 312.875 185.292969 312.601562 184.78125 C 312.332031 184.273438 311.992188 183.8125 311.582031 183.402344 L 255.867188 127.394531 Z M 36.921875 272.519531 L 36.921875 187.5625 C 36.921875 187.175781 36.886719 186.796875 36.8125 186.421875 C 36.738281 186.042969 36.625 185.679688 36.480469 185.324219 C 36.332031 184.96875 36.152344 184.632812 35.941406 184.3125 C 35.726562 183.992188 35.484375 183.699219 35.214844 183.425781 C 34.941406 183.15625 34.648438 182.914062 34.328125 182.699219 C 34.011719 182.488281 33.671875 182.308594 33.320312 182.160156 C 32.964844 182.011719 32.601562 181.902344 32.222656 181.828125 C 31.847656 181.753906 31.46875 181.714844 31.085938 181.714844 L 20.644531 181.714844 L 96.765625 105.289062 L 118.746094 127.390625 L 62.949219 183.402344 C 62.542969 183.8125 62.203125 184.273438 61.929688 184.78125 C 61.660156 185.292969 61.46875 185.832031 61.355469 186.398438 C 61.242188 186.964844 61.214844 187.535156 61.273438 188.113281 C 61.332031 188.6875 61.46875 189.242188 61.691406 189.777344 C 61.914062 190.308594 62.207031 190.800781 62.574219 191.246094 C 62.941406 191.691406 63.363281 192.078125 63.84375 192.398438 C 64.324219 192.71875 64.839844 192.960938 65.394531 193.128906 C 65.945312 193.296875 66.511719 193.378906 67.089844 193.378906 L 93.929688 193.378906 L 93.929688 272.519531 Z M 161.296875 225.949219 C 160.914062 225.949219 160.53125 225.988281 160.15625 226.0625 C 159.78125 226.136719 159.414062 226.25 159.0625 226.394531 C 158.707031 226.542969 158.371094 226.722656 158.050781 226.9375 C 157.734375 227.148438 157.4375 227.390625 157.167969 227.664062 C 156.898438 227.933594 156.65625 228.230469 156.441406 228.550781 C 156.230469 228.867188 156.046875 229.207031 155.902344 229.558594 C 155.753906 229.914062 155.644531 230.28125 155.570312 230.65625 C 155.496094 231.035156 155.457031 231.414062 155.457031 231.796875 L 155.457031 302.746094 L 105.601562 302.746094 L 105.601562 187.53125 C 105.601562 187.148438 105.566406 186.769531 105.492188 186.390625 C 105.417969 186.015625 105.304688 185.652344 105.160156 185.296875 C 105.011719 184.941406 104.832031 184.605469 104.621094 184.285156 C 104.40625 183.964844 104.164062 183.671875 103.894531 183.398438 C 103.621094 183.128906 103.328125 182.886719 103.007812 182.671875 C 102.691406 182.457031 102.355469 182.277344 102 182.132812 C 101.644531 181.984375 101.28125 181.875 100.90625 181.800781 C 100.527344 181.722656 100.148438 181.6875 99.765625 181.6875 L 81.15625 181.6875 L 131.125 131.527344 L 131.125 131.492188 L 187.328125 75.054688 L 243.457031 131.488281 L 243.488281 131.523438 L 293.390625 181.6875 L 274.859375 181.6875 C 274.476562 181.6875 274.097656 181.722656 273.722656 181.800781 C 273.347656 181.875 272.980469 181.984375 272.625 182.132812 C 272.273438 182.277344 271.9375 182.457031 271.617188 182.671875 C 271.296875 182.886719 271.003906 183.128906 270.734375 183.398438 C 270.460938 183.671875 270.21875 183.964844 270.007812 184.285156 C 269.792969 184.605469 269.613281 184.941406 269.46875 185.296875 C 269.320312 185.652344 269.210938 186.015625 269.136719 186.390625 C 269.058594 186.769531 269.023438 187.148438 269.023438 187.53125 L 269.023438 302.746094 L 219.074219 302.746094 L 219.074219 231.796875 C 219.074219 231.414062 219.039062 231.035156 218.964844 230.65625 C 218.886719 230.28125 218.777344 229.914062 218.628906 229.558594 C 218.484375 229.207031 218.304688 228.867188 218.089844 228.550781 C 217.878906 228.230469 217.636719 227.933594 217.367188 227.664062 C 217.09375 227.390625 216.800781 227.148438 216.480469 226.9375 C 216.160156 226.722656 215.824219 226.542969 215.472656 226.394531 C 215.117188 226.25 214.753906 226.136719 214.375 226.0625 C 214 225.988281 213.621094 225.949219 213.238281 225.949219 Z M 161.296875 225.949219 " fill-opacity="1" fill-rule="nonzero"/></g></svg>
