<svg xmlns="http://www.w3.org/2000/svg" xmlns:xlink="http://www.w3.org/1999/xlink" width="300" zoomAndPan="magnify" viewBox="0 0 224.87999 225" height="300" preserveAspectRatio="xMidYMid meet" version="1.0"><defs><clipPath id="2579502488"><path d="M 7 5.121094 L 219 5.121094 L 219 220 L 7 220 Z M 7 5.121094 " clip-rule="nonzero"/></clipPath></defs><g clip-path="url(#2579502488)"><path fill="#000000" d="M 211.0625 51.507812 C 210.507812 49.234375 208.480469 47.640625 206.140625 47.640625 C 206.128906 47.640625 206.121094 47.640625 206.121094 47.640625 C 204.277344 47.652344 162.792969 48.191406 130.835938 73.699219 C 105.074219 20.324219 41.25 6.3125 38.511719 5.742188 C 36.253906 5.277344 33.914062 6.394531 32.910156 8.503906 C 4.445312 67.886719 -0.121094 117.335938 19.308594 155.488281 C 44.164062 204.296875 99.109375 216.941406 106.605469 218.464844 C 106.675781 218.515625 106.757812 218.535156 106.828125 218.585938 C 107.214844 218.878906 107.597656 219.183594 108.085938 219.367188 C 108.671875 219.582031 109.257812 219.683594 109.847656 219.683594 C 109.898438 219.683594 109.9375 219.640625 110 219.632812 C 110.140625 219.632812 110.253906 219.640625 110.503906 219.640625 C 117.65625 219.640625 166.492188 218.230469 196.355469 180.9375 C 219.96875 151.421875 224.921875 107.878906 211.0625 51.507812 Z M 28.34375 150.882812 C 10.820312 116.472656 14.828125 71.328125 40.285156 16.640625 C 54.273438 20.519531 102.683594 36.714844 122.449219 79.445312 C 135.445312 107.574219 133.652344 141.984375 117.636719 181.851562 C 116.046875 185.464844 114.425781 189.269531 112.773438 193.269531 C 112.296875 194.304688 111.75 195.359375 111.265625 196.402344 C 107.617188 176.210938 97.933594 140.175781 72.152344 99.3125 C 70.644531 96.929688 67.484375 96.25 65.175781 97.730469 C 62.804688 99.222656 62.09375 102.355469 63.59375 104.722656 C 92.757812 150.964844 100.578125 191.453125 102.625 207.007812 C 86.882812 202.605469 47.316406 188.164062 28.34375 150.882812 Z M 188.484375 174.527344 C 166.675781 201.84375 132.363281 207.820312 117.375 209.117188 C 118.851562 205.273438 120.320312 201.589844 121.757812 198.058594 C 123.460938 194.375 124.890625 190.792969 126.359375 187.191406 C 146.707031 140.785156 162.15625 126.335938 162.390625 126.121094 C 164.476562 124.265625 164.679688 121.070312 162.824219 118.980469 C 160.972656 116.867188 157.78125 116.65625 155.683594 118.523438 C 155.207031 118.9375 149.273438 124.316406 140.0625 138.785156 C 142.707031 118.765625 140.78125 100.449219 134.796875 83.726562 C 158.894531 63.085938 191.058594 58.792969 202.1875 57.984375 C 214.050781 109.09375 209.441406 148.292969 188.484375 174.527344 Z M 188.484375 174.527344 " fill-opacity="1" fill-rule="nonzero"/></g></svg>