<svg xmlns="http://www.w3.org/2000/svg" xmlns:xlink="http://www.w3.org/1999/xlink" width="300" zoomAndPan="magnify" viewBox="0 0 224.87999 225" height="300" preserveAspectRatio="xMidYMid meet" version="1.0"><defs><clipPath id="ef4c188d0c"><path d="M 0 5.246094 L 216.632812 5.246094 L 216.632812 224.878906 L 0 224.878906 Z M 0 5.246094 " clip-rule="nonzero"/></clipPath></defs><g clip-path="url(#ef4c188d0c)"><path fill="#000000" d="M 73.992188 48.8125 C 73.332031 48.8125 72.761719 50.351562 72.761719 52.238281 C 72.761719 54.128906 73.289062 55.664062 73.992188 55.664062 C 74.652344 55.664062 75.222656 54.128906 75.222656 52.238281 C 75.179688 50.351562 74.652344 48.8125 73.992188 48.8125 Z M 67.449219 48.8125 C 66.789062 48.8125 66.21875 50.351562 66.21875 52.238281 C 66.21875 54.128906 66.746094 55.664062 67.449219 55.664062 C 68.148438 55.664062 68.675781 54.128906 68.675781 52.238281 C 68.632812 50.351562 68.105469 48.8125 67.449219 48.8125 Z M 61.871094 168.535156 C 62.394531 168.535156 62.878906 168.796875 63.230469 169.191406 C 63.144531 167.347656 62.617188 166.074219 61.648438 165.679688 C 59.542969 164.84375 56.027344 168.796875 53.875 174.417969 C 51.722656 180.039062 51.679688 185.3125 53.789062 186.101562 C 55.894531 186.9375 59.410156 182.984375 61.5625 177.363281 C 62.351562 175.296875 62.835938 173.277344 63.054688 171.519531 C 62.746094 171.828125 62.308594 172.046875 61.824219 172.046875 C 60.859375 172.046875 60.070312 171.257812 60.070312 170.289062 C 60.070312 169.324219 60.902344 168.535156 61.871094 168.535156 Z M 207.472656 95.5 C 206.199219 94.796875 204.574219 94.578125 203.125 94.882812 C 202.949219 94.929688 202.726562 94.972656 202.550781 95.058594 L 201.585938 95.367188 L 202.027344 96.378906 C 202.113281 96.597656 202.203125 96.816406 202.332031 97.078125 C 202.726562 97.78125 203.34375 98.792969 204.398438 99.582031 C 205.453125 100.375 206.726562 100.855469 207.867188 100.855469 C 207.910156 100.855469 207.957031 100.855469 207.957031 100.855469 C 208.394531 100.855469 209.140625 100.8125 209.667969 100.460938 C 210.328125 100.066406 210.589844 99.277344 210.328125 98.484375 C 210.0625 97.386719 208.964844 96.289062 207.472656 95.5 Z M 208.746094 99.011719 C 208.65625 99.054688 208.394531 99.144531 207.910156 99.144531 C 207.121094 99.144531 206.199219 98.792969 205.453125 98.222656 C 204.878906 97.78125 204.441406 97.253906 204.003906 96.507812 C 204.878906 96.421875 205.890625 96.597656 206.679688 97.035156 C 207.691406 97.5625 208.527344 98.351562 208.746094 99.011719 Z M 94.503906 42.09375 C 94.503906 41.4375 95.03125 40.910156 95.691406 40.910156 C 95.953125 40.910156 96.171875 40.996094 96.347656 41.128906 C 96.214844 40.46875 95.953125 40.03125 95.558594 39.855469 C 94.371094 39.414062 92.394531 41.613281 91.210938 44.773438 C 89.980469 47.9375 89.980469 50.878906 91.164062 51.363281 C 92.351562 51.800781 94.328125 49.605469 95.515625 46.441406 C 95.996094 45.214844 96.261719 44.027344 96.390625 43.015625 C 96.214844 43.148438 95.953125 43.28125 95.691406 43.28125 C 95.03125 43.28125 94.503906 42.753906 94.503906 42.09375 Z M 216.257812 97.125 C 215.730469 90.710938 208 89.4375 204.617188 89.21875 L 203.167969 77.230469 L 200.839844 78.722656 C 200.574219 78.898438 198.160156 80.523438 196.796875 84.695312 C 196.050781 86.933594 196.050781 90.316406 196.097656 92.117188 C 195.347656 92.511719 194.296875 93.128906 193.371094 93.917969 C 192.714844 94.488281 192.097656 95.058594 191.570312 95.628906 C 187.269531 89.21875 181.996094 84.035156 175.628906 80.128906 L 176.8125 46.355469 L 176.8125 46.265625 C 175.761719 37.132812 174.089844 30.191406 169.609375 25.140625 C 169.742188 25.011719 169.832031 24.921875 169.960938 24.792969 C 170.09375 24.660156 170.226562 24.484375 170.359375 24.394531 C 170.664062 25.230469 171.234375 26.371094 172.378906 27.292969 C 173.433594 28.171875 174.660156 28.65625 175.890625 28.65625 C 176.023438 28.65625 176.15625 28.65625 176.242188 28.65625 C 177.253906 28.566406 178 28.171875 178.484375 27.558594 C 178.835938 27.117188 178.964844 26.546875 179.011719 26.109375 C 179.011719 25.667969 178.921875 25.273438 178.703125 24.878906 C 178.351562 24.175781 177.867188 23.691406 177.429688 23.296875 C 177.386719 23.253906 177.296875 23.167969 177.253906 23.121094 C 177.121094 22.992188 176.945312 22.859375 176.769531 22.726562 C 176.550781 22.550781 176.285156 22.332031 176.023438 22.199219 C 174.96875 21.496094 173.695312 21.144531 172.507812 21.144531 C 172.421875 21.144531 172.335938 21.144531 172.246094 21.144531 C 172.246094 21.101562 172.246094 21.015625 172.203125 20.96875 C 172.113281 20.574219 172.070312 20.222656 172.070312 19.871094 C 172.027344 19.476562 171.984375 19.167969 171.984375 18.863281 C 171.9375 18.46875 171.9375 18.117188 171.9375 17.808594 C 171.9375 17.589844 171.9375 17.367188 171.9375 17.195312 C 171.9375 16.886719 171.9375 16.667969 171.9375 16.445312 C 171.9375 16.316406 171.9375 16.183594 171.9375 16.050781 L 171.9375 15.65625 C 171.9375 15.4375 171.808594 15.304688 171.585938 15.261719 L 171.410156 15.21875 C 171.191406 15.171875 171.015625 15.261719 170.929688 15.480469 C 170.929688 15.480469 170.707031 16.050781 170.359375 17.019531 L 170.3125 17.238281 C 170.183594 17.675781 170.050781 18.203125 169.960938 18.820312 C 169.917969 19.167969 169.832031 19.566406 169.832031 19.960938 C 169.785156 20.441406 169.785156 20.882812 169.785156 21.277344 C 169.785156 21.496094 169.785156 21.671875 169.832031 21.894531 C 169.609375 22.023438 169.390625 22.113281 169.171875 22.289062 C 168.730469 22.550781 168.207031 22.945312 167.765625 23.34375 C 167.371094 22.992188 166.929688 22.640625 166.492188 22.332031 C 160.429688 17.765625 150.945312 15.4375 132.804688 13.898438 C 131.792969 13.636719 125.644531 12.097656 117.429688 13.285156 C 116.332031 13.460938 115.191406 13.679688 114.003906 13.945312 C 113.699219 13.109375 113.300781 12.363281 112.820312 11.660156 C 109.875 7.269531 105 6.742188 104.824219 6.742188 C 104.695312 6.742188 104.5625 6.742188 104.429688 6.785156 C 103.992188 6.652344 103.464844 6.785156 103.15625 7.179688 C 102.9375 7.445312 99.160156 11.746094 100.960938 19.519531 C 100.433594 19.871094 99.90625 20.222656 99.378906 20.574219 C 99.863281 17.105469 99.421875 14.074219 97.972656 11.527344 C 95.117188 6.390625 89.410156 5.292969 89.1875 5.246094 L 89.144531 5.246094 C 89.058594 5.246094 89.011719 5.246094 88.925781 5.246094 L 88.882812 5.246094 C 88.792969 5.246094 88.707031 5.292969 88.617188 5.292969 C 88.574219 5.292969 88.574219 5.292969 88.574219 5.335938 C 88.484375 5.378906 88.441406 5.378906 88.398438 5.421875 C 88.355469 5.421875 88.355469 5.46875 88.3125 5.46875 C 88.265625 5.511719 88.222656 5.554688 88.136719 5.597656 L 88.089844 5.644531 C 88.089844 5.644531 88.089844 5.644531 88.089844 5.6875 C 88.089844 5.6875 88.046875 5.6875 88.046875 5.730469 C 87.738281 6.082031 80.667969 14.164062 90.8125 28.480469 C 89.847656 29.578125 88.925781 30.765625 87.960938 32.039062 C 83.433594 38.230469 81.152344 41.304688 79 42.753906 C 78.472656 43.105469 77.945312 43.367188 77.375 43.542969 C 76.144531 42.972656 74.78125 42.578125 73.332031 42.445312 C 69.160156 42.09375 63.496094 44.160156 61.386719 51.140625 C 60.640625 53.644531 60.859375 55.753906 62.089844 57.378906 C 63.449219 59.222656 65.777344 59.96875 67.492188 60.277344 C 70.699219 62.078125 75.484375 63.308594 82.207031 63.394531 C 93.273438 63.613281 97.621094 62.296875 99.070312 61.683594 C 99.246094 61.726562 99.511719 61.8125 99.816406 61.859375 L 99.554688 76.085938 L 99.730469 76.085938 C 87.082031 80.742188 71.3125 90.316406 60.726562 110.035156 C 55.984375 105.292969 50.1875 105.203125 49.921875 105.203125 L 49.878906 105.203125 C 49.789062 105.203125 49.746094 105.203125 49.660156 105.25 C 49.613281 105.25 49.570312 105.25 49.527344 105.25 C 49.4375 105.25 49.351562 105.292969 49.261719 105.335938 C 49.21875 105.335938 49.21875 105.335938 49.175781 105.378906 C 49.089844 105.425781 48.957031 105.46875 48.867188 105.554688 L 48.824219 105.601562 C 48.738281 105.644531 48.691406 105.6875 48.648438 105.777344 C 48.515625 105.953125 45.089844 109.773438 44.257812 116.886719 C 43.683594 121.71875 44.257812 128.832031 48.914062 137.878906 C 39.425781 160.410156 34.199219 168.839844 27.566406 171.871094 C 25.851562 171.214844 23.964844 170.773438 21.988281 170.597656 C 14.390625 169.9375 4.988281 173.539062 1.34375 185.707031 C 0.0703125 189.964844 0.464844 193.523438 2.484375 196.289062 C 4.859375 199.453125 8.898438 200.769531 11.796875 201.253906 C 17.417969 204.414062 25.851562 206.566406 37.800781 206.785156 C 58.003906 207.183594 65.515625 204.722656 67.753906 203.710938 C 68.195312 203.800781 68.808594 203.976562 69.644531 204.195312 L 68.371094 224.308594 L 88.355469 224.308594 L 87.738281 208.058594 C 89.453125 208.367188 91.164062 208.675781 92.921875 208.980469 L 91.339844 224.355469 L 111.195312 224.355469 L 110.578125 211.484375 C 131.925781 213.945312 150.109375 213.769531 164.734375 211.046875 L 164.734375 224.75 L 164.824219 224.75 L 164.78125 224.878906 L 182.699219 224.878906 L 182.65625 224.75 L 182.742188 224.75 L 182.742188 205.558594 C 184.589844 204.679688 186.390625 203.757812 188.015625 202.746094 L 187.136719 224.222656 L 206.503906 224.222656 L 205.496094 177.492188 C 205.890625 175.253906 206.109375 173.058594 206.199219 170.773438 C 206.988281 142.621094 203.957031 121.277344 196.929688 105.601562 C 197.5 104.152344 198.203125 103.097656 199.039062 102.4375 C 200.75 104.503906 204.617188 108.058594 209.667969 106.699219 C 214.675781 105.160156 216.5625 100.8125 216.257812 97.125 Z M 172.816406 22.859375 C 173.652344 22.640625 174.574219 22.769531 175.320312 23.296875 C 176.199219 23.867188 176.859375 24.703125 177.035156 25.40625 C 177.078125 25.625 177.078125 25.84375 176.945312 25.890625 C 176.945312 25.890625 176.902344 25.890625 176.902344 25.933594 C 176.8125 26.019531 176.550781 26.109375 176.199219 26.109375 C 175.539062 26.109375 174.835938 25.757812 174.222656 25.1875 C 173.5625 24.570312 173.167969 23.78125 172.90625 23.210938 C 172.859375 23.078125 172.816406 22.992188 172.816406 22.859375 C 172.773438 22.902344 172.773438 22.859375 172.816406 22.859375 Z M 110.667969 12.976562 C 112.773438 16.09375 112.90625 20.75 111.148438 26.765625 L 109.347656 27.820312 C 109.921875 23.824219 110.578125 15.65625 107.636719 10.167969 C 108.648438 10.78125 109.789062 11.660156 110.667969 12.976562 Z M 104.296875 9.902344 C 107.855469 14.074219 107.460938 22.15625 106.890625 26.636719 C 101.3125 17.808594 103.070312 12.1875 104.296875 9.902344 Z M 95.691406 12.667969 C 97.183594 15.304688 97.316406 18.730469 96.214844 22.859375 C 95.601562 23.34375 95.03125 23.867188 94.414062 24.441406 C 94.855469 20.355469 94.988281 14.207031 92.878906 9.550781 C 93.890625 10.296875 94.941406 11.308594 95.691406 12.667969 Z M 89.144531 8.410156 C 92.703125 12.582031 92.308594 20.664062 91.738281 25.140625 C 86.160156 16.316406 87.914062 10.695312 89.144531 8.410156 Z M 69.773438 57.773438 L 69.644531 57.730469 L 69.511719 57.730469 C 68.414062 57.730469 65.339844 57.335938 64.109375 55.621094 C 63.40625 54.65625 63.320312 53.382812 63.800781 51.710938 C 65.472656 46.179688 69.6875 44.511719 73.070312 44.816406 C 76.320312 45.082031 80.054688 47.320312 80.535156 51.492188 C 80.800781 53.734375 80.359375 55.359375 79.175781 56.457031 C 76.714844 58.652344 71.574219 58.125 69.773438 57.773438 Z M 99.160156 58.914062 L 98.632812 58.738281 L 98.148438 59.046875 C 98.148438 59.046875 97.050781 59.660156 93.800781 60.101562 C 97.316406 57.246094 95.644531 52.195312 95.644531 52.195312 C 93.890625 56.808594 91.296875 59.265625 89.058594 60.539062 C 87.125 60.628906 84.839844 60.671875 82.160156 60.628906 C 80.273438 60.585938 78.558594 60.453125 76.980469 60.277344 C 78.382812 59.925781 79.789062 59.355469 80.886719 58.34375 C 82.6875 56.675781 83.433594 54.261719 83.082031 51.1875 C 82.777344 48.769531 81.632812 46.617188 79.832031 45.039062 C 82.558594 43.457031 84.972656 40.164062 89.980469 33.355469 C 90.902344 32.082031 91.867188 30.894531 92.878906 29.753906 C 92.964844 29.710938 93.054688 29.667969 93.140625 29.621094 L 97.140625 27.292969 C 97.402344 27.164062 97.578125 26.898438 97.667969 26.636719 C 97.972656 25.84375 98.238281 25.054688 98.457031 24.308594 C 99.511719 23.472656 100.566406 22.683594 101.617188 21.9375 C 102.542969 24.570312 104.121094 27.515625 106.582031 30.765625 C 106.847656 31.117188 107.195312 31.289062 107.636719 31.289062 C 107.722656 31.289062 107.8125 31.289062 107.898438 31.246094 C 107.898438 31.246094 107.898438 31.246094 107.945312 31.246094 C 108.03125 31.289062 108.164062 31.289062 108.25 31.289062 C 108.472656 31.289062 108.691406 31.246094 108.910156 31.117188 L 112.90625 28.789062 C 113.171875 28.613281 113.390625 28.347656 113.476562 28.042969 C 114.882812 23.515625 115.277344 19.566406 114.707031 16.316406 C 115.71875 16.09375 116.683594 15.875 117.738281 15.742188 C 125.996094 14.515625 132.1875 16.269531 132.234375 16.269531 L 132.363281 16.316406 L 132.496094 16.316406 C 150.195312 17.765625 159.332031 20.003906 165 24.21875 C 170.359375 28.214844 172.859375 34.234375 174.265625 46.355469 L 173.34375 73.234375 L 167.632812 73.234375 L 167.503906 57.246094 L 165.480469 58.738281 C 164.558594 59.398438 164.296875 59.53125 163.550781 59.792969 C 163.199219 59.925781 162.804688 60.101562 162.230469 60.320312 L 161.484375 60.671875 L 161.265625 70.640625 L 155.996094 70.640625 L 155.730469 62.515625 L 154.238281 62.824219 C 145.804688 64.582031 135.042969 64.667969 122.21875 63.132812 L 120.855469 62.957031 L 120.460938 69.585938 L 115.410156 69.585938 L 115.585938 62.210938 L 114.488281 62.035156 C 112.820312 61.769531 111.148438 61.460938 109.523438 61.15625 L 108.03125 60.847656 L 107.855469 69.585938 L 102.234375 69.585938 L 102.410156 59.660156 L 101.398438 59.441406 C 99.949219 59.136719 99.203125 58.914062 99.160156 58.914062 Z M 165 74.988281 C 164.558594 74.859375 164.164062 74.683594 163.726562 74.550781 L 163.945312 62.429688 C 164.121094 62.339844 164.253906 62.296875 164.429688 62.253906 C 164.605469 62.210938 164.734375 62.121094 164.910156 62.078125 Z M 153.492188 72.046875 C 146.726562 70.90625 139.214844 70.554688 131.003906 70.949219 C 130.34375 70.90625 127.402344 70.730469 122.964844 70.992188 L 123.273438 65.855469 C 135.042969 67.171875 145.101562 67.128906 153.273438 65.632812 Z M 112.90625 64.40625 L 112.730469 72.308594 C 111.941406 72.441406 111.148438 72.617188 110.316406 72.792969 L 110.492188 63.964844 C 111.28125 64.140625 112.117188 64.273438 112.90625 64.40625 Z M 59.191406 113.503906 C 63.496094 118.90625 64.371094 128.347656 61.695312 140.820312 L 58.488281 142.710938 C 59.585938 135.507812 61.035156 119.699219 54.796875 109.902344 C 56.292969 110.652344 57.828125 111.792969 59.191406 113.503906 Z M 47.550781 117.371094 C 47.945312 113.59375 49.21875 110.914062 50.097656 109.375 C 57.566406 117.238281 56.246094 133.972656 55.148438 141.65625 C 49.394531 133.003906 46.761719 124.660156 47.550781 117.371094 Z M 15.617188 198.046875 L 15.445312 198.003906 L 15.269531 198.003906 C 15.179688 198.003906 8.0625 197.914062 5.164062 194.050781 C 3.804688 192.207031 3.585938 189.703125 4.550781 186.539062 C 7.625 176.394531 15.355469 173.363281 21.59375 173.890625 C 27.609375 174.417969 34.503906 178.503906 35.429688 186.234375 C 35.910156 190.359375 35.03125 193.523438 32.835938 195.542969 C 27.390625 200.460938 15.75 198.046875 15.617188 198.046875 Z M 208.832031 103.140625 C 204.484375 104.328125 201.058594 99.101562 201.058594 99.054688 L 200.3125 97.871094 L 198.996094 98.351562 C 196.492188 99.277344 194.648438 101.472656 193.460938 104.851562 L 193.242188 105.511719 L 193.546875 106.125 C 200.574219 121.367188 203.605469 142.402344 202.816406 170.421875 C 202.773438 172.574219 202.550781 174.683594 202.15625 176.789062 L 202.113281 176.964844 L 202.949219 215.304688 L 191 215.304688 L 191.792969 195.632812 L 188.894531 197.738281 C 186.390625 199.539062 183.492188 201.207031 180.328125 202.570312 L 179.316406 203.007812 L 179.316406 215.261719 L 168.207031 215.261719 L 168.207031 206.523438 L 166.140625 206.960938 C 151.121094 210.082031 131.882812 210.300781 108.996094 207.53125 L 106.976562 207.269531 L 107.285156 213.375 L 95.953125 213.375 L 96.742188 205.820312 L 95.117188 205.558594 C 92.132812 205.074219 89.144531 204.546875 86.289062 203.976562 L 84.183594 203.582031 L 84.535156 213.375 L 72.453125 213.375 L 73.203125 201.253906 L 71.796875 200.902344 C 69.335938 200.332031 67.929688 199.933594 67.929688 199.933594 L 67.226562 199.714844 L 66.570312 200.109375 C 66.523438 200.109375 64.8125 201.078125 59.628906 201.910156 C 65.207031 196.730469 61.871094 187.460938 61.871094 187.460938 C 58.398438 196.554688 53.171875 200.859375 48.914062 202.921875 C 45.75 203.054688 42.105469 203.097656 37.800781 203.007812 C 32.878906 202.921875 28.664062 202.484375 24.972656 201.78125 C 28.53125 201.429688 32.351562 200.417969 35.121094 197.914062 C 38.195312 195.105469 39.46875 190.976562 38.855469 185.660156 C 38.238281 180.566406 35.382812 176.21875 31.125 173.410156 C 37.535156 169.28125 42.851562 160.277344 50.933594 141.304688 C 52.03125 143.105469 53.304688 144.992188 54.753906 146.925781 C 54.839844 147.015625 54.929688 147.101562 55.015625 147.191406 C 55.105469 147.277344 55.191406 147.320312 55.324219 147.410156 L 55.367188 147.410156 C 55.367188 147.410156 55.367188 147.410156 55.414062 147.410156 C 55.5 147.453125 55.542969 147.453125 55.632812 147.496094 C 55.675781 147.496094 55.71875 147.542969 55.765625 147.542969 C 55.894531 147.585938 56.027344 147.585938 56.160156 147.585938 C 56.292969 147.585938 56.378906 147.585938 56.46875 147.542969 L 56.554688 147.542969 C 56.597656 147.542969 56.640625 147.496094 56.6875 147.496094 C 56.730469 147.496094 56.773438 147.496094 56.773438 147.453125 C 56.816406 147.453125 56.863281 147.410156 56.90625 147.410156 C 56.949219 147.410156 56.949219 147.367188 56.992188 147.367188 C 56.992188 147.367188 56.992188 147.367188 57.039062 147.367188 L 64.109375 143.195312 C 64.503906 142.929688 64.8125 142.535156 64.898438 142.09375 C 67.796875 129.050781 67.140625 119.125 62.921875 112.625 C 71.445312 95.894531 84.753906 84.386719 102.542969 78.371094 C 106.054688 77.183594 109.480469 76.308594 112.644531 75.691406 L 112.644531 76 L 121.253906 74.460938 C 127.050781 73.933594 130.785156 74.242188 130.871094 74.242188 L 131.136719 74.242188 C 159.949219 72.75 178.660156 80.65625 189.945312 99.101562 L 191.265625 101.207031 L 192.800781 99.277344 C 192.800781 99.277344 194.121094 97.652344 195.699219 96.332031 C 196.972656 95.277344 198.597656 94.578125 198.597656 94.578125 L 199.742188 94.09375 L 199.652344 92.863281 C 199.566406 91.503906 199.476562 87.550781 200.136719 85.574219 C 200.269531 85.132812 200.445312 84.695312 200.621094 84.34375 L 201.628906 92.46875 L 203.167969 92.46875 C 203.253906 92.46875 212.480469 92.511719 212.875 97.253906 C 213.007812 99.496094 212.039062 102.261719 208.832031 103.140625 Z M 78.03125 107.09375 C 77.8125 107.09375 77.59375 107.09375 77.375 107.179688 C 76.714844 106.960938 76.011719 107.136719 75.527344 107.664062 C 75.398438 107.839844 71.972656 111.660156 71.136719 118.773438 C 70.390625 125.144531 71.621094 135.640625 81.765625 149.167969 C 82.117188 149.605469 82.601562 149.867188 83.128906 149.867188 C 83.257812 149.867188 83.390625 149.867188 83.480469 149.824219 C 83.523438 149.824219 83.609375 149.78125 83.65625 149.78125 C 83.832031 149.824219 84.007812 149.867188 84.226562 149.867188 C 84.535156 149.867188 84.839844 149.78125 85.105469 149.648438 L 92.175781 145.476562 C 92.570312 145.257812 92.835938 144.863281 92.964844 144.421875 C 96.4375 131.597656 95.820312 121.71875 91.078125 115 C 86.070312 107.839844 78.339844 107.09375 78.03125 107.09375 Z M 82.117188 143.675781 C 76.320312 134.980469 73.726562 126.636719 74.519531 119.347656 C 74.914062 115.570312 76.1875 112.890625 77.066406 111.351562 C 84.535156 119.257812 83.214844 135.992188 82.117188 143.675781 Z M 89.804688 142.796875 L 85.5 145.34375 L 85.410156 144.90625 C 86.507812 137.703125 88.046875 121.5 81.589844 111.660156 C 83.699219 112.539062 86.289062 114.164062 88.265625 117.019531 C 92.261719 122.726562 92.789062 131.421875 89.804688 142.796875 Z M 23.261719 179.996094 C 21.769531 179.996094 20.582031 183.421875 20.582031 187.59375 C 20.582031 191.808594 21.769531 195.191406 23.261719 195.191406 C 24.753906 195.191406 25.941406 191.765625 25.941406 187.59375 C 25.941406 183.421875 24.753906 179.996094 23.261719 179.996094 Z M 11.621094 179.996094 C 10.128906 179.996094 8.941406 183.421875 8.941406 187.59375 C 8.941406 191.808594 10.128906 195.191406 11.621094 195.191406 C 13.117188 195.191406 14.300781 191.765625 14.300781 187.59375 C 14.300781 183.421875 13.117188 179.996094 11.621094 179.996094 Z M 11.621094 179.996094 " fill-opacity="1" fill-rule="nonzero"/></g></svg>