<svg xmlns="http://www.w3.org/2000/svg" xmlns:xlink="http://www.w3.org/1999/xlink" width="500" zoomAndPan="magnify" viewBox="0 0 375 374.999991" height="500" preserveAspectRatio="xMidYMid meet" version="1.0" fill="currentColor"><path d="M 122.730469 109.964844 L 122.804688 109.964844 Z M 187.386719 7.976562 C 178.007812 12.078125 126.550781 37.933594 126.550781 109.964844 C 126.550781 111.085938 126.050781 112.164062 125.195312 112.886719 C 123.535156 114.300781 84.644531 148.109375 103.789062 202.417969 C 121.886719 253.777344 179.542969 271.003906 187.386719 273.128906 C 195.226562 271.003906 252.886719 253.777344 270.984375 202.417969 C 290.128906 148.109375 251.238281 114.300781 249.574219 112.886719 C 248.722656 112.164062 248.222656 111.085938 248.222656 109.964844 C 248.222656 37.933594 196.765625 12.078125 187.386719 7.976562 Z M 187.386719 280.90625 C 187.09375 280.90625 186.792969 280.863281 186.507812 280.796875 C 183.691406 280.136719 117.332031 263.832031 96.574219 204.953125 C 77.746094 151.53125 111.59375 115.304688 118.917969 108.28125 C 119.804688 26.644531 185.355469 0.511719 186.015625 0.257812 C 186.902344 -0.0820312 187.878906 -0.0820312 188.757812 0.257812 C 189.417969 0.511719 254.96875 26.644531 255.851562 108.28125 C 263.175781 115.304688 297.035156 151.53125 278.199219 204.953125 C 257.441406 263.832031 191.082031 280.136719 188.265625 280.796875 C 187.980469 280.863281 187.679688 280.90625 187.386719 280.90625 " fill-opacity="1" fill-rule="nonzero"/><path d="M 187.386719 375 C 185.269531 375 183.566406 373.292969 183.566406 371.175781 L 183.566406 140.457031 C 183.566406 138.339844 185.269531 136.632812 187.386719 136.632812 C 189.5 136.632812 191.207031 138.339844 191.207031 140.457031 L 191.207031 371.175781 C 191.207031 373.292969 189.5 375 187.386719 375 " fill-opacity="1" fill-rule="nonzero"/><path d="M 187.386719 228.207031 C 186.40625 228.207031 185.429688 227.835938 184.6875 227.09375 L 151.605469 193.96875 C 150.117188 192.472656 150.117188 190.054688 151.605469 188.554688 C 153.101562 187.066406 155.519531 187.066406 157.015625 188.554688 L 190.085938 221.675781 C 191.582031 223.175781 191.582031 225.59375 190.085938 227.09375 C 189.34375 227.835938 188.363281 228.207031 187.386719 228.207031 " fill-opacity="1" fill-rule="nonzero"/><path d="M 187.386719 195.84375 C 186.40625 195.84375 185.429688 195.46875 184.6875 194.722656 C 183.191406 193.226562 183.191406 190.804688 184.6875 189.308594 L 223.03125 150.921875 C 224.519531 149.421875 226.9375 149.421875 228.433594 150.921875 C 229.921875 152.410156 229.921875 154.839844 228.433594 156.328125 L 190.085938 194.722656 C 189.34375 195.46875 188.363281 195.84375 187.386719 195.84375 " fill-opacity="1" fill-rule="nonzero"/><path d="M 262.566406 375 L 112.207031 375 C 110.097656 375 108.386719 373.292969 108.386719 371.175781 C 108.386719 369.058594 110.097656 367.347656 112.207031 367.347656 L 262.566406 367.347656 C 264.679688 367.347656 266.386719 369.058594 266.386719 371.175781 C 266.386719 373.292969 264.679688 375 262.566406 375 " fill-opacity="1" fill-rule="nonzero"/></svg>
