<svg xmlns="http://www.w3.org/2000/svg" xmlns:xlink="http://www.w3.org/1999/xlink" width="500" zoomAndPan="magnify" viewBox="0 0 375 374.999991" height="500" preserveAspectRatio="xMidYMid meet" version="1.0" fill="currentColor"><path d="M 93.605469 112.910156 C 93.605469 112.617188 93.605469 112.03125 93.605469 111.738281 C 93.019531 105.890625 88.046875 101.210938 81.902344 101.210938 L 46.800781 101.210938 C 40.367188 101.210938 35.101562 106.472656 35.101562 112.910156 L 35.101562 148.011719 C 35.101562 154.445312 40.367188 159.710938 46.800781 159.710938 L 81.902344 159.710938 C 88.339844 159.710938 93.605469 154.445312 93.605469 148.011719 Z M 46.800781 148.011719 L 46.800781 112.910156 L 79.5625 112.910156 L 66.984375 125.488281 L 62.304688 121.976562 C 59.671875 119.929688 56.164062 120.515625 54.113281 123.148438 C 52.066406 125.78125 52.652344 129.289062 55.285156 131.335938 L 64.058594 138.066406 C 65.230469 138.941406 66.398438 139.234375 67.570312 139.234375 C 69.03125 139.234375 70.496094 138.652344 71.664062 137.480469 L 82.195312 126.949219 L 82.195312 148.011719 Z M 46.800781 148.011719 " fill-opacity="1" fill-rule="nonzero"/><path d="M 111.15625 124.609375 L 146.253906 124.609375 C 149.472656 124.609375 152.105469 121.976562 152.105469 118.757812 C 152.105469 115.542969 149.472656 112.910156 146.253906 112.910156 L 111.15625 112.910156 C 107.9375 112.910156 105.304688 115.542969 105.304688 118.757812 C 105.304688 121.976562 107.9375 124.609375 111.15625 124.609375 Z M 111.15625 124.609375 " fill-opacity="1" fill-rule="nonzero"/><path d="M 181.355469 142.160156 C 181.355469 138.941406 178.726562 136.308594 175.507812 136.308594 L 111.15625 136.308594 C 107.9375 136.308594 105.304688 138.941406 105.304688 142.160156 C 105.304688 145.378906 107.9375 148.011719 111.15625 148.011719 L 175.507812 148.011719 C 178.726562 148.011719 181.355469 145.378906 181.355469 142.160156 Z M 181.355469 142.160156 " fill-opacity="1" fill-rule="nonzero"/><path d="M 111.15625 194.8125 L 146.253906 194.8125 C 149.472656 194.8125 152.105469 192.179688 152.105469 188.960938 C 152.105469 185.746094 149.472656 183.113281 146.253906 183.113281 L 111.15625 183.113281 C 107.9375 183.113281 105.304688 185.746094 105.304688 188.960938 C 105.304688 192.179688 107.9375 194.8125 111.15625 194.8125 Z M 111.15625 194.8125 " fill-opacity="1" fill-rule="nonzero"/><path d="M 146.253906 253.316406 L 111.15625 253.316406 C 107.9375 253.316406 105.304688 255.949219 105.304688 259.164062 C 105.304688 262.382812 107.9375 265.015625 111.15625 265.015625 L 146.253906 265.015625 C 149.472656 265.015625 152.105469 262.382812 152.105469 259.164062 C 152.105469 255.949219 149.472656 253.316406 146.253906 253.316406 Z M 146.253906 253.316406 " fill-opacity="1" fill-rule="nonzero"/><path d="M 93.605469 183.113281 C 93.605469 182.820312 93.605469 182.234375 93.605469 181.941406 C 93.019531 176.09375 88.046875 171.410156 81.902344 171.410156 L 46.800781 171.410156 C 40.367188 171.410156 35.101562 176.675781 35.101562 183.113281 L 35.101562 218.214844 C 35.101562 224.648438 40.367188 229.914062 46.800781 229.914062 L 81.902344 229.914062 C 88.339844 229.914062 93.605469 224.648438 93.605469 218.214844 Z M 46.800781 218.214844 L 46.800781 183.113281 L 79.5625 183.113281 L 66.984375 195.691406 L 62.304688 192.179688 C 59.671875 190.132812 56.164062 190.71875 54.113281 193.351562 C 52.066406 195.984375 52.652344 199.492188 55.285156 201.539062 L 64.058594 208.269531 C 65.230469 209.144531 66.398438 209.4375 67.570312 209.4375 C 69.03125 209.4375 70.496094 208.851562 71.664062 207.683594 L 82.195312 197.152344 L 82.195312 218.214844 Z M 46.800781 218.214844 " fill-opacity="1" fill-rule="nonzero"/><path d="M 81.902344 241.613281 L 46.800781 241.613281 C 40.367188 241.613281 35.101562 246.878906 35.101562 253.316406 L 35.101562 288.417969 C 35.101562 294.851562 40.367188 300.117188 46.800781 300.117188 L 81.902344 300.117188 C 88.339844 300.117188 93.605469 294.851562 93.605469 288.417969 L 93.605469 253.316406 C 93.605469 253.023438 93.605469 252.4375 93.605469 252.144531 C 93.019531 246.292969 88.046875 241.613281 81.902344 241.613281 Z M 46.800781 288.417969 L 46.800781 253.316406 L 79.5625 253.316406 L 66.984375 265.894531 L 62.304688 262.382812 C 59.671875 260.335938 56.164062 260.921875 54.113281 263.554688 C 52.066406 266.1875 52.652344 269.695312 55.285156 271.742188 L 64.058594 278.472656 C 65.230469 279.347656 66.398438 279.640625 67.570312 279.640625 C 69.03125 279.640625 70.496094 279.054688 71.664062 277.886719 L 82.195312 267.355469 L 82.195312 288.417969 Z M 46.800781 288.417969 " fill-opacity="1" fill-rule="nonzero"/><path d="M 167.609375 214.996094 C 169.363281 211.195312 172.289062 208.269531 175.800781 206.511719 C 175.800781 206.511719 175.507812 206.511719 175.507812 206.511719 L 111.15625 206.511719 C 107.9375 206.511719 105.304688 209.144531 105.304688 212.363281 C 105.304688 215.582031 107.9375 218.214844 111.15625 218.214844 L 166.4375 218.214844 C 166.730469 217.042969 167.316406 215.875 167.609375 214.996094 Z M 167.609375 214.996094 " fill-opacity="1" fill-rule="nonzero"/><path d="M 105.304688 282.566406 C 105.304688 285.785156 107.9375 288.417969 111.15625 288.417969 L 149.765625 288.417969 C 150.351562 284.320312 150.9375 280.519531 151.8125 276.714844 L 111.15625 276.714844 C 107.9375 276.714844 105.304688 279.347656 105.304688 282.566406 Z M 105.304688 282.566406 " fill-opacity="1" fill-rule="nonzero"/><path d="M 374.121094 310.941406 C 367.980469 266.476562 361.25 235.765625 353.9375 219.675781 C 353.355469 218.507812 352.476562 217.335938 351.015625 216.75 L 299.238281 192.765625 L 299.238281 184.867188 C 305.96875 177.261719 310.0625 167.023438 310.0625 155.910156 L 310.0625 135.140625 C 310.941406 130.753906 314.742188 105.890625 299.53125 91.554688 C 288.417969 81.027344 270.574219 79.269531 246.585938 85.707031 C 246.003906 85.414062 245.417969 85.121094 245.125 84.828125 C 234.007812 79.855469 219.382812 85.414062 213.242188 96.820312 C 206.804688 108.8125 213.535156 121.683594 222.601562 128.414062 C 222.601562 129.289062 222.601562 130.167969 222.601562 130.753906 L 222.601562 155.617188 C 222.601562 167.023438 226.695312 176.96875 233.425781 184.574219 L 233.425781 192.472656 L 181.355469 217.042969 C 180.1875 217.628906 179.015625 218.796875 178.433594 219.96875 C 171.121094 235.765625 164.390625 266.476562 158.25 310.941406 C 157.664062 315.914062 159.125 320.886719 162.34375 324.6875 C 165.855469 328.492188 170.535156 330.832031 175.800781 330.832031 L 356.863281 330.832031 C 362.128906 330.832031 366.808594 328.492188 370.320312 324.6875 C 373.539062 320.886719 375 315.914062 374.121094 310.941406 Z M 229.621094 119.34375 C 225.527344 116.417969 219.96875 109.691406 223.480469 102.671875 C 225.820312 97.992188 231.375 95.066406 236.058594 95.066406 C 237.519531 95.066406 238.980469 95.359375 240.152344 95.945312 C 240.445312 95.945312 240.445312 96.238281 240.738281 96.238281 C 242.199219 97.113281 244.832031 98.578125 248.34375 97.699219 C 268.816406 91.847656 283.445312 92.726562 291.632812 100.332031 C 295.4375 103.839844 297.484375 108.8125 298.65625 113.496094 C 289.585938 103.839844 278.761719 109.105469 259.75 118.175781 C 257.410156 119.34375 255.070312 120.515625 252.144531 121.683594 C 244.832031 125.195312 236.058594 124.316406 229.621094 119.34375 Z M 245.417969 194.519531 C 251.265625 197.445312 257.703125 199.199219 264.722656 199.199219 L 267.648438 199.199219 C 274.667969 199.199219 281.105469 197.445312 286.953125 194.519531 C 286.660156 195.105469 286.660156 195.691406 286.660156 196.273438 L 286.660156 217.628906 L 266.1875 241.03125 L 245.710938 217.628906 L 245.710938 196.273438 C 245.710938 195.691406 245.710938 195.105469 245.417969 194.519531 Z M 267.648438 187.5 L 264.722656 187.5 C 247.464844 187.5 234.007812 173.75 234.007812 156.203125 L 234.007812 134.554688 C 241.613281 136.601562 249.804688 136.019531 256.824219 132.800781 C 259.457031 131.628906 262.089844 130.460938 264.429688 129.289062 C 282.273438 120.808594 286.953125 119.050781 289.878906 122.269531 C 294.851562 127.535156 297.484375 134.261719 298.070312 136.308594 L 298.070312 156.492188 C 298.363281 173.75 284.90625 187.5 267.648438 187.5 Z M 260.335938 319.128906 L 175.800781 319.128906 C 174.042969 319.128906 172.289062 318.253906 171.121094 317.082031 C 169.949219 315.914062 169.65625 314.15625 169.65625 312.695312 C 175.507812 271.742188 181.648438 242.199219 188.085938 226.695312 L 234.007812 205.34375 L 234.007812 222.601562 C 234.007812 222.894531 234.007812 223.1875 234.007812 223.480469 C 234.300781 225.527344 241.613281 270.28125 260.335938 300.117188 Z M 249.511719 239.566406 L 261.796875 253.609375 C 262.96875 254.777344 264.429688 255.65625 266.1875 255.65625 C 267.941406 255.65625 269.402344 255.070312 270.574219 253.609375 L 282.859375 239.566406 C 279.640625 253.023438 274.082031 271.449219 266.1875 286.660156 C 257.996094 271.160156 252.730469 252.730469 249.511719 239.566406 Z M 361.25 317.082031 C 360.082031 318.546875 358.328125 319.128906 356.570312 319.128906 L 272.035156 319.128906 L 272.035156 300.117188 C 290.757812 270.574219 298.070312 225.527344 298.363281 223.480469 C 298.363281 223.1875 298.363281 222.894531 298.363281 222.601562 L 298.363281 205.34375 L 344.285156 226.402344 C 350.722656 241.613281 357.15625 271.449219 362.714844 312.402344 C 363.007812 314.15625 362.421875 315.914062 361.25 317.082031 Z M 361.25 317.082031 " fill-opacity="1" fill-rule="nonzero"/><path d="M 234.007812 352.769531 C 234.007812 358.328125 230.5 363.007812 226.402344 363.007812 L 19.304688 363.007812 C 15.210938 363.007812 11.699219 358.328125 11.699219 352.769531 L 11.699219 48.558594 C 11.699219 43 15.210938 38.320312 19.304688 38.320312 L 58.503906 38.320312 L 58.503906 47.09375 C 58.503906 56.746094 66.398438 64.644531 76.054688 64.644531 L 169.65625 64.644531 C 179.308594 64.644531 187.207031 56.746094 187.207031 47.09375 L 187.207031 38.320312 L 226.402344 38.320312 C 230.5 38.320312 234.007812 43 234.007812 48.558594 L 234.007812 71.664062 C 234.59375 71.664062 235.472656 71.664062 236.058594 71.664062 C 239.273438 71.664062 242.492188 72.25 245.710938 73.128906 L 245.710938 48.558594 C 245.710938 36.5625 237.226562 26.617188 226.402344 26.617188 L 187.207031 26.617188 L 187.207031 17.84375 C 187.207031 8.191406 179.308594 0.292969 169.65625 0.292969 L 76.054688 0.292969 C 66.398438 0.292969 58.503906 8.191406 58.503906 17.84375 L 58.503906 26.617188 L 19.304688 26.617188 C 8.484375 26.617188 0 36.5625 0 48.558594 L 0 352.769531 C 0 364.761719 8.484375 374.707031 19.304688 374.707031 L 226.695312 374.707031 C 237.226562 374.707031 246.003906 364.761719 246.003906 352.769531 L 246.003906 342.53125 L 234.300781 342.53125 L 234.300781 352.769531 Z M 70.203125 17.84375 C 70.203125 14.625 72.835938 11.992188 76.054688 11.992188 L 169.65625 11.992188 C 172.875 11.992188 175.507812 14.625 175.507812 17.84375 L 175.507812 47.09375 C 175.507812 50.3125 172.875 52.945312 169.65625 52.945312 L 76.054688 52.945312 C 72.835938 52.945312 70.203125 50.3125 70.203125 47.09375 Z M 70.203125 17.84375 " fill-opacity="1" fill-rule="nonzero"/></svg>
