<?xml version="1.0" encoding="UTF-8" standalone="no"?>
<svg
   id="Layer_1"
   data-name="Layer 1"
   viewBox="0 0 1200 1200"
   version="1.1"
   xmlns="http://www.w3.org/2000/svg"
   xmlnsSvg="http://www.w3.org/2000/svg"
   xmlnsRdf="http://www.w3.org/1999/02/22-rdf-syntax-ns#"
   xmlnsCc="http://creativecommons.org/ns#"
   xmlnsDc="http://purl.org/dc/elements/1.1/">
  <defs
     id="defs43">
    <style
       id="style41">.cls-1{fill:#f6c357;}.cls-2{fill:#f2b040;}.cls-3{fill:#add9d3;}.cls-4{fill:#77bfb6;}.cls-5{fill:#fff;}.cls-6{fill:#efe0cc;}.cls-7{fill:#ddcdba;}.cls-8{fill:#c6b39d;}.cls-9{fill:#af9880;}.cls-10{fill:#231c51;}.cls-11{fill:#2f2f2f;}</style>
  </defs>
  <path
     class="cls-1"
     d="m 241.9447,832.34 4.2,17.59 0.57,2.4 4,16.87 0.56,2.35 7.09,29.69 0.79,3.32 3.19,13.38 4.4,0.83 3.29,0.62 57,10.72 v 0 l 2.82,0.53 36.7,6.9 3.75,0.71 v 0 l 18.48,3.48 -93.39,25.83 26.26,33.07 36.46,-7.89 3,-0.65 v 0 l 23.94,-5.18 3.44,-0.75 61.4,-13.29 2.42,-0.53 7.72,-1.66 2.44,-0.53 15.42,-3.34 2.5,-0.54 47.55,-10.27 9.84,2.46 2.94,0.74 22.1,5.53 2.48,0.62 22.94,5.74 2.61,0.66 54.31,13.6 3,0.76 22.66,5.67 2.35,0.59 35.81,9 2.45,0.61 22.14,5.54 2.82,0.71 v 0 l 140.72,35.24 -5.79,-24.64 -1.2,-5.08 -11.09,-47.65 -0.6,-2.55 -4.16,-17.73 -0.58,-2.46 -5.54,-23.6 -0.56,-2.39 -7.24,-30.8 -12.21,-1.1 -3.34,-0.31 -54.44,-4.93 h -0.21 l -6.84,-0.62 -52.31,-4.74 -8.59,-0.78 -19.14,-1.73 -43.4,-3.93 -7.92,-0.72 -38.25,-3.47 -2.72,-0.24 -35.78,-3.24 -2.5,-0.23 -46.06,-4.17 -1.56,-0.14 -4.73,-0.43 -11.85,-1.07 -2.63,-0.24 -15.69,-1.48 -18.92,-1.71 -2.4,-0.22 -23,-2.09 -15.59,-8.67 -2.86,-1.6 v 0 l -32.12,-17.87 -2.56,-1.43 -16.07,-8.94 -3.9,-2.17 -12.64,-7 -3.19,-1.77 -31.7,-17.64 -15.56,11.67 5.9,6.44 1.83,2 23.33,25.46 1.68,1.83 10.34,11.27 -19.36,-1.76 -4.33,-0.39 -14.51,-1.31 -2.49,-0.22 -19.94,-1.81 -2.67,-0.24 z"
     id="path47" />
  <path
     class="cls-2"
     d="m 485.8147,854.44 a 73.6,73.6 0 0 0 7.53,17.08 c 5.51,8.81 13.53,14.53 22.9,18.74 8.55,3.84 17.9,8.24 27.43,9.23 a 35,35 0 0 0 4.22,0.21 c 21.47,-0.2 35.19,-19.16 45.75,-35.5 l -2.72,-0.24 c -5.69,8.82 -11.69,17.67 -20,24.25 -8.09,6.43 -18.15,10.27 -28.57,8.65 -0.75,-0.12 -1.5,-0.25 -2.25,-0.41 a 80.07,80.07 0 0 1 -12.88,-4.21 c -4.8,-1.92 -9.63,-3.83 -14.22,-6.2 a 44.83,44.83 0 0 1 -20,-20 78.33,78.33 0 0 1 -4.61,-11.37 z"
     id="path49" />
  <path
     class="cls-2"
     d="m 500.3047,855.75 a 48,48 0 0 1 6,4.75 59.11,59.11 0 0 1 6.59,7.21 c 4.3,5.53 7.48,14.17 15.15,15.63 7.15,1.36 14.15,-3.17 18.74,-8.24 a 40.55,40.55 0 0 0 8.37,-14.39 l -2.5,-0.23 a 37.64,37.64 0 0 1 -8.13,13.52 c -4.6,4.88 -12.89,9.91 -19.44,5.6 -3.17,-2.08 -4.94,-5.71 -7,-8.76 a 74.76,74.76 0 0 0 -6.39,-8.29 55.68,55.68 0 0 0 -5.18,-5.09 c -0.49,-0.43 -1,-0.84 -1.48,-1.24 z"
     id="path51" />
  <path
     class="cls-2"
     d="m 582.0347,908.78 a 61.45,61.45 0 0 1 22.28,-10.31 c 8.69,-2.18 17.62,-2.2 26.51,-2.32 8.89,-0.12 18.23,-1 27.1,0.23 a 25.31,25.31 0 0 1 11.36,4.37 15.16,15.16 0 0 1 6.14,9.1 c 1.45,6.74 -3.75,14.09 -11,12.89 a 17.08,17.08 0 0 0 -5.87,1.61 16.15,16.15 0 0 0 -4.75,3.44 c -2.28,2.4 -3.27,5.07 -6.91,5.47 -8.39,0.92 -17,-1.88 -24.5,-5.3 -4,-1.83 -8,-3.93 -12.27,-5.1 a 20.2,20.2 0 0 0 -13.21,0.87 c -5.72,2.21 -13.08,5.46 -18.53,0.69 -5.62,-4.93 -0.98,-12.08 3.65,-15.64 z m 2.87,15.63 c 6.67,0.52 12.36,-4.58 19,-4.8 6.9,-0.23 13.22,3.28 19.3,6.07 a 62.91,62.91 0 0 0 12,4.24 40.28,40.28 0 0 0 6.55,1 c 1.9,0.11 4.78,0.47 6.5,-0.48 1.5,-0.83 2.36,-2.82 3.5,-4.07 a 18.91,18.91 0 0 1 3.59,-3 18.28,18.28 0 0 1 4.47,-2.12 20.82,20.82 0 0 1 4.72,-0.91 1.09,1.09 0 0 1 0.63,0.13 c 3.45,0.42 6.61,-2.19 7.65,-5.4 1.04,-3.21 -0.11,-6.7 -2,-9.32 a 14.72,14.72 0 0 0 -2.58,-2.75 c -4.76,-3.87 -11.48,-4.55 -17.53,-4.61 -7.72,-0.06 -15.45,0.17 -23.17,0.27 -7.87,0.1 -15.72,0.36 -23.38,2.39 a 62.62,62.62 0 0 0 -19.53,8.87 c -2.83,2 -6.51,5.15 -6.41,9 0.09,3.52 3.54,5.25 6.7,5.49 z"
     id="path53" />
  <path
     class="cls-2"
     d="m 460.0347,970.68 2.44,-0.53 a 107.75,107.75 0 0 1 2.59,-20.7 103.52,103.52 0 0 1 12.42,-31.33 c 6.79,-11.06 20.06,-2.86 26.92,3.52 3.6,3.35 6.92,7 10.48,10.37 3.56,3.37 7,6.46 10.45,9.81 5,4.9 9.71,10.27 12.47,16.62 l 2.94,0.74 c -3.2,-8.64 -9.92,-15.59 -16.61,-21.87 -3.91,-3.67 -7.89,-7.26 -11.65,-11.08 -3.76,-3.82 -7.39,-7.63 -11.67,-10.76 -3.93,-2.86 -8.48,-5 -13.4,-5.15 -5.51,-0.16 -9.45,2.26 -12.22,6.9 a 109.55,109.55 0 0 0 -15.16,53.46 z"
     id="path55" />
  <path
     class="cls-2"
     d="m 477.8747,966.82 2.5,-0.54 a 67.9,67.9 0 0 1 5.88,-20.6 c 0.75,-1.53 1.56,-3.14 3.34,-3.62 a 11.79,11.79 0 0 1 4.93,0.08 19.52,19.52 0 0 1 15.51,16.25 c 0.22,1.55 2.56,0.89 2.34,-0.65 a 21.66,21.66 0 0 0 -9.45,-14.7 c -4,-2.72 -12,-5.74 -16.32,-2.17 -2.32,1.91 -3.45,5.51 -4.49,8.22 a 69.85,69.85 0 0 0 -3.25,11.59 c -0.38,2.04 -0.71,4.09 -0.99,6.14 z"
     id="path57" />
  <path
     class="cls-2"
     d="m 391.8047,892.08 a 7.42,7.42 0 0 1 3.79,-5.43 c 5.32,-3.26 12.57,-2.34 18.4,-1.43 7.94,1.24 15.65,3.75 23.65,4.64 3.92,0.44 7.76,0.11 11.68,0.14 3.08,0 6.38,0.41 8.87,2.4 5.75,4.6 3,12.7 0.5,18.27 a 1.38,1.38 0 0 1 -0.15,0.25 c -2.1,4.95 -7.14,8 -12.36,9 a 48.72,48.72 0 0 1 -11.72,0.28 c -2,-0.11 -4,-0.29 -5.94,-0.22 -2.53,0.09 -3.69,1.22 -4.84,3.32 a 13.31,13.31 0 0 1 -13.25,7.07 c -5.77,-0.55 -10.33,-4.61 -12.55,-9.82 a 20.34,20.34 0 0 1 -1.57,-9 c 0.2,-4.13 1.05,-7.88 -1.32,-11.6 -1.52,-2.48 -3.49,-4.84 -3.19,-7.87 z m 5.5,6.87 c 3.35,5.44 0.56,11.38 1.77,17.24 1.1,5.35 4.83,10.49 10.45,11.56 a 12,12 0 0 0 7.62,-1 c 2.47,-1.26 3.57,-3.28 4.94,-5.55 3.47,-5.77 11.42,-3.32 17,-3.22 6.79,0.12 15.51,-1.57 17.64,-9.15 a 1.18,1.18 0 0 1 0.42,-0.63 c 2.1,-5.07 4,-12.5 -2.42,-15 -2.38,-0.91 -5,-0.81 -7.55,-0.73 a 67.84,67.84 0 0 1 -9.11,-0.13 c -6.24,-0.63 -12.31,-2.25 -18.42,-3.57 -6.11,-1.32 -12.95,-2.83 -19.1,-1.46 -2.28,0.51 -5.21,1.63 -6.11,4 -1.06,2.85 1.49,5.4 2.87,7.63 z"
     id="path59" />
  <path
     class="cls-2"
     d="m 336.9047,799.53 q 1.38,4 2.88,8 c 3,7.91 5.81,16.41 12.72,21.78 6.39,5 14.7,7.4 22.44,9.27 a 106.53,106.53 0 0 0 27.68,3 26.55,26.55 0 0 0 7.63,-1.25 l -2.86,-1.6 v 0 c -3.87,0.77 -8.05,0.51 -11.91,0.33 a 106.22,106.22 0 0 1 -25.58,-4.38 c -7.32,-2.2 -15.14,-5.1 -20,-11.34 -2.52,-3.26 -4.11,-7.12 -5.63,-10.92 -1.52,-3.8 -2.87,-7.38 -4.19,-11.12 z"
     id="path61" />
  <path
     class="cls-2"
     d="m 352.7247,808.32 c 2.18,4.05 4.14,8.26 7.81,11.17 a 13.56,13.56 0 0 0 14.73,1.37 l -2.56,-1.43 a 10.76,10.76 0 0 1 -3.65,0.62 c -4.19,0 -7.57,-2.34 -10,-5.62 a 38.82,38.82 0 0 1 -2.47,-3.94 z"
     id="path63" />
  <path
     class="cls-2"
     d="m 309.0347,838.42 q 2.82,2.39 5.76,4.61 c 21.43,16.25 47.75,28.4 74.55,31.82 13.73,1.76 28.32,1.11 41.44,-3.62 9.2,-3.32 18.37,-10.27 20.46,-19.91 l -2.4,-0.22 c -2.61,12 -17.07,18.12 -28.38,20.45 -26.44,5.46 -54,-2.27 -77.64,-14.08 a 166.57,166.57 0 0 1 -29.47,-18.64 z"
     id="path65" />
  <path
     class="cls-2"
     d="m 295.5747,800 a 25.16,25.16 0 0 1 16.66,0.36 c 5.24,2 10.63,5.87 12.35,11.44 1.59,5.12 1.33,11.92 -1.55,16.56 -0.2,0.32 -0.4,0.62 -0.62,0.9 l -1.68,-1.83 a 9.22,9.22 0 0 0 0.54,-0.88 19.06,19.06 0 0 0 0.61,-15.08 c -2,-4.73 -7.27,-7.94 -12,-9.34 a 22.8,22.8 0 0 0 -12.46,-0.14 z"
     id="path67" />
  <path
     class="cls-2"
     d="m 358.1747,992.73 3,-0.65 v 0 c 0.3,-0.57 0.61,-1.13 0.94,-1.69 8.8,-15.13 24.41,-24.91 41.44,-28.05 a 68.2,68.2 0 0 1 27.9,0.68 c 5.64,1.32 15.5,3.85 18.5,9.85 l 2.42,-0.53 c -3.1,-7.05 -13.56,-10.09 -20.28,-11.67 -18.93,-4.46 -40.16,-1 -55.92,10.67 a 59,59 0 0 0 -18,21.39 z"
     id="path69" />
  <path
     class="cls-2"
     d="m 385.1247,986.9 3.44,-0.75 1.78,-2.62 c 2.74,-4 5.15,-8.39 9.91,-10.28 a 39.88,39.88 0 0 1 15,-3.09 c 5.2,0.13 10.17,2 15,3.72 1.48,0.53 2.11,-1.81 0.65,-2.34 -5.32,-1.93 -10.81,-3.88 -16.55,-3.81 a 42.57,42.57 0 0 0 -15.45,3.49 c -4.46,1.89 -6.92,5.63 -9.54,9.49 z"
     id="path71" />
  <path
     class="cls-2"
     d="m 258.3947,901.24 0.79,3.32 q 0.8,-1.34 1.66,-2.63 a 34.75,34.75 0 0 1 13.78,-12.53 c 6.31,-3 13.45,-3.86 20.37,-3.65 15.66,0.47 30.46,6.69 46.07,7.72 7.65,0.5 15.75,-0.2 22.9,3.05 a 27.32,27.32 0 0 1 13.17,13.11 c 3.1,6.53 3.72,15 -1.08,20.85 a 28.19,28.19 0 0 1 -9.44,7 l 3.75,0.71 v 0 a 25.93,25.93 0 0 0 8.41,-7.33 c 4.42,-6.29 3.85,-14.76 0.89,-21.54 a 29.69,29.69 0 0 0 -12.91,-14.15 c -7,-3.77 -14.88,-3.73 -22.59,-4 -17.09,-0.64 -33.22,-7.69 -50.34,-7.9 -7.11,-0.08 -14.34,1 -20.76,4.17 a 36.89,36.89 0 0 0 -13.94,12.68 c -0.26,0.39 -0.5,0.76 -0.73,1.12 z"
     id="path73" />
  <path
     class="cls-2"
     d="m 266.7747,918.77 3.29,0.62 c 8.69,-6.44 18.46,-11 29.77,-10.61 a 110.59,110.59 0 0 1 14.08,1.61 c 4,0.67 8.17,1.6 11.7,3.76 4.06,2.49 7.38,6.9 5.05,11.74 a 11.6,11.6 0 0 1 -3.58,4.22 l 2.82,0.53 c 3.33,-3 5.35,-7 3.22,-11.86 -2.82,-6.45 -10.31,-9.16 -16.71,-10.4 -8,-1.55 -16.62,-2.84 -24.73,-1.58 -9.33,1.45 -17.53,6.14 -24.91,11.97 z"
     id="path75" />
  <path
     class="cls-2"
     d="m 250.7447,869.2 0.56,2.35 a 21.86,21.86 0 0 0 7.38,-3 c 3.25,-2.11 5.59,-4.76 9.8,-4.55 3.24,0.17 6.23,0.93 9.49,0.44 a 21.07,21.07 0 0 0 7.89,-2.92 19.38,19.38 0 0 0 9.17,-13.46 32.06,32.06 0 0 0 -0.46,-11 l -2.49,-0.22 c 1.26,5.6 1.42,11.51 -1.31,16.3 a 18.47,18.47 0 0 1 -18,8.92 c -3.88,-0.44 -7.32,-1.05 -10.82,1.14 -3.14,2 -5.66,4.35 -9.3,5.47 -0.62,0.23 -1.28,0.39 -1.91,0.53 z"
     id="path77" />
  <path
     class="cls-2"
     d="m 246.1447,849.93 0.57,2.4 a 37.55,37.55 0 0 0 25.4,-17.26 l -2.67,-0.24 a 34.77,34.77 0 0 1 -23.3,15.1 z"
     id="path79" />
  <path
     class="cls-2"
     d="m 709.0347,1001.33 2.45,0.61 c 4.07,-6.27 8.36,-12.41 12.89,-18.35 4.23,-5.54 9,-10.22 15.37,-13.19 5.92,-2.75 12.4,-4.3 18.67,-6.07 13.68,-3.85 27.62,-7.41 41.91,-7.75 20,-0.47 39.1,6.51 58.67,9.52 l -0.6,-2.55 c -8.5,-1.35 -16.91,-3.43 -25.32,-5.29 -13.44,-3 -26.87,-5 -40.66,-3.61 -14.21,1.43 -28,5.38 -41.68,9.34 -6.13,1.77 -12.37,3.74 -17.68,7.39 -5.31,3.65 -9.12,8.69 -12.86,13.76 q -5.81,7.93 -11.16,16.19 z"
     id="path81" />
  <path
     class="cls-2"
     d="m 733.6247,1007.48 2.82,0.71 v 0 c 1.3,-1.11 2.62,-2.12 3.82,-3 a 66.19,66.19 0 0 1 17.69,-10 37.14,37.14 0 0 1 18.44,-1.85 c 6.41,1.11 11,4.59 16.28,8 9.8,6.37 21.18,5.17 32.2,3.63 11.43,-1.59 22.69,-2.8 33.3,2.71 a 40,40 0 0 1 13.19,11 l -1.2,-5.08 a 41.84,41.84 0 0 0 -13.28,-9.25 c -11.57,-5.06 -23.5,-2.93 -35.58,-1.36 -6.35,0.82 -13,1.46 -19.27,-0.15 -6.85,-1.75 -11.56,-6.93 -17.85,-9.75 -11.69,-5.23 -25,-2.28 -35.8,3.72 a 73.43,73.43 0 0 0 -14.76,10.67 z"
     id="path83" />
  <path
     class="cls-2"
     d="m 562.8147,964.71 2.48,0.62 a 92.63,92.63 0 0 1 6.2,-7 c 8.36,-8.49 18.82,-15.36 30.62,-17.78 13.74,-2.82 27.39,1.7 39.85,7.21 10.83,4.79 24.91,9.74 29.44,21.8 2.69,7.15 2,15 -0.53,22.19 l 2.35,0.59 c 2.94,-8.62 3.45,-18.1 -0.73,-26.3 -2.86,-5.59 -7.81,-9.59 -13.17,-12.63 a 183.51,183.51 0 0 0 -19,-9 c -12.77,-5.41 -26.54,-9.2 -40.37,-5.89 -15.74,3.78 -27.53,13.92 -37.14,26.19 z"
     id="path85" />
  <path
     class="cls-2"
     d="m 588.2347,971.08 2.61,0.66 a 37.26,37.26 0 0 1 11.31,-9.29 c 6.75,-3.36 13.87,-2.9 20.42,0.66 6.27,3.41 11.36,8.64 16.12,13.86 a 46.28,46.28 0 0 1 6.45,8.37 l 3,0.76 a 37.47,37.47 0 0 0 -6.38,-9.3 c -5.41,-6.14 -11.37,-12.39 -18.73,-16.17 a 23.7,23.7 0 0 0 -21.43,-0.63 c -5.32,2.49 -9.57,6.58 -13.37,11.08 z"
     id="path87" />
  <path
     class="cls-2"
     d="m 755.5447,943.17 c 4.81,4.4 12.73,3 18.39,1.44 3.55,-1 7,-2.25 10.61,-3.1 a 33.63,33.63 0 0 1 12.26,-0.56 c 8.78,1.11 17.49,2.88 26.26,4.09 q 6,0.83 12.08,1.62 c 4,0.52 8,1.19 12.08,0.83 a 25.42,25.42 0 0 0 7,-1.66 l -0.58,-2.46 a 26.63,26.63 0 0 1 -12.17,1.63 c -8.6,-0.74 -17.21,-2.17 -25.75,-3.44 -7.48,-1.11 -15.06,-3 -22.62,-3.36 -6.66,-0.28 -12.75,2 -19,3.85 a 30.6,30.6 0 0 1 -10.64,1.55 c -3.3,-0.25 -8.61,-1.89 -7.46,-6.28 1,-3.65 5.2,-6 8.28,-7.64 a 43.78,43.78 0 0 1 8.7,-3.45 c 14.51,-4.11 29.7,-1.52 44.38,0 a 43.34,43.34 0 0 0 10.68,0.2 28.85,28.85 0 0 0 8.75,-3.1 c 3.62,-1.8 7,-3.24 11,-3.57 h 0.32 l -0.56,-2.39 a 26.08,26.08 0 0 0 -4.46,0.68 c -3.87,1 -7.2,3.28 -10.88,4.75 -4.5,1.81 -9.24,1.6 -14,1.11 -4.76,-0.49 -9.31,-1.07 -14,-1.53 -14.82,-1.48 -31,-1.57 -44,6.82 -4.42,2.86 -10.01,9.09 -4.67,13.97 z"
     id="path89" />
  <path
     class="cls-2"
     d="m 631.9147,867.67 c 5.24,2.32 10.56,4.49 15.77,6.78 l 28.35,12.4 2.84,1.25 c 9.64,4.22 19,8.06 29.73,7.84 5.36,-0.11 10.84,-0.78 16.13,0.41 a 25.1,25.1 0 0 1 4.71,1.59 47.17,47.17 0 0 1 7.31,4.26 c 6.94,4.75 13.49,10.2 22.14,11.17 9,1 18.79,-1.4 27.36,-4 a 111.84,111.84 0 0 0 41.85,-23.85 l -3.34,-0.31 a 110.14,110.14 0 0 1 -22.27,15 107.07,107.07 0 0 1 -23.7,8.7 c -9.19,2.18 -19.36,4 -28.17,-0.43 -7.31,-3.66 -13.16,-9.69 -20.72,-12.91 l -0.5,-0.2 c -8.8,-3.51 -18.08,-1 -27.24,-2 -8.75,-1 -17.07,-4.84 -25.13,-8.54 -1.78,-0.82 -3.55,-1.63 -5.31,-2.4 l -29.42,-12.87 -2.5,-1.07 z"
     id="path91" />
  <path
     class="cls-3"
     d="m 284.7447,987 1,-0.39 c -0.14,-12.51 -12.7,-18.66 -23.88,-21.78 a 85.4,85.4 0 0 0 -29.08,-2.51 60.78,60.78 0 0 0 -14.29,3 c -2.87,1 -4.75,1.59 -4.27,2.13 l 0.71,0.36 c 14.45,10.61 17.61,18 21.69,22 3.6,4.14 8.11,5 14.35,4.63 12.97,-1.7 29.94,-5.17 33.77,-7.44 z"
     id="path93" />
  <path
     class="cls-4"
     d="m 284.7447,987 1,-0.39 c -0.14,-12.51 -12.7,-18.66 -23.88,-21.78 a 85.4,85.4 0 0 0 -29.08,-2.51 60.78,60.78 0 0 0 -14.29,3 c -2.87,1 -4.75,1.59 -4.27,2.13 l 0.71,0.36 c 9,0.22 22.79,0.17 37.22,3.12 14.08,2.71 28.88,8.48 32.59,16.07 z"
     id="path95" />
  <path
     class="cls-3"
     d="m 298.5847,992.49 c -0.51,0.22 -1,0.44 -1.5,0.68 a 113.26,113.26 0 0 0 -27.79,20.5 c -5.7,6 -7.94,10.24 -8.53,14.53 -0.59,4.29 0.45,8.61 1.23,14.19 0.82,5.34 1.37,11.91 0.94,15 -0.13,2.53 -0.36,4.1 -0.35,4.1 8.49,-2.28 15.89,-7.59 22.44,-15.17 a 81.8,81.8 0 0 0 15,-25.94 c 3,-8.76 3.36,-16.5 1.64,-21 -1.47,-4.71 -4.98,-6.19 -3.08,-6.89 z"
     id="path97" />
  <path
     class="cls-4"
     d="m 298.5847,992.49 c -0.51,0.22 -1,0.44 -1.5,0.68 -0.62,6.42 -3.42,17.86 -9.45,30.1 -6.03,12.24 -15,25.22 -24.71,34.13 -0.13,2.53 -0.36,4.1 -0.35,4.1 8.49,-2.28 15.89,-7.59 22.44,-15.17 a 81.8,81.8 0 0 0 15,-25.94 c 3,-8.76 3.36,-16.5 1.64,-21 -1.46,-4.72 -4.97,-6.2 -3.07,-6.9 z"
     id="path99" />
  <path
     class="cls-5"
     d="m 275.0347,1021.64 c 2.33,-4.72 2.83,-8.38 1.17,-8.2 -1.66,0.18 -5.81,3.78 -8,7.86 -2.19,4.08 -1.64,7.89 -0.16,8.29 1.48,0.4 4.66,-3.23 6.99,-7.95 z"
     id="path101" />
  <path
     class="cls-3"
     d="m 346.9447,789.65 c 0.22,-0.44 0.44,-0.87 0.65,-1.31 a 100.75,100.75 0 0 0 7.5,-29.79 c 0.51,-7.36 -0.34,-11.52 -2.36,-14.8 -2.02,-3.28 -5.18,-5.66 -8.87,-9.05 -3.58,-3.2 -7.68,-7.4 -9.13,-9.78 -1.34,-1.81 -2.08,-3 -2.08,-3 -4.54,6.37 -6.62,14.2 -6.83,23.11 a 72.76,72.76 0 0 0 4.39,26.28 c 2.88,7.72 7,13.24 10.76,15.36 3.64,2.39 6.88,1.42 5.97,2.98 z"
     id="path103" />
  <path
     class="cls-4"
     d="m 346.9447,789.65 c 0.22,-0.44 0.44,-0.87 0.65,-1.31 -3.21,-4.76 -7.75,-14.2 -10.54,-26 -2.79,-11.8 -4,-25.78 -2.33,-37.41 -1.34,-1.81 -2.08,-3 -2.08,-3 -4.54,6.37 -6.62,14.2 -6.83,23.11 a 72.76,72.76 0 0 0 4.39,26.28 c 2.88,7.72 7,13.24 10.76,15.36 3.65,2.38 6.89,1.41 5.98,2.97 z"
     id="path105" />
  <path
     class="cls-5"
     d="m 346.6347,756.31 c 1.07,4.56 2.79,7.36 3.84,6.29 1.05,-1.07 1.85,-5.88 1,-9.9 -0.85,-4.02 -3.33,-6.34 -4.58,-5.79 -1.25,0.55 -1.33,4.84 -0.26,9.4 z"
     id="path107" />
  <path
     class="cls-6"
     d="m 320.3347,318.23 c -4,4.73 -40,133.52 -43.15,172.9 -3.15,39.38 123.28,172.87 123.28,172.87 z"
     id="path109" />
  <path
     class="cls-7"
     d="m 713.9247,618.08 c 0,0 250.6,164.39 241.73,174.85 -8.87,10.46 -73.57,-36.11 -73.57,-36.11 0,0 83.78,77.52 67.75,86.06 -16.03,8.54 -96.27,-54.18 -96.27,-54.18 0,0 43.58,58.1 25.24,55.3 -18.34,-2.8 -212.92,-207.39 -212.92,-207.39 z"
     id="path111" />
  <ellipse
     class="cls-8"
     cx="-1108.791"
     cy="9.8300686"
     rx="40.049999"
     ry="2.8199999"
     transform="matrix(-0.7617645,-0.64785403,-0.64785403,0.7617645,0,0)"
     id="ellipse113" />
  <ellipse
     class="cls-8"
     cx="-1118.252"
     cy="-67.403435"
     rx="31.02"
     ry="2.8199999"
     transform="matrix(-0.69453281,-0.71946103,-0.71946103,0.69453281,0,0)"
     id="ellipse115" />
  <path
     class="cls-6"
     d="m 437.7647,850.22 -6.25,-43.07 c -3.84,4.49 -14.87,-46.38 -14.87,-46.38 0,0 -131.39,-125 -102.91,-401.9 7.85,-76.36 12.47,-119.47 12.47,-119.47 a 15.75,15.75 0 0 1 -12.93,1.49 c -5.09,-1.69 12.49,-64.36 74.53,-108.4 66.69,-47.35 162.23,-38.39 227.76,6.39 19.92,13.6 35.87,31.74 48.57,52.18 5.37,8.65 -11.13,3.68 -11.13,3.68 0,0 51.3,66.54 43.57,70 -6.74,3 -21.52,-2.49 -21.88,-2.62 0.93,0.93 91.91,92.57 179.55,256.83 v 0 c 0,0 117.38,183.61 89.63,181.82 -13.11,-0.85 -49.55,-32.49 -84.32,-65.62 4.35,8.71 35.82,72.71 19.18,67.93 -29,-8.34 -75,-56.11 -75.76,-57.06 a 20.85,20.85 0 0 1 -0.3,2.64 207,207 0 0 1 -36.57,91.2 l -3.71,5.2 -1.6,19.58 -5.56,53.18 -3.53,33.8 c 0,0 59.5,33.76 68.76,44.79 1.08,1.28 1.47,2.26 1,2.84 -0.47,0.58 -1.93,0.87 -4,0.74 -15.79,-0.91 -70.32,-21.12 -70.32,-21.12 0,0 10.82,64.49 4.6,67.6 -6.22,3.11 -31.55,-57.11 -31.55,-57.11 0,0 -48.8,39 -52.17,30 -1,-2.58 2.29,-8.66 7.42,-16 1,-1.5 2.16,-3 3.34,-4.64 13.31,-17.91 34.06,-40.27 34.06,-40.27 l -18.34,-35.06 -15.14,-28.93 c 0,0 -105.08,8.72 -180.86,-18.13 9.5,20.27 5.33,40 4.22,40.74 -6,4 -21.08,-14.69 -20.77,-17.85 l -4.79,48.67 c 0,0 25.35,17 42.44,31.31 q 2.27,1.91 4.32,3.74 c 6.7,6 11.27,11.16 10.93,13.89 -1.19,9.55 -57.68,-17.1 -57.68,-17.1 0,0 -10.74,64.44 -17.5,62.85 -6.76,-1.59 -11.14,-66.83 -11.14,-66.83 0,0 -62.06,41.37 -67.62,37 -5.56,-4.37 56.85,-62.53 56.85,-62.53 z"
     id="path117" />
  <path
     class="cls-7"
     d="m 406.0847,165.06 c 13.93,-5.06 30.75,-4.13 45.09,-0.85 12,2.75 22.06,8.81 32,14.7 l 0.16,0.09 a 34,34 0 0 0 33.72,0 l 0.16,-0.09 c 10,-5.89 20,-12 32,-14.7 14.34,-3.28 31.16,-4.22 45.09,0.85 30.85,11.21 24,50.46 24,50.46 0,0 -9.21,78.5 -118.19,78.83 -108.85,-0.35 -118.08,-78.83 -118.08,-78.83 0,0 -6.8,-39.25 24.05,-50.46 z"
     id="path119" />
  <path
     class="cls-9"
     d="m 380.8847,912.7 c 5.57,4.37 67.62,-37 67.62,-37 0,0 4.37,65.24 11.14,66.83 6.77,1.59 17.5,-62.85 17.5,-62.85 0,0 56.49,26.65 57.68,17.1 0.34,-2.73 -4.22,-7.89 -10.93,-13.89 q -2,-1.83 -4.32,-3.74 c -17.09,-14.36 -42.44,-31.31 -42.44,-31.31 l 4.79,-48.67 -58.19,-8 14,59.05 c 0,0 -62.43,58.1 -56.85,62.48 z"
     id="path121" />
  <path
     class="cls-10"
     d="m 460.4447,928.78 c 1.33,0.37 2.34,2.37 2.48,4.06 0.24,2.81 0.47,7.11 -2.55,8.61 -2.87,1.42 -3.38,-5.09 -3.46,-6.61 a 7.81,7.81 0 0 1 1.06,-4.75 c 0.86,-1.19 1.71,-1.51 2.47,-1.31 z"
     id="path123" />
  <path
     class="cls-10"
     d="m 380.6147,911.31 c -0.42,-1.31 0.71,-3.25 2.05,-4.3 2.22,-1.73 5.7,-4.28 8.61,-2.57 2.91,1.71 -2.42,5.62 -3.64,6.51 a 7.82,7.82 0 0 1 -4.56,1.7 c -1.48,-0.05 -2.22,-0.6 -2.46,-1.34 z"
     id="path125" />
  <path
     class="cls-10"
     d="m 527.2247,895.41 -0.23,-0.16 a 7.8,7.8 0 0 1 -3.05,-3.78 c -0.41,-1.43 -0.13,-2.3 0.5,-2.76 1.11,-0.81 3.31,-0.35 4.72,0.59 a 18.63,18.63 0 0 1 3.81,3.13 4.85,4.85 0 0 1 1.34,4.23 c -0.63,2.96 -5.53,-0.17 -7.09,-1.25 z"
     id="path127" />
  <circle
     class="cls-5"
     cx="-577.09473"
     cy="203.66"
     id="circle129"
     r="28.33"
     transform="scale(-1,1)" />
  <circle
     class="cls-5"
     cx="-420.15469"
     cy="203.66"
     id="circle131"
     r="28.33"
     transform="scale(-1,1)" />
  <circle
     class="cls-11"
     cx="-577.09473"
     cy="203.66"
     id="circle133"
     r="19.690001"
     transform="scale(-1,1)" />
  <circle
     class="cls-5"
     cx="-582.6947"
     cy="194.42999"
     r="3.5699999"
     id="circle135"
     transform="scale(-1,1)" />
  <circle
     class="cls-5"
     cx="-574.60474"
     cy="202.59"
     r="2.49"
     id="circle137"
     transform="scale(-1,1)" />
  <circle
     class="cls-11"
     cx="-420.15469"
     cy="203.66"
     r="19.690001"
     id="circle139"
     transform="scale(-1,1)" />
  <circle
     class="cls-5"
     cx="-414.55472"
     cy="194.42999"
     r="3.5699999"
     id="circle141"
     transform="scale(-1,1)" />
  <circle
     class="cls-5"
     cx="-422.64468"
     cy="202.59"
     r="2.49"
     id="circle143"
     transform="scale(-1,1)" />
  <path
     class="cls-9"
     d="m 469.2647,237.29 2.54,1.42 c 6.87,3.86 25.35,14.28 25.35,14.64 0,-0.36 18.14,-10.59 25.15,-14.53 l 2.73,-1.53 -0.83,-1.09 c -3.49,-4.47 -17.18,-21.23 -27,-21.85 -8.85,0.47 -23.25,17.28 -27,21.82 -0.62,0.71 -0.94,1.12 -0.94,1.12 z"
     id="path145" />
  <path
     class="cls-11"
     d="m 469.2647,237.29 2.54,1.42 a 94.86,94.86 0 0 0 50.5,0.11 l 2.73,-1.53 -0.83,-1.09 a 92.49,92.49 0 0 1 -54,0 c -0.62,0.68 -0.94,1.09 -0.94,1.09 z"
     id="path147" />
  <path
     class="cls-6"
     d="m 326.7947,232 c 0,0 -29.84,53.8 -23.47,59 6.37,5.2 30.23,-17.11 30.23,-17.11 z"
     id="path149" />
  <path
     class="cls-7"
     d="m 409.3047,395.27 c 9.31,-9.95 21.76,-17.86 35.68,-18.38 21.36,-0.79 31,13.27 44.39,26.9 15.22,15.45 26,13 40.19,-0.92 25.23,-24.79 57.15,-19 77.92,8.42 44.66,58.88 41.14,227 -48.26,250 -69.53,17.85 -129.78,-55 -153,-111.6 -16.91,-41.11 -30.74,-118.29 3.08,-154.42 z"
     id="path151" />
  <path
     class="cls-9"
     d="m 668.0347,919.33 c 3.37,9 52.17,-30 52.17,-30 0,0 25.34,60.22 31.55,57.11 6.21,-3.11 -4.6,-67.6 -4.6,-67.6 0,0 54.51,20.24 70.3,21.16 l 3,-3.58 c -9.25,-11 -68.76,-44.79 -68.76,-44.79 l 3.53,-33.8 v 0 c -1.09,-1.23 1.89,-12.09 2.83,-13.43 23.36,-33.16 -18.91,-34.31 -34.87,-31.81 -8.87,1.39 -27.89,25 -34.56,39.56 l 24.2,46.26 c 0,0 -20.75,22.35 -34.06,40.27 -1.18,1.59 -2.3,3.13 -3.34,4.64 -5.13,7.35 -8.39,13.43 -7.39,16.01 z"
     id="path153" />
  <path
     class="cls-10"
     d="m 748.3947,935.23 c 1.37,0.15 2.69,2 3.1,3.61 0.69,2.73 1.61,6.94 -1.13,8.91 -2.74,1.97 -4.16,-4.48 -4.48,-6 a 7.82,7.82 0 0 1 0.28,-4.85 c 0.66,-1.29 1.45,-1.75 2.23,-1.67 z"
     id="path155" />
  <path
     class="cls-10"
     d="m 668.6947,914.71 0.17,-0.22 a 7.8,7.8 0 0 1 4,-2.82 c 1.45,-0.33 2.3,0 2.73,0.67 0.74,1.16 0.16,3.33 -0.87,4.68 a 18.63,18.63 0 0 1 -3.35,3.62 4.85,4.85 0 0 1 -4.3,1.09 c -2.96,-0.82 0.45,-5.53 1.62,-7.02 z"
     id="path157" />
  <path
     class="cls-10"
     d="m 809.6147,894 c 0.88,-1.06 3.12,-1.15 4.72,-0.58 2.65,0.94 6.68,2.5 6.8,5.87 0.11,3.2 -6,1 -7.45,0.43 a 7.82,7.82 0 0 1 -3.89,-2.92 c -0.76,-1.26 -0.68,-2.18 -0.18,-2.8 z"
     id="path159" />
  <path
     class="cls-6"
     d="m 701.1447,755.78 c 0,0 24.49,71.58 31.52,67.66 7.03,-3.92 3.39,-59 3.39,-59 z"
     id="path161" />
  <path
     class="cls-6"
     d="m 763.1047,737.85 0.74,2.94 c 0,0 6.24,75.87 -5.77,75.28 -12.01,-0.59 -29.57,-58.83 -29.57,-58.83 z"
     id="path163" />
  <path
     class="cls-6"
     d="m 685.1547,748.61 c 0,0 17.51,73.6 24.88,70.39 7.37,-3.21 9,-58.41 9,-58.41 z"
     id="path165" />
  <path
     class="cls-6"
     d="m 704.3547,768.37 c 0,0 -14.6,50 -19.3,47.73 -4.7,-2.27 -9.43,-39.1 -9.43,-39.1 z"
     id="path167" />
  <path
     class="cls-6"
     d="m 416.9347,752.42 13.86,6.72 c 0,0 0.28,1.37 0.55,3.65 l 11.82,4.76 14.54,-0.73 c -0.9,-3.95 -1.42,-6.46 -1.42,-6.46 l 27.31,10.64 c 0,0 -1.37,47.68 -9.41,44.16 -3,-1.31 -6.65,-11.28 -9.88,-22.36 -1.22,10.68 -3.1,20.24 -5.91,18.84 -3.4,-1.69 -7.54,-9.49 -10.92,-21.13 -1.55,12.28 -5.13,21.46 -11,19 -3.84,-1.58 -6.58,-9.64 -8.5,-18.82 a 28.19,28.19 0 0 1 -10.06,12 c -7.59,4.15 -0.98,-50.27 -0.98,-50.27 z"
     id="path169" />
  <path
     class="cls-8"
     d="m 688.7347,390.17 c -0.19,0 -0.56,0.86 -1.11,2.64 a 74.09,74.09 0 0 0 -1.86,7.9 c -0.27,1.74 -0.63,3.67 -0.88,5.81 -0.25,2.14 -0.53,4.45 -0.67,7 -0.14,2.55 -0.25,5.19 -0.33,8 v 4.39 c 0,1.51 0.12,3 0.18,4.63 a 177.22,177.22 0 0 0 8.2,43.58 243.06,243.06 0 0 0 9.35,24.47 c 3.7,8.29 7.92,16.69 12.59,25.08 4.67,8.39 9.51,16.4 14.35,24 4.84,7.6 9.65,14.87 14.39,21.68 4.74,6.81 9.38,13.19 13.86,19.05 4.48,5.86 8.8,11.21 12.83,16 8.1,9.59 15.09,17 20.1,21.88 1.26,1.22 2.37,2.31 3.37,3.23 1,0.92 1.85,1.67 2.56,2.27 1.41,1.2 2.22,1.76 2.36,1.63 0.14,-0.13 -0.39,-1 -1.54,-2.42 -0.57,-0.73 -1.29,-1.61 -2.16,-2.63 l -3,-3.56 c -4.49,-5.34 -11,-13.06 -18.61,-22.89 -3.8,-4.93 -7.89,-10.38 -12.18,-16.31 -4.29,-5.93 -8.74,-12.36 -13.32,-19.19 -4.58,-6.83 -9.26,-14.1 -14,-21.7 -4.74,-7.6 -9.5,-15.54 -14.1,-23.82 -4.6,-8.28 -8.79,-16.51 -12.48,-24.6 -3.69,-8.09 -6.83,-16.09 -9.45,-23.82 a 190.24,190.24 0 0 1 -9.16,-42.26 c -0.12,-1.54 -0.3,-3 -0.37,-4.5 l -0.24,-4.28 c -0.06,-2.78 -0.17,-5.4 -0.1,-7.86 0.07,-2.46 0.12,-4.74 0.19,-6.85 0.07,-2.11 0.28,-4 0.38,-5.75 0.34,-3.45 0.59,-6.14 0.8,-8 0.21,-1.86 0.24,-2.76 0.05,-2.8 z"
     id="path171" />
  <path
     class="cls-5"
     d="m 609.4847,504.32 c 0.7,0.14 1.66,-1 2.31,-3.19 a 16.31,16.31 0 0 0 0.63,-3.9 20.79,20.79 0 0 0 -1.83,-9.43 16.31,16.31 0 0 0 -2,-3.38 c -1.42,-1.77 -2.74,-2.48 -3.34,-2.09 -0.6,0.39 -0.47,1.81 0,3.76 0.22,1 0.49,2.1 0.79,3.34 0.3,1.24 0.59,2.58 0.87,4 0.28,1.42 0.49,2.78 0.69,4 0.2,1.22 0.36,2.4 0.52,3.39 0.25,1.99 0.62,3.35 1.36,3.5 z"
     id="path173" />
  <path
     class="cls-5"
     d="m 561.9447,446.78 c -0.38,0.64 0,1.61 0.67,2.73 a 56.35,56.35 0 0 0 6,7.39 c 1,0.9 1.84,1.45 2.54,1.2 0.7,-0.25 1,-1.28 0.85,-2.82 a 11.71,11.71 0 0 0 -7.17,-8.78 c -1.42,-0.5 -2.52,-0.34 -2.89,0.28 z"
     id="path175" />
  <path
     class="cls-5"
     d="m 566.0347,419.33 c -0.21,0.72 0.6,1.62 1.86,2.69 0.64,0.53 1.38,1.13 2.2,1.76 l 2.61,2.07 2.61,2.15 c 0.79,0.67 1.52,1.28 2.17,1.79 1.31,1 2.36,1.63 3,1.27 0.64,-0.36 0.73,-1.64 0,-3.45 a 12.58,12.58 0 0 0 -1.62,-2.92 16.31,16.31 0 0 0 -6.3,-5.11 12.58,12.58 0 0 0 -3.19,-1 c -1.84,-0.3 -3.1,0.07 -3.34,0.75 z"
     id="path177" />
  <path
     class="cls-5"
     d="m 593.7147,533.42 c 0.53,0.47 1.82,0.09 3.25,-1.31 a 9,9 0 0 0 1.05,-1.24 12.17,12.17 0 0 0 1,-1.58 14.27,14.27 0 0 0 1.45,-8.3 12.18,12.18 0 0 0 -0.39,-1.82 9,9 0 0 0 -0.57,-1.52 c -0.87,-1.81 -2,-2.6 -2.62,-2.34 -0.62,0.26 -0.91,1.47 -1.07,3.08 l -0.26,2.73 c -0.12,1 -0.25,2.08 -0.44,3.21 -0.19,1.13 -0.44,2.18 -0.67,3.17 l -0.68,2.66 c -0.41,1.57 -0.62,2.76 -0.05,3.26 z"
     id="path179" />
  <path
     class="cls-5"
     d="m 572.6347,522.31 c 0.59,0.41 1.71,0 2.86,-1.21 a 9.66,9.66 0 0 0 1.62,-2.43 12.59,12.59 0 0 0 1.08,-7 9.67,9.67 0 0 0 -0.8,-2.81 c -0.73,-1.53 -1.68,-2.23 -2.36,-2 -0.68,0.23 -1.08,1.23 -1.36,2.59 -0.13,0.68 -0.26,1.46 -0.38,2.3 l -0.4,2.69 -0.44,2.68 c -0.14,0.83 -0.25,1.62 -0.33,2.31 -0.14,1.38 -0.09,2.46 0.51,2.88 z"
     id="path181" />
  <path
     class="cls-5"
     d="m 599.2247,438.72 c -0.4,0.63 -0.1,1.59 0.48,2.7 0.58,1.11 1.42,2.4 2.36,3.81 0.94,1.41 1.78,2.69 2.58,3.66 0.8,0.97 1.56,1.61 2.29,1.49 0.73,-0.12 1.26,-1.06 1.3,-2.59 a 8.45,8.45 0 0 0 -0.38,-2.6 11.15,11.15 0 0 0 -3.49,-5.28 8.45,8.45 0 0 0 -2.25,-1.36 c -1.41,-0.55 -2.5,-0.44 -2.89,0.17 z"
     id="path183" />
  <path
     class="cls-5"
     d="m 587.3047,454.1 c -0.41,0.63 -0.05,1.62 0.62,2.81 0.67,1.19 1.66,2.59 2.74,4.13 1.08,1.54 2.05,2.94 2.93,4 0.88,1.06 1.7,1.71 2.42,1.55 0.72,-0.16 1.18,-1.2 1.12,-2.82 a 9.63,9.63 0 0 0 -0.55,-2.74 12.74,12.74 0 0 0 -3.86,-5.53 9.64,9.64 0 0 0 -2.39,-1.5 c -1.5,-0.6 -2.64,-0.51 -3.03,0.1 z"
     id="path185" />
  <path
     class="cls-5"
     d="m 579.4947,478.16 c -0.64,0.38 -0.72,1.51 -0.55,3 0.17,1.49 0.59,3.4 1.06,5.48 0.47,2.08 0.92,4 1.41,5.4 0.49,1.4 1.05,2.41 1.79,2.48 0.74,0.07 1.5,-0.85 2,-2.51 a 14.58,14.58 0 0 0 -2.83,-12.44 c -1.17,-1.29 -2.26,-1.78 -2.88,-1.41 z"
     id="path187" />
  <ellipse
     class="cls-8"
     cx="-159.00761"
     cy="-494.98743"
     rx="7.1889396"
     ry="1.9578816"
     transform="matrix(-0.0896377,-0.99597444,-0.99597444,0.0896377,0,0)"
     id="ellipse189"
     style="stroke-width:1.00404" />
  <path
     class="cls-8"
     d="m 486.5247,110.9 c -0.4,0.36 -0.3,1.19 0.1,2.25 a 30,30 0 0 0 4.36,7.2 c 0.76,0.84 1.44,1.32 2,1.13 0.56,-0.19 0.72,-1 0.57,-2.24 a 12.45,12.45 0 0 0 -4.73,-7.81 c -1.06,-0.69 -1.91,-0.88 -2.3,-0.53 z"
     id="path191" />
  <ellipse
     class="cls-8"
     cx="-538.18378"
     cy="-29.063044"
     rx="1.95"
     ry="5.5799999"
     transform="matrix(-0.95303222,-0.30286894,-0.30286894,0.95303222,0,0)"
     id="ellipse193" />
  <ellipse
     class="cls-8"
     cx="-531.15228"
     cy="46.64529"
     rx="1.95"
     ry="5.4299998"
     transform="matrix(-0.97771001,-0.20995986,-0.20995986,0.97771001,0,0)"
     id="ellipse195" />
  <ellipse
     class="cls-8"
     cx="-342.88144"
     cy="-371.62604"
     rx="5"
     ry="1.95"
     transform="matrix(-0.43413083,-0.90084983,-0.90084983,0.43413083,0,0)"
     id="ellipse197" />
  <ellipse
     class="cls-8"
     cx="-302.00159"
     cy="-392.17834"
     rx="3.5999999"
     ry="1.95"
     transform="matrix(-0.38655,-0.92226845,-0.92226845,0.38655,0,0)"
     id="ellipse199" />
  <ellipse
     class="cls-8"
     cx="-164.04001"
     cy="-487.74744"
     rx="4.1999998"
     ry="1.95"
     transform="matrix(-0.05129017,-0.99868379,-0.99868379,0.05129017,0,0)"
     id="ellipse201" />
  <ellipse
     class="cls-8"
     cx="-515.58398"
     cy="72.244827"
     rx="2.22"
     ry="4.5"
     transform="matrix(-0.9842265,-0.17691296,-0.17691296,0.9842265,0,0)"
     id="ellipse203" />
  <path
     class="cls-8"
     d="m 326.3947,553.12 c 0.37,-0.11 0,-2.75 -0.88,-7.41 l -0.8,-3.87 -0.89,-4.61 c -0.63,-3.31 -1.47,-7 -2.18,-11.22 l -1.21,-6.53 c -0.42,-2.27 -0.77,-4.65 -1.18,-7.1 -0.41,-2.45 -0.87,-5 -1.21,-7.61 l -1.16,-8.08 c -1.45,-11.08 -2.75,-23.29 -3.6,-36.15 -0.85,-12.86 -1,-25.14 -1,-36.31 l 0.13,-8.16 c 0,-2.65 0.17,-5.21 0.24,-7.7 0.07,-2.49 0.15,-4.89 0.28,-7.19 l 0.38,-6.63 c 0.18,-4.23 0.54,-8 0.75,-11.4 l 0.3,-4.69 0.3,-3.94 c 0.32,-4.74 0.32,-7.4 -0.07,-7.46 -0.39,-0.06 -1.12,2.49 -2.11,7.16 q -0.37,1.75 -0.79,3.9 c -0.26,1.43 -0.5,3 -0.77,4.66 -0.51,3.35 -1.15,7.17 -1.59,11.41 l -0.75,6.66 c -0.25,2.32 -0.4,4.74 -0.61,7.24 -0.21,2.5 -0.44,5.09 -0.53,7.77 l -0.37,8.25 c -0.33,11.3 -0.24,23.74 0.55,36.77 0.79,13.03 2.34,25.38 4.09,36.55 l 1.41,8.14 c 0.43,2.64 1,5.18 1.51,7.64 0.51,2.46 1,4.84 1.52,7.11 l 1.58,6.52 c 1,4.16 2.09,7.86 3,11.12 0.48,1.63 0.91,3.14 1.35,4.53 0.44,1.39 0.89,2.64 1.28,3.76 1.61,4.54 2.67,6.98 3.03,6.87 z"
     id="path205" />
  <path
     class="cls-8"
     d="m 782.5147,498.92 c -1.32,1 17,27 36.84,60.78 19.84,33.78 33.84,62.34 35.35,61.66 0.68,-0.31 -1.92,-7.89 -7.18,-19.71 l -2.09,-4.62 c -0.74,-1.6 -1.54,-3.25 -2.36,-5 -1.63,-3.44 -3.47,-7.06 -5.41,-10.87 -3.93,-7.59 -8.44,-15.85 -13.45,-24.36 -5.01,-8.51 -10.06,-16.44 -14.8,-23.56 -2.4,-3.54 -4.67,-6.91 -6.9,-10 -1.1,-1.55 -2.16,-3 -3.21,-4.47 l -3,-4.07 c -7.82,-10.27 -13.19,-16.22 -13.79,-15.78 z"
     id="path207" />
  <metadata
     id="metadata13164">
    <rdfRDF>
      <ccWork
         rdfAbout="">
        <dcTitle>set</dcTitle>
      </ccWork>
    </rdfRDF>
  </metadata>
</svg>
