<svg xmlns="http://www.w3.org/2000/svg" xmlns:xlink="http://www.w3.org/1999/xlink" width="500" zoomAndPan="magnify" viewBox="0 0 375 374.999991" height="500" preserveAspectRatio="xMidYMid meet" version="1.0"><defs><clipPath id="95d94fbcc8"><path d="M 0 232 L 375 232 L 375 370.804688 L 0 370.804688 Z M 0 232 " clip-rule="nonzero"/></clipPath><clipPath id="e2c7b4466a"><path d="M 108 143.554688 L 200 143.554688 L 200 284 L 108 284 Z M 108 143.554688 " clip-rule="nonzero"/></clipPath></defs><g clip-path="url(#95d94fbcc8)"><path fill="#040606" d="M 354.566406 343.710938 C 351.210938 345.121094 347.703125 346.390625 344.046875 347.507812 C 340.375 348.632812 336.546875 349.613281 332.550781 350.4375 C 328.539062 351.269531 324.363281 351.960938 320.011719 352.496094 C 313.425781 353.320312 306.703125 353.785156 299.855469 353.976562 C 292.980469 354.183594 285.984375 354.113281 278.875 353.851562 C 271.75 353.601562 264.507812 353.164062 257.152344 352.628906 C 249.785156 352.097656 242.308594 351.457031 234.71875 350.816406 C 227.222656 350.183594 219.652344 349.546875 212.058594 349 C 204.453125 348.449219 196.816406 347.992188 189.195312 347.71875 C 181.558594 347.457031 173.933594 347.371094 166.355469 347.574219 C 158.757812 347.789062 151.199219 348.273438 143.722656 349.15625 C 139.015625 349.710938 134.445312 350.40625 129.988281 351.242188 C 125.523438 352.085938 121.179688 353.066406 116.9375 354.203125 C 112.683594 355.335938 108.535156 356.628906 104.472656 358.074219 C 100.398438 359.519531 96.414062 361.128906 92.503906 362.894531 L 10.597656 253.953125 C 14.304688 252.46875 18.0625 251.132812 21.894531 249.9375 C 25.71875 248.753906 29.613281 247.703125 33.597656 246.78125 C 37.570312 245.878906 41.628906 245.101562 45.796875 244.453125 C 49.949219 243.816406 54.214844 243.308594 58.59375 242.921875 C 65.179688 242.335938 71.78125 242.058594 78.414062 242.007812 C 85.035156 241.949219 91.699219 242.125 98.417969 242.445312 C 105.128906 242.777344 111.898438 243.25 118.75 243.804688 C 125.589844 244.355469 132.511719 244.988281 139.515625 245.628906 C 146.421875 246.257812 153.382812 246.898438 160.359375 247.464844 C 167.324219 248.015625 174.296875 248.5 181.246094 248.832031 C 188.179688 249.160156 195.078125 249.324219 201.898438 249.257812 C 208.695312 249.199219 215.410156 248.898438 221.992188 248.277344 C 226.105469 247.898438 230.074219 247.402344 233.90625 246.792969 C 237.730469 246.179688 241.410156 245.453125 244.96875 244.617188 C 248.507812 243.785156 251.921875 242.832031 255.21875 241.765625 C 258.503906 240.699219 261.671875 239.527344 264.726562 238.222656 L 364.179688 339.035156 C 361.113281 340.742188 357.914062 342.296875 354.566406 343.710938 Z M 374.84375 340.285156 C 374.726562 340.054688 374.546875 339.808594 374.304688 339.570312 L 269.457031 234.121094 C 269.277344 233.945312 269.046875 233.769531 268.792969 233.605469 C 268.535156 233.441406 268.242188 233.285156 267.921875 233.136719 C 267.601562 233.003906 267.257812 232.875 266.890625 232.761719 C 266.527344 232.652344 266.144531 232.566406 265.75 232.5 C 265.542969 232.460938 265.328125 232.429688 265.121094 232.402344 C 264.914062 232.382812 264.707031 232.363281 264.503906 232.355469 C 264.296875 232.34375 264.097656 232.34375 263.90625 232.34375 C 263.703125 232.34375 263.515625 232.355469 263.332031 232.375 C 263.175781 232.382812 263.03125 232.402344 262.886719 232.429688 C 262.742188 232.449219 262.597656 232.480469 262.46875 232.507812 C 262.332031 232.539062 262.207031 232.574219 262.085938 232.617188 C 261.960938 232.652344 261.847656 232.703125 261.738281 232.75 C 258.640625 234.214844 255.421875 235.546875 252.078125 236.738281 C 248.714844 237.933594 245.230469 239 241.59375 239.921875 C 237.949219 240.855469 234.160156 241.648438 230.214844 242.308594 C 226.257812 242.96875 222.140625 243.492188 217.863281 243.890625 C 211.683594 244.464844 205.414062 244.734375 199.046875 244.792969 C 192.664062 244.851562 186.1875 244.6875 179.621094 244.378906 C 173.042969 244.054688 166.378906 243.589844 159.613281 243.039062 C 152.84375 242.492188 145.980469 241.863281 139.007812 241.222656 C 132.121094 240.582031 125.164062 239.941406 118.179688 239.378906 C 111.1875 238.808594 104.164062 238.320312 97.136719 237.980469 C 90.101562 237.644531 83.058594 237.457031 76.039062 237.507812 C 69 237.554688 61.988281 237.847656 55.011719 238.457031 C 50.085938 238.882812 45.300781 239.457031 40.648438 240.183594 C 35.976562 240.910156 31.433594 241.796875 26.996094 242.832031 C 22.542969 243.871094 18.199219 245.074219 13.9375 246.433594 C 9.664062 247.800781 5.476562 249.335938 1.363281 251.042969 C 1.042969 251.167969 0.777344 251.324219 0.570312 251.496094 C 0.363281 251.671875 0.210938 251.855469 0.121094 252.050781 C 0.03125 252.246094 0 252.460938 0.03125 252.671875 C 0.0664062 252.886719 0.164062 253.097656 0.324219 253.324219 L 85.910156 368.464844 C 86.09375 368.71875 86.328125 368.953125 86.605469 369.164062 C 86.882812 369.378906 87.195312 369.582031 87.550781 369.757812 C 87.90625 369.941406 88.292969 370.105469 88.707031 370.242188 C 89.121094 370.378906 89.558594 370.492188 90.011719 370.582031 C 90.265625 370.628906 90.523438 370.660156 90.773438 370.6875 C 91.023438 370.714844 91.277344 370.726562 91.523438 370.738281 C 91.773438 370.746094 92.015625 370.746094 92.253906 370.738281 C 92.492188 370.726562 92.722656 370.707031 92.953125 370.675781 C 93.140625 370.660156 93.328125 370.628906 93.5 370.589844 C 93.679688 370.5625 93.851562 370.511719 94.015625 370.476562 C 94.179688 370.425781 94.339844 370.367188 94.492188 370.308594 C 94.648438 370.25 94.789062 370.191406 94.925781 370.125 C 98.957031 368.070312 103.074219 366.214844 107.285156 364.546875 C 111.484375 362.886719 115.773438 361.410156 120.183594 360.121094 C 124.574219 358.839844 129.085938 357.734375 133.730469 356.8125 C 138.355469 355.878906 143.117188 355.125 148.035156 354.542969 C 155.101562 353.699219 162.207031 353.222656 169.378906 353.019531 C 176.527344 352.8125 183.746094 352.890625 191.035156 353.144531 C 198.316406 353.40625 205.679688 353.851562 213.136719 354.386719 C 220.582031 354.929688 228.121094 355.5625 235.757812 356.210938 C 243.28125 356.839844 250.867188 357.472656 258.449219 358.015625 C 266.023438 358.558594 273.601562 359.003906 281.128906 359.265625 C 288.636719 359.519531 296.09375 359.589844 303.433594 359.371094 C 310.753906 359.148438 317.953125 358.648438 324.96875 357.761719 C 329.890625 357.140625 334.597656 356.355469 339.101562 355.398438 C 343.59375 354.433594 347.878906 353.308594 351.972656 352.007812 C 356.054688 350.710938 359.9375 349.230469 363.644531 347.59375 C 367.339844 345.953125 370.851562 344.140625 374.199219 342.160156 C 374.453125 342.003906 374.652344 341.820312 374.789062 341.625 C 374.917969 341.429688 374.992188 341.21875 375 340.996094 C 375.007812 340.761719 374.953125 340.53125 374.84375 340.285156 " fill-opacity="1" fill-rule="nonzero"/></g><path fill="#040606" d="M 289.152344 292.742188 C 286.96875 293.390625 284.734375 293.980469 282.429688 294.503906 C 280.121094 295.03125 277.746094 295.496094 275.304688 295.894531 C 272.855469 296.300781 270.335938 296.640625 267.734375 296.921875 C 265.355469 297.171875 262.933594 297.378906 260.472656 297.53125 C 258.011719 297.6875 255.507812 297.796875 252.976562 297.855469 C 250.441406 297.921875 247.867188 297.941406 245.261719 297.921875 C 242.652344 297.902344 240.011719 297.855469 237.339844 297.765625 L 214.554688 259.359375 C 215.96875 259.308594 217.375 259.261719 218.785156 259.195312 C 220.191406 259.128906 221.597656 259.046875 223.007812 258.960938 C 224.40625 258.875 225.816406 258.777344 227.210938 258.660156 C 228.617188 258.554688 230.011719 258.429688 231.410156 258.292969 C 233.984375 258.050781 236.5 257.769531 238.960938 257.445312 C 241.410156 257.128906 243.804688 256.765625 246.152344 256.382812 C 248.496094 255.980469 250.789062 255.554688 253.039062 255.089844 C 255.285156 254.625 257.480469 254.121094 259.644531 253.566406 L 295.515625 290.597656 C 293.453125 291.371094 291.328125 292.089844 289.152344 292.742188 Z M 330.855469 336.105469 C 328.636719 336.832031 326.359375 337.484375 324.011719 338.066406 C 321.65625 338.65625 319.238281 339.171875 316.742188 339.628906 C 314.238281 340.082031 311.660156 340.472656 309 340.792969 C 305.5 341.207031 301.917969 341.519531 298.25 341.714844 C 294.578125 341.917969 290.820312 342.023438 286.992188 342.035156 C 283.15625 342.050781 279.246094 341.984375 275.277344 341.859375 C 271.296875 341.722656 267.257812 341.519531 263.15625 341.277344 L 238.8125 300.242188 C 241.535156 300.328125 244.234375 300.378906 246.898438 300.386719 C 249.558594 300.394531 252.199219 300.378906 254.800781 300.308594 C 257.398438 300.230469 259.96875 300.125 262.503906 299.960938 C 265.035156 299.796875 267.53125 299.589844 269.992188 299.320312 C 272.609375 299.039062 275.140625 298.699219 277.601562 298.300781 C 280.066406 297.890625 282.449219 297.433594 284.773438 296.921875 C 287.09375 296.410156 289.34375 295.828125 291.539062 295.195312 C 293.734375 294.554688 295.871094 293.855469 297.945312 293.101562 L 337.328125 333.738281 C 335.226562 334.601562 333.070312 335.386719 330.855469 336.105469 Z M 251.753906 340.492188 C 249.644531 340.335938 247.515625 340.160156 245.378906 339.988281 C 243.238281 339.820312 241.085938 339.636719 238.925781 339.453125 C 236.753906 339.269531 234.578125 339.085938 232.394531 338.898438 C 227.960938 338.523438 223.5 338.144531 219.023438 337.785156 C 214.546875 337.414062 210.042969 337.074219 205.523438 336.753906 C 201.003906 336.445312 196.460938 336.164062 191.902344 335.941406 C 187.347656 335.714844 182.773438 335.542969 178.183594 335.4375 L 152.082031 293.980469 C 155.617188 294.15625 159.132812 294.359375 162.644531 294.59375 C 166.144531 294.816406 169.644531 295.078125 173.132812 295.351562 C 176.613281 295.621094 180.085938 295.902344 183.542969 296.203125 C 187.003906 296.496094 190.449219 296.796875 193.871094 297.097656 C 197.339844 297.40625 200.777344 297.707031 204.1875 298 C 207.59375 298.289062 210.972656 298.570312 214.324219 298.832031 C 217.667969 299.09375 220.980469 299.328125 224.265625 299.542969 C 227.542969 299.746094 230.785156 299.921875 233.996094 300.066406 L 258.054688 340.945312 C 255.972656 340.8125 253.871094 340.65625 251.753906 340.492188 Z M 163.480469 335.378906 C 160.246094 335.425781 157.003906 335.523438 153.753906 335.667969 C 150.503906 335.8125 147.242188 336.007812 143.976562 336.261719 C 140.703125 336.511719 137.425781 336.824219 134.140625 337.203125 C 131.238281 337.53125 128.390625 337.910156 125.59375 338.328125 C 122.789062 338.742188 120.042969 339.210938 117.332031 339.714844 C 114.617188 340.222656 111.945312 340.78125 109.304688 341.382812 C 106.664062 341.984375 104.0625 342.636719 101.476562 343.34375 L 92.453125 331.632812 L 160.246094 314.71875 L 173.152344 335.355469 C 169.933594 335.328125 166.710938 335.328125 163.480469 335.378906 Z M 76.066406 298.660156 C 78.636719 298.105469 81.242188 297.601562 83.882812 297.132812 C 86.519531 296.679688 89.199219 296.261719 91.921875 295.882812 C 94.640625 295.515625 97.410156 295.183594 100.238281 294.894531 C 104.1875 294.488281 108.125 294.175781 112.0625 293.945312 C 115.992188 293.71875 119.910156 293.574219 123.820312 293.496094 C 127.726562 293.421875 131.625 293.410156 135.515625 293.457031 C 139.398438 293.503906 143.277344 293.613281 147.144531 293.757812 L 158.558594 312.019531 L 90.386719 328.953125 L 68.421875 300.464844 C 70.945312 299.8125 73.488281 299.210938 76.066406 298.660156 Z M 43.714844 256.972656 C 46.152344 256.351562 48.621094 255.800781 51.132812 255.3125 C 53.640625 254.816406 56.191406 254.390625 58.796875 254.023438 C 61.394531 253.664062 64.042969 253.351562 66.757812 253.109375 C 69.265625 252.878906 71.804688 252.699219 74.363281 252.578125 C 76.921875 252.449219 79.507812 252.375 82.117188 252.335938 C 84.722656 252.296875 87.351562 252.296875 90.003906 252.335938 C 92.65625 252.375 95.332031 252.449219 98.03125 252.546875 L 109.46875 291.535156 C 108.539062 291.59375 107.609375 291.652344 106.679688 291.722656 C 105.746094 291.789062 104.816406 291.859375 103.886719 291.933594 C 102.949219 292.011719 102.015625 292.089844 101.082031 292.175781 C 100.144531 292.265625 99.210938 292.351562 98.277344 292.449219 C 95.449219 292.730469 92.679688 293.0625 89.953125 293.429688 C 87.230469 293.796875 84.554688 294.207031 81.917969 294.660156 C 79.273438 295.117188 76.671875 295.613281 74.101562 296.148438 C 71.523438 296.6875 68.976562 297.269531 66.449219 297.902344 L 36.476562 259.019531 C 38.859375 258.273438 41.269531 257.59375 43.714844 256.972656 Z M 112.046875 253.324219 C 115.160156 253.539062 118.296875 253.773438 121.464844 254.035156 C 124.625 254.285156 127.816406 254.558594 131.027344 254.847656 C 134.234375 255.128906 137.46875 255.421875 140.722656 255.710938 C 143.105469 255.933594 145.492188 256.148438 147.886719 256.359375 C 150.28125 256.574219 152.675781 256.789062 155.082031 256.992188 C 157.480469 257.195312 159.890625 257.398438 162.296875 257.59375 C 164.710938 257.777344 167.117188 257.960938 169.539062 258.136719 L 173.429688 292.972656 C 168.59375 292.582031 163.734375 292.234375 158.851562 291.933594 C 153.964844 291.632812 149.058594 291.382812 144.132812 291.21875 C 139.203125 291.042969 134.25 290.945312 129.28125 290.945312 C 124.300781 290.957031 119.296875 291.054688 114.28125 291.285156 L 102.777344 252.761719 C 105.839844 252.917969 108.929688 253.109375 112.046875 253.324219 Z M 183.230469 258.972656 C 186.214844 259.128906 189.203125 259.242188 192.191406 259.339844 C 195.183594 259.429688 198.171875 259.488281 201.160156 259.515625 C 204.140625 259.535156 207.125 259.527344 210.105469 259.464844 L 232.535156 297.582031 C 229.417969 297.445312 226.261719 297.261719 223.074219 297.058594 C 219.882812 296.855469 216.65625 296.621094 213.40625 296.367188 C 210.140625 296.117188 206.855469 295.84375 203.539062 295.566406 C 200.214844 295.273438 196.867188 294.980469 193.496094 294.679688 C 192.238281 294.574219 190.980469 294.46875 189.722656 294.351562 C 188.464844 294.242188 187.203125 294.128906 185.941406 294.019531 C 184.671875 293.90625 183.410156 293.796875 182.140625 293.691406 C 180.875 293.585938 179.605469 293.476562 178.332031 293.371094 L 174.273438 258.457031 C 177.257812 258.652344 180.238281 258.824219 183.230469 258.972656 Z M 262.113281 251.539062 C 262 251.46875 261.871094 251.390625 261.726562 251.324219 C 261.585938 251.257812 261.429688 251.199219 261.265625 251.140625 C 261.105469 251.082031 260.929688 251.035156 260.746094 250.996094 C 260.621094 250.957031 260.492188 250.9375 260.371094 250.917969 C 260.242188 250.898438 260.121094 250.878906 259.992188 250.867188 C 259.875 250.859375 259.75 250.859375 259.628906 250.859375 C 259.515625 250.859375 259.394531 250.867188 259.289062 250.878906 C 259.246094 250.878906 259.203125 250.890625 259.164062 250.890625 C 259.121094 250.898438 259.082031 250.898438 259.042969 250.910156 C 259.003906 250.917969 258.964844 250.925781 258.921875 250.925781 C 258.886719 250.9375 258.847656 250.945312 258.8125 250.957031 C 256.5625 251.558594 254.265625 252.113281 251.925781 252.613281 C 249.578125 253.128906 247.183594 253.597656 244.742188 254.011719 C 242.289062 254.441406 239.78125 254.816406 237.210938 255.15625 C 234.644531 255.5 232.007812 255.800781 229.304688 256.058594 C 222.007812 256.757812 214.652344 257.109375 207.25 257.207031 C 199.835938 257.300781 192.394531 257.136719 184.949219 256.808594 C 177.492188 256.476562 170.042969 255.972656 162.625 255.378906 C 155.195312 254.789062 147.796875 254.121094 140.457031 253.453125 C 133.789062 252.847656 127.199219 252.246094 120.714844 251.722656 C 114.222656 251.199219 107.824219 250.742188 101.535156 250.429688 C 95.230469 250.132812 89.03125 249.957031 82.941406 250.003906 C 76.832031 250.042969 70.828125 250.292969 64.929688 250.828125 C 61.96875 251.101562 59.078125 251.433594 56.242188 251.839844 C 53.398438 252.238281 50.617188 252.714844 47.882812 253.257812 C 45.140625 253.796875 42.449219 254.421875 39.800781 255.105469 C 37.140625 255.800781 34.523438 256.566406 31.933594 257.410156 C 31.75 257.46875 31.59375 257.546875 31.472656 257.632812 C 31.347656 257.71875 31.253906 257.824219 31.195312 257.933594 C 31.136719 258.039062 31.113281 258.15625 31.128906 258.273438 C 31.144531 258.390625 31.195312 258.503906 31.289062 258.632812 L 97.953125 345.585938 C 98.039062 345.691406 98.144531 345.796875 98.261719 345.894531 C 98.378906 345.984375 98.511719 346.082031 98.664062 346.15625 C 98.808594 346.238281 98.976562 346.3125 99.144531 346.378906 C 99.316406 346.4375 99.496094 346.496094 99.679688 346.535156 C 99.824219 346.574219 99.972656 346.601562 100.117188 346.625 C 100.261719 346.652344 100.410156 346.671875 100.546875 346.683594 C 100.6875 346.691406 100.832031 346.691406 100.964844 346.691406 C 101.101562 346.691406 101.234375 346.683594 101.363281 346.664062 C 101.417969 346.664062 101.464844 346.652344 101.519531 346.640625 C 101.570312 346.632812 101.621094 346.625 101.671875 346.613281 C 101.71875 346.601562 101.769531 346.59375 101.816406 346.585938 C 101.867188 346.574219 101.914062 346.554688 101.957031 346.546875 C 104.667969 345.757812 107.402344 345.042969 110.171875 344.371094 C 112.941406 343.710938 115.742188 343.101562 118.589844 342.546875 C 121.429688 341.984375 124.316406 341.492188 127.257812 341.035156 C 130.199219 340.589844 133.195312 340.191406 136.25 339.839844 C 144.453125 338.890625 152.636719 338.355469 160.800781 338.132812 C 168.929688 337.910156 177.039062 337.996094 185.117188 338.28125 C 193.175781 338.550781 201.207031 339.035156 209.183594 339.609375 C 217.148438 340.191406 225.066406 340.859375 232.90625 341.53125 C 240.011719 342.132812 247.015625 342.734375 253.890625 343.238281 C 260.757812 343.742188 267.496094 344.167969 274.078125 344.421875 C 280.65625 344.683594 287.082031 344.769531 293.320312 344.625 C 299.546875 344.46875 305.589844 344.082031 311.421875 343.375 C 314.351562 343.015625 317.171875 342.585938 319.914062 342.082031 C 322.644531 341.578125 325.28125 340.996094 327.835938 340.335938 C 330.390625 339.6875 332.859375 338.949219 335.257812 338.144531 C 337.648438 337.328125 339.96875 336.445312 342.226562 335.476562 C 342.394531 335.40625 342.527344 335.320312 342.628906 335.214844 C 342.722656 335.117188 342.785156 335 342.808594 334.882812 C 342.835938 334.765625 342.820312 334.640625 342.773438 334.503906 C 342.71875 334.378906 342.628906 334.242188 342.503906 334.117188 L 262.410156 251.78125 C 262.324219 251.703125 262.222656 251.617188 262.113281 251.539062 " fill-opacity="1" fill-rule="nonzero"/><g clip-path="url(#e2c7b4466a)"><path fill="#040606" d="M 154.101562 218.464844 C 137.667969 218.464844 124.34375 205.15625 124.34375 188.746094 C 124.34375 172.328125 137.667969 159.023438 154.101562 159.023438 C 170.535156 159.023438 183.855469 172.328125 183.855469 188.746094 C 183.855469 205.15625 170.535156 218.464844 154.101562 218.464844 Z M 154.101562 143.613281 C 129.148438 143.613281 108.921875 163.816406 108.921875 188.746094 C 108.921875 240.164062 154.101562 283.550781 154.101562 283.550781 C 154.101562 283.550781 199.277344 240.164062 199.277344 188.746094 C 199.277344 163.816406 179.054688 143.613281 154.101562 143.613281 " fill-opacity="1" fill-rule="nonzero"/></g></svg>