<svg xmlns="http://www.w3.org/2000/svg" xmlns:xlink="http://www.w3.org/1999/xlink" width="500" zoomAndPan="magnify" viewBox="0 0 375 374.999991" height="500" preserveAspectRatio="xMidYMid meet" version="1.0" fill="currentColor"><defs><clipPath id="c603a7d365"><path d="M 0 46 L 375 46 L 375 335.386719 L 0 335.386719 Z M 0 46 " clip-rule="nonzero"/></clipPath></defs><g clip-path="url(#c603a7d365)"><path  d="M 338.363281 173.015625 L 357.8125 173.015625 C 358.601562 173.015625 359.335938 172.8125 360.011719 172.410156 C 360.6875 172.007812 361.214844 171.460938 361.589844 170.765625 C 361.964844 170.074219 362.140625 169.335938 362.109375 168.546875 C 362.078125 167.757812 361.847656 167.035156 361.421875 166.371094 L 332.46875 121.667969 L 348.066406 121.667969 C 348.851562 121.667969 349.585938 121.46875 350.261719 121.0625 C 350.941406 120.660156 351.464844 120.113281 351.84375 119.421875 C 352.21875 118.726562 352.390625 117.988281 352.359375 117.199219 C 352.332031 116.414062 352.101562 115.6875 351.671875 115.027344 L 316.226562 60.296875 C 316.027344 59.996094 315.796875 59.730469 315.535156 59.488281 C 315.269531 59.246094 314.980469 59.042969 314.664062 58.875 C 314.351562 58.703125 314.019531 58.578125 313.675781 58.488281 C 313.328125 58.402344 312.976562 58.359375 312.617188 58.359375 C 312.261719 58.359375 311.910156 58.402344 311.5625 58.488281 C 311.21875 58.578125 310.886719 58.703125 310.574219 58.875 C 310.257812 59.042969 309.96875 59.246094 309.703125 59.488281 C 309.441406 59.730469 309.210938 59.996094 309.011719 60.296875 L 273.566406 115.027344 C 273.136719 115.6875 272.90625 116.414062 272.878906 117.199219 C 272.847656 117.988281 273.019531 118.726562 273.394531 119.421875 C 273.773438 120.113281 274.296875 120.660156 274.976562 121.0625 C 275.652344 121.46875 276.382812 121.667969 277.171875 121.667969 L 292.769531 121.667969 L 263.816406 166.371094 C 263.390625 167.035156 263.160156 167.757812 263.128906 168.546875 C 263.097656 169.335938 263.269531 170.074219 263.648438 170.765625 C 264.023438 171.460938 264.550781 172.007812 265.226562 172.410156 C 265.902344 172.8125 266.636719 173.015625 267.421875 173.015625 L 286.871094 173.015625 L 263.429688 209.214844 C 260.585938 201.839844 258.21875 195.003906 256.261719 188.800781 C 246.589844 158.183594 244.703125 136.855469 244.355469 131.136719 L 257.1875 115.5625 C 260.703125 111.136719 254.222656 105.785156 250.554688 110.085938 L 243.671875 118.441406 L 243.269531 111.050781 C 242.863281 105.402344 234.476562 105.875 234.6875 111.523438 L 235.410156 124.804688 C 171.632812 115.621094 135.285156 101.042969 104.09375 75.171875 L 99.132812 50.414062 C 99.078125 50.136719 98.996094 49.867188 98.890625 49.605469 C 98.78125 49.34375 98.648438 49.097656 98.492188 48.859375 C 98.335938 48.625 98.15625 48.40625 97.957031 48.207031 C 97.757812 48.007812 97.539062 47.828125 97.304688 47.671875 C 97.070312 47.515625 96.820312 47.382812 96.558594 47.273438 C 96.296875 47.164062 96.027344 47.085938 95.75 47.03125 C 95.472656 46.972656 95.195312 46.945312 94.910156 46.949219 C 94.628906 46.949219 94.347656 46.976562 94.070312 47.03125 C 93.792969 47.085938 93.523438 47.167969 93.265625 47.277344 C 93.003906 47.386719 92.753906 47.519531 92.519531 47.679688 C 92.285156 47.835938 92.070312 48.015625 91.871094 48.214844 C 91.671875 48.417969 91.492188 48.632812 91.335938 48.871094 C 91.179688 49.105469 91.046875 49.355469 90.941406 49.617188 C 90.832031 49.878906 90.753906 50.148438 90.699219 50.425781 C 90.644531 50.703125 90.617188 50.984375 90.621094 51.265625 C 90.621094 51.550781 90.648438 51.828125 90.707031 52.105469 L 95.789062 77.472656 C 87.832031 164.722656 32.625 281.773438 0.957031 328.269531 C 0.527344 328.929688 0.296875 329.65625 0.261719 330.445312 C 0.230469 331.230469 0.398438 331.972656 0.773438 332.671875 C 1.144531 333.367188 1.667969 333.917969 2.339844 334.328125 C 3.011719 334.738281 3.742188 334.949219 4.53125 334.960938 L 111.820312 334.960938 C 112.101562 334.960938 112.382812 334.933594 112.660156 334.875 C 112.933594 334.820312 113.203125 334.738281 113.464844 334.632812 C 113.726562 334.523438 113.972656 334.390625 114.207031 334.234375 C 114.441406 334.078125 114.660156 333.898438 114.859375 333.699219 C 115.058594 333.5 115.238281 333.28125 115.394531 333.046875 C 115.550781 332.8125 115.683594 332.566406 115.789062 332.304688 C 115.898438 332.042969 115.980469 331.773438 116.035156 331.496094 C 116.089844 331.21875 116.117188 330.941406 116.117188 330.65625 C 116.117188 330.375 116.089844 330.09375 116.035156 329.820312 C 115.980469 329.542969 115.898438 329.273438 115.789062 329.011719 C 115.683594 328.75 115.550781 328.503906 115.394531 328.269531 C 115.238281 328.03125 115.058594 327.816406 114.859375 327.617188 C 114.660156 327.417969 114.441406 327.238281 114.207031 327.082031 C 113.972656 326.925781 113.726562 326.792969 113.464844 326.683594 C 113.203125 326.574219 112.933594 326.492188 112.660156 326.4375 C 112.382812 326.382812 112.101562 326.355469 111.820312 326.355469 L 77.59375 326.355469 C 91.070312 303.746094 98.96875 263.234375 103.375 230.941406 C 107.320312 262.679688 115.503906 303.496094 132.46875 332.8125 C 132.699219 333.214844 132.988281 333.566406 133.332031 333.875 C 133.679688 334.183594 134.0625 334.425781 134.488281 334.609375 C 134.914062 334.789062 135.355469 334.898438 135.816406 334.9375 C 136.277344 334.976562 136.730469 334.941406 137.179688 334.832031 C 137.777344 335.222656 329.691406 334.816406 330.492188 334.960938 C 333.992188 335.074219 336.144531 330.578125 333.8125 327.929688 C 300.738281 287.609375 280.132812 249.484375 267.363281 218.964844 L 298.394531 171.050781 C 298.820312 170.390625 299.050781 169.667969 299.082031 168.878906 C 299.109375 168.089844 298.9375 167.351562 298.5625 166.660156 C 298.1875 165.964844 297.660156 165.417969 296.984375 165.015625 C 296.304688 164.613281 295.574219 164.410156 294.785156 164.410156 L 275.335938 164.410156 L 304.28125 119.707031 C 304.710938 119.042969 304.941406 118.320312 304.96875 117.53125 C 305 116.746094 304.828125 116.003906 304.453125 115.3125 C 304.074219 114.617188 303.550781 114.070312 302.871094 113.667969 C 302.195312 113.265625 301.464844 113.0625 300.675781 113.0625 L 285.078125 113.0625 L 312.617188 70.542969 L 340.15625 113.0625 L 324.558594 113.0625 C 323.769531 113.0625 323.039062 113.265625 322.363281 113.667969 C 321.683594 114.070312 321.160156 114.617188 320.78125 115.3125 C 320.40625 116.003906 320.234375 116.746094 320.265625 117.53125 C 320.292969 118.320312 320.523438 119.042969 320.953125 119.707031 L 349.90625 164.410156 L 330.460938 164.410156 C 329.671875 164.410156 328.941406 164.613281 328.261719 165.015625 C 327.585938 165.417969 327.058594 165.964844 326.683594 166.65625 C 326.308594 167.351562 326.136719 168.089844 326.164062 168.878906 C 326.195312 169.664062 326.425781 170.390625 326.851562 171.050781 L 362.636719 226.304688 L 331.535156 226.304688 C 331.253906 226.304688 330.976562 226.332031 330.699219 226.386719 C 330.421875 226.441406 330.152344 226.523438 329.890625 226.628906 C 329.632812 226.738281 329.382812 226.871094 329.148438 227.027344 C 328.914062 227.183594 328.699219 227.363281 328.496094 227.5625 C 328.296875 227.761719 328.121094 227.980469 327.964844 228.214844 C 327.808594 228.449219 327.675781 228.699219 327.566406 228.957031 C 327.457031 229.21875 327.375 229.488281 327.320312 229.765625 C 327.265625 230.042969 327.238281 230.324219 327.238281 230.605469 C 327.238281 230.886719 327.265625 231.167969 327.320312 231.445312 C 327.375 231.722656 327.457031 231.988281 327.566406 232.25 C 327.675781 232.511719 327.808594 232.761719 327.964844 232.996094 C 328.121094 233.230469 328.296875 233.445312 328.496094 233.648438 C 328.699219 233.847656 328.914062 234.023438 329.148438 234.183594 C 329.382812 234.339844 329.632812 234.472656 329.890625 234.578125 C 330.152344 234.6875 330.421875 234.769531 330.699219 234.824219 C 330.976562 234.878906 331.253906 234.90625 331.535156 234.90625 L 370.546875 234.90625 C 371.328125 234.894531 372.054688 234.6875 372.722656 234.28125 C 373.394531 233.878906 373.914062 233.332031 374.289062 232.644531 C 374.660156 231.957031 374.835938 231.21875 374.808594 230.4375 C 374.785156 229.65625 374.566406 228.933594 374.148438 228.269531 Z M 135.039062 319.246094 C 121.40625 290.742188 114.710938 253.527344 111.429688 225.082031 C 125.230469 260.496094 144.402344 280.972656 151.917969 288.0625 C 144.648438 297.566406 139.023438 307.960938 135.039062 319.246094 Z M 141.785156 326.355469 C 145.578125 313.582031 151.933594 301.710938 161.128906 290.21875 C 161.304688 290 161.457031 289.765625 161.585938 289.515625 C 161.714844 289.269531 161.816406 289.007812 161.894531 288.738281 C 161.972656 288.46875 162.027344 288.195312 162.050781 287.914062 C 162.074219 287.636719 162.074219 287.355469 162.042969 287.078125 C 162.015625 286.796875 161.957031 286.523438 161.875 286.257812 C 161.792969 285.988281 161.683594 285.730469 161.550781 285.484375 C 161.414062 285.238281 161.257812 285.003906 161.082031 284.789062 C 160.902344 284.570312 160.703125 284.375 160.488281 284.199219 C 160.085938 283.871094 120.410156 250.761719 108.242188 181.601562 C 108.148438 181.082031 107.96875 180.597656 107.699219 180.144531 C 107.429688 179.691406 107.089844 179.300781 106.675781 178.976562 C 106.261719 178.648438 105.804688 178.40625 105.304688 178.246094 C 104.800781 178.085938 104.289062 178.023438 103.761719 178.050781 C 103.238281 178.082031 102.734375 178.203125 102.253906 178.421875 C 101.773438 178.636719 101.347656 178.929688 100.972656 179.300781 C 100.601562 179.671875 100.304688 180.097656 100.089844 180.578125 C 99.875 181.058594 99.75 181.5625 99.71875 182.089844 C 99.652344 183.199219 92.839844 291.847656 67.304688 326.359375 L 12.371094 326.359375 C 47.425781 269.214844 85.941406 187.738281 101.039062 101.203125 C 118.136719 173.453125 157.125 275.269531 213.71875 326.355469 Z M 321.503906 326.355469 L 226.742188 326.355469 C 159.574219 269.371094 123.363281 159.890625 106.933594 88.691406 C 142.484375 112.519531 169.886719 123.84375 235.894531 133.539062 C 243.222656 194.757812 265.570312 253.203125 321.5 326.355469 Z M 321.503906 326.355469 " fill-opacity="1" fill-rule="nonzero"/></g><path  d="M 108.820312 64.25 C 109.082031 64.355469 109.351562 64.433594 109.628906 64.484375 C 109.90625 64.535156 110.1875 64.558594 110.46875 64.554688 C 110.75 64.550781 111.03125 64.519531 111.304688 64.457031 C 111.582031 64.398438 111.847656 64.316406 112.109375 64.203125 C 112.367188 64.089844 112.613281 63.957031 112.84375 63.796875 C 113.078125 63.636719 113.292969 63.453125 113.488281 63.253906 C 113.6875 63.050781 113.863281 62.832031 114.015625 62.59375 C 114.167969 62.355469 114.296875 62.105469 114.402344 61.84375 L 120.667969 46.082031 C 120.773438 45.820312 120.851562 45.546875 120.902344 45.269531 C 120.953125 44.992188 120.976562 44.710938 120.972656 44.429688 C 120.96875 44.148438 120.9375 43.867188 120.878906 43.59375 C 120.820312 43.316406 120.734375 43.046875 120.625 42.789062 C 120.511719 42.527344 120.375 42.28125 120.214844 42.050781 C 120.054688 41.816406 119.875 41.601562 119.671875 41.40625 C 119.46875 41.207031 119.25 41.03125 119.011719 40.878906 C 118.777344 40.726562 118.527344 40.597656 118.265625 40.492188 C 118.003906 40.386719 117.730469 40.308594 117.453125 40.257812 C 117.175781 40.207031 116.898438 40.183594 116.613281 40.1875 C 116.332031 40.191406 116.054688 40.222656 115.777344 40.28125 C 115.5 40.339844 115.234375 40.425781 114.972656 40.535156 C 114.714844 40.648438 114.46875 40.785156 114.238281 40.945312 C 114.003906 41.105469 113.789062 41.285156 113.59375 41.488281 C 113.394531 41.691406 113.21875 41.910156 113.066406 42.148438 C 112.914062 42.386719 112.785156 42.636719 112.679688 42.898438 L 106.414062 58.660156 C 106.308594 58.921875 106.230469 59.195312 106.179688 59.472656 C 106.128906 59.75 106.105469 60.03125 106.109375 60.3125 C 106.113281 60.59375 106.144531 60.875 106.203125 61.152344 C 106.261719 61.429688 106.347656 61.695312 106.457031 61.957031 C 106.570312 62.214844 106.707031 62.460938 106.867188 62.695312 C 107.027344 62.925781 107.207031 63.140625 107.410156 63.339844 C 107.613281 63.535156 107.832031 63.710938 108.070312 63.863281 C 108.308594 64.019531 108.558594 64.148438 108.820312 64.25 Z M 108.820312 64.25 " fill-opacity="1" fill-rule="nonzero"/><path  d="M 312.617188 280.375 C 312.902344 280.375 313.179688 280.347656 313.457031 280.292969 C 313.734375 280.238281 314.003906 280.15625 314.265625 280.046875 C 314.523438 279.9375 314.773438 279.804688 315.007812 279.648438 C 315.242188 279.492188 315.457031 279.3125 315.65625 279.113281 C 315.859375 278.914062 316.035156 278.699219 316.191406 278.460938 C 316.347656 278.226562 316.480469 277.980469 316.589844 277.71875 C 316.699219 277.457031 316.777344 277.1875 316.835938 276.910156 C 316.890625 276.632812 316.917969 276.355469 316.917969 276.074219 L 316.917969 171.5625 C 316.761719 163.132812 320.667969 155.519531 326.003906 149.226562 C 329.34375 144.6875 322.65625 139.5625 319.15625 144.023438 L 316.917969 146.976562 L 316.917969 132.964844 C 316.820312 127.316406 308.417969 127.308594 308.320312 132.964844 L 308.320312 192.773438 C 307.871094 192.335938 304.773438 189.722656 304.238281 189.257812 C 299.875 185.667969 294.425781 192.070312 298.664062 195.808594 C 304.265625 200.121094 308.335938 204.835938 308.320312 212.285156 L 308.320312 226.304688 L 287.851562 226.304688 C 287.570312 226.304688 287.289062 226.332031 287.011719 226.386719 C 286.738281 226.441406 286.46875 226.523438 286.207031 226.628906 C 285.945312 226.738281 285.699219 226.871094 285.464844 227.027344 C 285.230469 227.183594 285.011719 227.363281 284.8125 227.5625 C 284.613281 227.761719 284.433594 227.980469 284.277344 228.214844 C 284.121094 228.449219 283.988281 228.699219 283.882812 228.957031 C 283.773438 229.21875 283.691406 229.488281 283.636719 229.765625 C 283.582031 230.042969 283.554688 230.324219 283.554688 230.605469 C 283.554688 230.886719 283.582031 231.167969 283.636719 231.445312 C 283.691406 231.722656 283.773438 231.988281 283.882812 232.25 C 283.988281 232.511719 284.121094 232.761719 284.277344 232.996094 C 284.433594 233.230469 284.613281 233.445312 284.8125 233.648438 C 285.011719 233.847656 285.230469 234.023438 285.464844 234.183594 C 285.699219 234.339844 285.945312 234.472656 286.207031 234.578125 C 286.46875 234.6875 286.738281 234.769531 287.011719 234.824219 C 287.289062 234.878906 287.570312 234.90625 287.851562 234.90625 L 308.320312 234.90625 L 308.320312 276.070312 C 308.320312 276.355469 308.347656 276.632812 308.402344 276.910156 C 308.457031 277.1875 308.539062 277.457031 308.648438 277.71875 C 308.757812 277.980469 308.886719 278.226562 309.046875 278.460938 C 309.203125 278.695312 309.378906 278.914062 309.578125 279.113281 C 309.777344 279.3125 309.996094 279.492188 310.230469 279.648438 C 310.464844 279.804688 310.714844 279.9375 310.972656 280.046875 C 311.234375 280.15625 311.503906 280.238281 311.78125 280.292969 C 312.058594 280.347656 312.335938 280.375 312.617188 280.375 Z M 312.617188 280.375 " fill-opacity="1" fill-rule="nonzero"/></svg>
