<svg xmlns="http://www.w3.org/2000/svg" xmlns:xlink="http://www.w3.org/1999/xlink" width="500" zoomAndPan="magnify" viewBox="0 0 375 374.999991" height="500" preserveAspectRatio="xMidYMid meet" version="1.0" fill="currentColor"><defs><clipPath id="d910f12a69"><path d="M 113 66.75 L 264 66.75 L 264 287 L 113 287 Z M 113 66.75 " clip-rule="nonzero"/></clipPath><clipPath id="71a70ce2d4"><path d="M 151 143 L 193 143 L 193 317.25 L 151 317.25 Z M 151 143 " clip-rule="nonzero"/></clipPath><clipPath id="64f8b1c945"><path d="M 146 309 L 230 309 L 230 317.25 L 146 317.25 Z M 146 309 " clip-rule="nonzero"/></clipPath><clipPath id="070e39de99"><path d="M 247 66.75 L 375 66.75 L 375 287 L 247 287 Z M 247 66.75 " clip-rule="nonzero"/></clipPath><clipPath id="c83fce2614"><path d="M 262 143 L 304 143 L 304 317.25 L 262 317.25 Z M 262 143 " clip-rule="nonzero"/></clipPath><clipPath id="0494b112fc"><path d="M 258 309 L 342 309 L 342 317.25 L 258 317.25 Z M 258 309 " clip-rule="nonzero"/></clipPath><clipPath id="6c437b1629"><path d="M 0 66.75 L 128 66.75 L 128 287 L 0 287 Z M 0 66.75 " clip-rule="nonzero"/></clipPath><clipPath id="96a542c632"><path d="M 71 143 L 113 143 L 113 317.25 L 71 317.25 Z M 71 143 " clip-rule="nonzero"/></clipPath><clipPath id="26f8cb1de9"><path d="M 33 309 L 117 309 L 117 317.25 L 33 317.25 Z M 33 309 " clip-rule="nonzero"/></clipPath></defs><g clip-path="url(#d910f12a69)"><path  d="M 188.335938 74.609375 C 154.789062 81.714844 120.84375 148.8125 120.84375 208.460938 C 120.84375 245 143.714844 263.703125 162.890625 272.960938 C 178.820312 280.667969 197.855469 280.667969 213.785156 272.960938 C 232.960938 263.703125 255.820312 245 255.820312 208.460938 C 255.820312 148.8125 221.886719 81.714844 188.335938 74.609375 Z M 188.335938 286.371094 C 178.453125 286.371094 168.566406 284.195312 159.558594 279.847656 C 138.40625 269.632812 113.195312 248.960938 113.195312 208.460938 C 113.195312 144.0625 150.066406 73.972656 187.632812 66.957031 C 188.09375 66.867188 188.578125 66.867188 189.039062 66.957031 C 226.605469 73.972656 263.472656 144.0625 263.472656 208.460938 C 263.472656 248.960938 238.265625 269.632812 217.113281 279.847656 C 208.109375 284.195312 198.222656 286.371094 188.335938 286.371094 " fill-opacity="1" fill-rule="nonzero"/></g><g clip-path="url(#71a70ce2d4)"><path  d="M 188.335938 317.039062 C 187.359375 317.039062 186.378906 316.664062 185.632812 315.917969 C 184 314.289062 182.59375 312.890625 184.351562 175.550781 C 184.476562 165.386719 179.304688 156.289062 171.175781 152.367188 C 166.3125 150.023438 161.753906 150.242188 157.265625 153.050781 C 155.484375 154.15625 153.113281 153.613281 152 151.824219 C 150.878906 150.035156 151.429688 147.667969 153.222656 146.554688 C 159.917969 142.375 167.285156 142.007812 174.5 145.484375 C 185.296875 150.6875 192.171875 162.535156 192.003906 175.644531 C 191.015625 252.933594 190.972656 306.070312 191.902344 311.8125 C 192.4375 313.183594 192.152344 314.808594 191.039062 315.917969 C 190.296875 316.664062 189.316406 317.039062 188.335938 317.039062 " fill-opacity="1" fill-rule="nonzero"/></g><path  d="M 187.398438 242.316406 C 186.527344 242.316406 185.640625 242.015625 184.921875 241.394531 C 183.316406 240.03125 183.121094 237.625 184.488281 236.019531 C 185.5 234.839844 209.371094 207.25 230.742188 219.089844 C 232.59375 220.117188 233.261719 222.441406 232.230469 224.289062 C 231.203125 226.128906 228.867188 226.789062 227.027344 225.777344 C 211.128906 216.921875 190.523438 240.734375 190.3125 240.96875 C 189.558594 241.863281 188.480469 242.316406 187.398438 242.316406 " fill-opacity="1" fill-rule="nonzero"/><path  d="M 187.40625 218.5625 C 186.285156 218.5625 185.164062 218.078125 184.410156 217.140625 C 183.792969 216.355469 168.976562 198.285156 152.570312 208.242188 C 150.769531 209.339844 148.410156 208.761719 147.3125 206.964844 C 146.214844 205.160156 146.792969 202.800781 148.59375 201.707031 C 166.347656 190.917969 183.707031 203.972656 190.394531 212.367188 C 191.710938 214.011719 191.441406 216.414062 189.792969 217.734375 C 189.082031 218.292969 188.246094 218.5625 187.40625 218.5625 " fill-opacity="1" fill-rule="nonzero"/><path  d="M 188.335938 189.238281 C 187.523438 189.238281 186.703125 188.988281 186.011719 188.445312 C 184.328125 187.164062 184.007812 184.765625 185.296875 183.09375 C 190.816406 175.902344 205.628906 164.582031 222.261719 173.261719 C 224.136719 174.238281 224.867188 176.546875 223.886719 178.417969 C 222.90625 180.285156 220.597656 180.996094 218.730469 180.042969 C 203.589844 172.148438 191.871094 187.105469 191.375 187.742188 C 190.621094 188.730469 189.484375 189.238281 188.335938 189.238281 " fill-opacity="1" fill-rule="nonzero"/><g clip-path="url(#64f8b1c945)"><path  d="M 226.089844 317.039062 L 150.585938 317.039062 C 148.46875 317.039062 146.761719 315.324219 146.761719 313.21875 C 146.761719 311.101562 148.46875 309.390625 150.585938 309.390625 L 226.089844 309.390625 C 228.207031 309.390625 229.914062 311.101562 229.914062 313.21875 C 229.914062 315.324219 228.207031 317.039062 226.089844 317.039062 " fill-opacity="1" fill-rule="nonzero"/></g><g clip-path="url(#070e39de99)"><path  d="M 299.859375 286.371094 C 289.972656 286.378906 280.09375 284.195312 271.078125 279.847656 C 262.742188 275.808594 255.335938 270.902344 249.074219 265.25 C 247.507812 263.835938 247.382812 261.414062 248.804688 259.847656 C 250.21875 258.285156 252.648438 258.167969 254.214844 259.574219 C 259.929688 264.75 266.726562 269.253906 274.410156 272.960938 C 290.347656 280.667969 309.375 280.667969 325.304688 272.960938 C 344.488281 263.703125 367.347656 245 367.347656 208.460938 C 367.347656 148.8125 333.40625 81.714844 299.859375 74.609375 C 284.515625 77.886719 267.5625 94.851562 254.355469 120.175781 C 253.375 122.050781 251.074219 122.777344 249.191406 121.804688 C 247.324219 120.835938 246.597656 118.519531 247.566406 116.65625 C 262.265625 88.445312 281.074219 70.328125 299.15625 66.957031 C 299.625 66.867188 300.101562 66.867188 300.5625 66.957031 C 338.128906 73.972656 375 144.0625 375 208.460938 C 375 248.960938 349.789062 269.632812 328.644531 279.847656 C 319.628906 284.195312 309.742188 286.371094 299.859375 286.371094 " fill-opacity="1" fill-rule="nonzero"/></g><g clip-path="url(#c83fce2614)"><path  d="M 299.859375 317.039062 C 298.878906 317.039062 297.898438 316.664062 297.152344 315.917969 C 295.53125 314.289062 294.132812 312.890625 295.875 175.558594 C 296.007812 165.386719 290.835938 156.289062 282.699219 152.367188 C 277.828125 150.023438 273.28125 150.242188 268.792969 153.050781 C 267.003906 154.15625 264.644531 153.613281 263.519531 151.824219 C 262.40625 150.035156 262.953125 147.667969 264.75 146.554688 C 271.449219 142.382812 278.804688 142 286.019531 145.484375 C 296.828125 150.6875 303.699219 162.535156 303.53125 175.652344 C 302.527344 254.148438 302.496094 306.0625 303.421875 311.8125 C 303.960938 313.183594 303.675781 314.816406 302.5625 315.917969 C 301.816406 316.664062 300.835938 317.039062 299.859375 317.039062 " fill-opacity="1" fill-rule="nonzero"/></g><path  d="M 298.929688 242.316406 C 298.050781 242.316406 297.171875 242.015625 296.449219 241.40625 C 294.84375 240.03125 294.652344 237.625 296.015625 236.019531 C 297.019531 234.839844 320.910156 207.25 342.269531 219.089844 C 344.121094 220.117188 344.78125 222.441406 343.753906 224.289062 C 342.730469 226.128906 340.40625 226.789062 338.554688 225.777344 C 322.632812 216.949219 302.050781 240.734375 301.839844 240.96875 C 301.089844 241.863281 300.007812 242.316406 298.929688 242.316406 " fill-opacity="1" fill-rule="nonzero"/><path  d="M 298.9375 218.5625 C 297.808594 218.5625 296.695312 218.078125 295.941406 217.140625 C 295.832031 217.015625 285.375 203.953125 272.542969 205.316406 C 270.34375 205.46875 268.570312 203.980469 268.375 201.882812 C 268.167969 199.773438 269.707031 197.910156 271.816406 197.699219 C 288.707031 196.078125 301.390625 211.707031 301.925781 212.367188 C 303.238281 214.011719 302.964844 216.414062 301.3125 217.734375 C 300.609375 218.292969 299.773438 218.5625 298.9375 218.5625 " fill-opacity="1" fill-rule="nonzero"/><path  d="M 299.859375 189.230469 C 299.046875 189.230469 298.226562 188.980469 297.53125 188.4375 C 295.855469 187.15625 295.539062 184.765625 296.820312 183.09375 C 302.335938 175.910156 317.160156 164.617188 333.792969 173.261719 C 335.667969 174.238281 336.386719 176.546875 335.414062 178.417969 C 334.4375 180.285156 332.117188 180.996094 330.25 180.042969 C 315.191406 172.191406 303.382812 187.105469 302.886719 187.75 C 302.132812 188.730469 301.003906 189.230469 299.859375 189.230469 " fill-opacity="1" fill-rule="nonzero"/><g clip-path="url(#0494b112fc)"><path  d="M 337.617188 317.039062 L 262.105469 317.039062 C 259.988281 317.039062 258.28125 315.324219 258.28125 313.21875 C 258.28125 311.101562 259.988281 309.390625 262.105469 309.390625 L 337.617188 309.390625 C 339.726562 309.390625 341.441406 311.101562 341.441406 313.21875 C 341.441406 315.324219 339.726562 317.039062 337.617188 317.039062 " fill-opacity="1" fill-rule="nonzero"/></g><g clip-path="url(#6c437b1629)"><path  d="M 75.132812 286.371094 C 65.257812 286.371094 55.371094 284.195312 46.355469 279.847656 C 25.210938 269.632812 0 248.960938 0 208.460938 C 0 144.0625 36.871094 73.972656 74.429688 66.957031 C 74.898438 66.867188 75.375 66.867188 75.835938 66.957031 C 93.925781 70.328125 112.726562 88.445312 127.433594 116.65625 C 128.402344 118.519531 127.683594 120.835938 125.808594 121.804688 C 123.925781 122.785156 121.617188 122.058594 120.644531 120.175781 C 107.4375 94.851562 90.476562 77.886719 75.132812 74.609375 C 41.585938 81.714844 7.652344 148.8125 7.652344 208.460938 C 7.652344 245 30.511719 263.703125 49.6875 272.960938 C 65.625 280.667969 84.652344 280.667969 100.582031 272.960938 C 108.273438 269.246094 115.070312 264.75 120.785156 259.574219 C 122.351562 258.167969 124.769531 258.292969 126.195312 259.847656 C 127.609375 261.414062 127.484375 263.835938 125.917969 265.25 C 119.664062 270.902344 112.265625 275.808594 103.921875 279.847656 C 94.90625 284.195312 85.027344 286.371094 75.132812 286.371094 " fill-opacity="1" fill-rule="nonzero"/></g><g clip-path="url(#96a542c632)"><path  d="M 75.132812 317.039062 C 74.15625 317.039062 73.175781 316.664062 72.429688 315.917969 C 71.316406 314.808594 71.03125 313.183594 71.578125 311.8125 C 72.496094 306.070312 72.457031 252.933594 71.46875 175.652344 C 71.300781 162.535156 78.171875 150.6875 88.96875 145.484375 C 96.1875 142 103.542969 142.375 110.25 146.554688 C 112.046875 147.667969 112.59375 150.035156 111.480469 151.824219 C 110.355469 153.613281 108.003906 154.15625 106.207031 153.050781 C 101.710938 150.242188 97.15625 150.023438 92.300781 152.367188 C 84.164062 156.289062 78.992188 165.386719 79.117188 175.558594 C 80.875 312.890625 79.46875 314.289062 77.847656 315.917969 C 77.09375 316.664062 76.113281 317.039062 75.132812 317.039062 " fill-opacity="1" fill-rule="nonzero"/></g><path  d="M 76.070312 242.316406 C 74.992188 242.316406 73.910156 241.863281 73.160156 240.96875 C 72.949219 240.734375 52.359375 216.972656 36.445312 225.777344 C 34.605469 226.789062 32.269531 226.128906 31.246094 224.289062 C 30.21875 222.441406 30.878906 220.117188 32.730469 219.089844 C 54.089844 207.25 77.980469 234.839844 78.984375 236.019531 C 80.347656 237.625 80.15625 240.03125 78.550781 241.394531 C 77.828125 242.015625 76.949219 242.316406 76.070312 242.316406 " fill-opacity="1" fill-rule="nonzero"/><path  d="M 76.0625 218.570312 C 75.234375 218.570312 74.398438 218.300781 73.6875 217.742188 C 72.035156 216.429688 71.761719 214.023438 73.074219 212.367188 C 73.601562 211.707031 86.207031 196.1875 103.183594 197.699219 C 105.292969 197.910156 106.832031 199.773438 106.625 201.882812 C 106.429688 203.980469 104.671875 205.492188 102.457031 205.316406 C 89.605469 203.988281 79.175781 217 79.066406 217.132812 C 78.304688 218.078125 77.191406 218.570312 76.0625 218.570312 " fill-opacity="1" fill-rule="nonzero"/><path  d="M 75.140625 189.230469 C 73.996094 189.230469 72.867188 188.730469 72.105469 187.75 C 71.609375 187.105469 59.800781 172.183594 44.75 180.042969 C 42.867188 181.003906 40.554688 180.292969 39.585938 178.417969 C 38.613281 176.546875 39.332031 174.238281 41.207031 173.261719 C 57.824219 164.582031 72.65625 175.902344 78.171875 183.09375 C 79.453125 184.765625 79.136719 187.15625 77.46875 188.4375 C 76.773438 188.980469 75.953125 189.230469 75.140625 189.230469 " fill-opacity="1" fill-rule="nonzero"/><g clip-path="url(#26f8cb1de9)"><path  d="M 112.894531 317.039062 L 37.382812 317.039062 C 35.265625 317.039062 33.558594 315.324219 33.558594 313.21875 C 33.558594 311.101562 35.265625 309.390625 37.382812 309.390625 L 112.894531 309.390625 C 115.003906 309.390625 116.71875 311.101562 116.71875 313.21875 C 116.71875 315.324219 115.003906 317.039062 112.894531 317.039062 " fill-opacity="1" fill-rule="nonzero"/></g></svg>
